<svg aria-hidden="true" style="position: absolute; width: 0; height: 0; overflow: hidden;" version="1.1" xmlns="http://www.w3.org/2000/svg" xmlns:xlink="http://www.w3.org/1999/xlink">
  <defs>
    <symbol id="_round" viewBox="0 0 32 34">
      <path d="M16 0c-8.838 0-16 7.162-16 16s7.162 16 16 16c8.837 0 16-7.163 16-16s-7.163-16-16-16zM14.5 9.5c0-0.825 0.675-1.5 1.5-1.5s1.5 0.672 1.5 1.5v8c0 0.828-0.672 1.5-1.5 1.5s-1.5-0.669-1.5-1.5v-8zM16 25c-1.085 0-1.965-0.88-1.965-1.965s0.879-1.965 1.965-1.965c1.086 0 1.965 0.88 1.965 1.965-0.002 1.084-0.877 1.965-1.965 1.965z"></path>
    </symbol>
    <symbol id="arrow_long" viewBox="0 0 32 34">
      <path stroke-width="2.5263" stroke-miterlimit="4" stroke-linecap="round" stroke-linejoin="round" d="M5.895 16h20.211M26.105 16l-7.579-7.579M26.105 16l-7.579 7.579"></path>
    </symbol>
    <symbol id="arrow_slim" viewBox="0 0 32 34">
      <path d="M8.225 2.255c-0.24 0.246-0.431 0.538-0.561 0.859s-0.197 0.666-0.197 1.014c0 0.348 0.067 0.693 0.197 1.014s0.321 0.614 0.561 0.859l10.056 10.311-10.056 10.311c-0.485 0.497-0.757 1.171-0.757 1.873s0.272 1.377 0.757 1.873c0.485 0.497 1.142 0.776 1.827 0.776s1.343-0.279 1.827-0.776l11.896-12.198c0.24-0.246 0.431-0.538 0.561-0.859s0.197-0.666 0.197-1.014c0-0.348-0.067-0.693-0.197-1.014s-0.321-0.614-0.561-0.859l-11.896-12.198c-0.985-1.010-2.644-1.010-3.654 0.027z"></path>
    </symbol>
    <symbol id="camera" viewBox="0 0 32 34">
      <path d="M16 23.333c1.667 0 3.084-0.583 4.251-1.749s1.749-2.584 1.749-4.251-0.583-3.084-1.749-4.251c-1.167-1.166-2.584-1.749-4.251-1.749s-3.084 0.583-4.251 1.749c-1.166 1.167-1.749 2.584-1.749 4.251s0.583 3.084 1.749 4.251c1.167 1.166 2.584 1.749 4.251 1.749zM5.333 28c-0.733 0-1.361-0.261-1.883-0.783s-0.784-1.151-0.784-1.884v-16c0-0.733 0.261-1.361 0.784-1.883s1.149-0.784 1.883-0.784h4.2l2.467-2.667h8l2.467 2.667h4.2c0.733 0 1.361 0.261 1.884 0.784s0.783 1.149 0.783 1.883v16c0 0.733-0.261 1.361-0.783 1.884s-1.151 0.783-1.884 0.783h-21.333z"></path>
    </symbol>
    <symbol id="capture" viewBox="0 0 32 34">
      <path stroke-width="0.5" stroke-miterlimit="4" stroke-linecap="round" stroke-linejoin="round" d="M28.191 11.429v-4.581c0-0.807-0.32-1.58-0.889-2.152s-1.342-0.893-2.149-0.896l-4.581-0.014M28.191 20.571v4.571c0 0.808-0.321 1.583-0.893 2.155s-1.347 0.893-2.155 0.893h-4.571M11.429 3.787l-4.581 0.015c-0.807 0.002-1.58 0.325-2.149 0.896s-0.889 1.345-0.889 2.152v4.579M11.429 28.19h-4.571c-0.808 0-1.583-0.321-2.155-0.893s-0.893-1.347-0.893-2.155v-4.571"></path>
    </symbol>
    <symbol id="checkbox" viewBox="0 0 32 34">
      <path d="M24.876 3.239c0.867-1.279 2.607-1.613 3.886-0.746s1.613 2.607 0.746 3.886l-15.174 22.381c-1.11 1.637-3.521 1.637-4.631 0l-7.207-10.631c-0.867-1.279-0.533-3.019 0.746-3.886s3.019-0.533 3.886 0.746l4.892 7.215 12.858-18.966z"></path>
    </symbol>
    <symbol id="checkmark_round" viewBox="0 0 32 34">
      <path d="M0 16c0-8.838 7.162-16 16-16s16 7.162 16 16c0 8.837-7.163 16-16 16s-16-7.163-16-16zM23.237 13.238c0.681-0.681 0.681-1.794 0-2.475s-1.794-0.681-2.475 0l-6.763 6.762-2.763-2.762c-0.681-0.681-1.794-0.681-2.475 0s-0.681 1.794 0 2.475l4 4c0.681 0.681 1.794 0.681 2.475 0l8-8z"></path>
    </symbol>
    <symbol id="clock" viewBox="0 0 32 34">
      <path stroke-width="2.9714" stroke-miterlimit="4" stroke-linecap="round" stroke-linejoin="round" d="M15.998 29.334c7.364 0 13.333-5.97 13.333-13.333s-5.97-13.333-13.333-13.333-13.333 5.97-13.333 13.333c0 7.364 5.97 13.333 13.333 13.333z"></path>
      <path stroke-width="2.9714" stroke-miterlimit="4" stroke-linecap="round" stroke-linejoin="round" d="M16 8v8l5.333 2.667"></path>
    </symbol>
    <symbol id="edit" viewBox="0 0 32 34">
      <path stroke-width="2.7733" stroke-miterlimit="4" stroke-linecap="round" stroke-linejoin="round" d="M4.537 24.602c0.098-0.882 0.147-1.323 0.28-1.735 0.118-0.366 0.286-0.714 0.497-1.035 0.239-0.362 0.552-0.676 1.18-1.303l15.729-15.729c1.375-1.375 3.603-1.375 4.978 0v0c1.375 1.375 1.375 3.603 0 4.978l-15.729 15.729c-0.628 0.628-0.941 0.941-1.303 1.18-0.321 0.212-0.669 0.379-1.035 0.497-0.412 0.134-0.853 0.182-1.735 0.281l-3.22 0.358 0.358-3.22z"></path>
    </symbol>
    <symbol id="envelope" viewBox="0 0 32 34">
      <path stroke-width="2.1333" stroke-miterlimit="4" stroke-linecap="round" stroke-linejoin="round" d="M4.622 5.333h22.756c0.754 0.002 1.476 0.284 2.009 0.783s0.833 1.177 0.836 1.883v16c-0.002 0.707-0.303 1.384-0.836 1.883s-1.255 0.781-2.009 0.783h-22.756c-0.754-0.002-1.476-0.284-2.009-0.783s-0.833-1.177-0.836-1.883v-16c0.002-0.707 0.303-1.384 0.836-1.883s1.255-0.781 2.009-0.783v0z"></path>
      <path stroke-width="2.1333" stroke-miterlimit="4" stroke-linecap="round" stroke-linejoin="round" d="M30.222 7.999l-14.222 9.333-14.222-9.333"></path>
    </symbol>
    <symbol id="facebook" viewBox="0 0 32 34">
      <path d="M28.19 14.559c0-7.619-6.141-13.797-13.714-13.797s-13.714 6.178-13.714 13.797c0 6.886 5.014 12.594 11.571 13.63v-9.641h-3.483v-3.99h3.483v-3.040c0-3.457 2.048-5.369 5.18-5.369 1.5 0 3.070 0.27 3.070 0.27v3.396h-1.73c-1.703 0-2.235 1.063-2.235 2.156v2.587h3.803l-0.607 3.99h-3.195v9.642c6.557-1.035 11.572-6.743 11.572-13.631z"></path>
    </symbol>
    <symbol id="hamburger" viewBox="0 0 32 34">
      <path stroke-width="2.2857" stroke-miterlimit="4" stroke-linecap="round" stroke-linejoin="round" d="M4 16h24M4 8h24M4 24h16"></path>
    </symbol>
    <symbol id="instagram" viewBox="0 0 32 34">
      <path d="M22.349 3.301c1.683 0.005 3.295 0.676 4.484 1.865s1.86 2.802 1.865 4.484v12.698c-0.005 1.683-0.676 3.295-1.865 4.484s-2.802 1.86-4.484 1.865h-12.698c-1.682-0.005-3.295-0.676-4.484-1.865s-1.86-2.802-1.865-4.484v-12.698c0.005-1.682 0.676-3.295 1.865-4.484s2.802-1.86 4.484-1.865h12.698zM22.349 0.762h-12.698c-4.889 0-8.889 4-8.889 8.889v12.698c0 4.889 4 8.889 8.889 8.889h12.698c4.889 0 8.889-4 8.889-8.889v-12.698c0-4.889-4-8.889-8.889-8.889z"></path>
      <path d="M24.254 9.654c-0.377 0-0.745-0.112-1.058-0.321s-0.557-0.507-0.702-0.855-0.182-0.731-0.108-1.101c0.074-0.369 0.255-0.709 0.521-0.975s0.606-0.448 0.975-0.521c0.369-0.074 0.752-0.036 1.101 0.108s0.645 0.388 0.855 0.702c0.209 0.313 0.321 0.681 0.321 1.058 0.001 0.25-0.048 0.498-0.144 0.73s-0.236 0.442-0.413 0.619c-0.177 0.177-0.387 0.317-0.619 0.413s-0.479 0.144-0.73 0.144zM16 10.923c1.005 0 1.987 0.298 2.822 0.856s1.486 1.351 1.871 2.28c0.384 0.928 0.485 1.95 0.289 2.935s-0.68 1.89-1.39 2.601-1.615 1.194-2.601 1.39c-0.985 0.196-2.007 0.095-2.935-0.289s-1.722-1.036-2.28-1.871c-0.558-0.835-0.856-1.817-0.856-2.822 0.001-1.347 0.537-2.638 1.489-3.59s2.243-1.488 3.59-1.489zM16 8.383c-1.507 0-2.98 0.447-4.233 1.284s-2.229 2.027-2.806 3.419c-0.577 1.392-0.728 2.924-0.434 4.402s1.020 2.835 2.085 3.901c1.066 1.066 2.423 1.791 3.901 2.085s3.010 0.143 4.402-0.434c1.392-0.577 2.582-1.553 3.419-2.806s1.284-2.726 1.284-4.233c0-2.021-0.803-3.959-2.232-5.388s-3.367-2.232-5.387-2.232z"></path>
    </symbol>
    <symbol id="lock" viewBox="0 0 32 34">
      <path stroke-width="2.56" stroke-miterlimit="4" stroke-linecap="round" stroke-linejoin="round" d="M22.4 14.72v-3.84c0-3.535-2.865-6.4-6.4-6.4s-6.4 2.865-6.4 6.4v3.84M10.624 27.52h10.752c2.151 0 3.226 0 4.047-0.419 0.723-0.368 1.31-0.956 1.678-1.678 0.419-0.822 0.419-1.897 0.419-4.047v-0.512c0-2.151 0-3.226-0.419-4.047-0.368-0.723-0.956-1.31-1.678-1.678-0.822-0.419-1.897-0.419-4.047-0.419h-10.752c-2.151 0-3.226 0-4.047 0.419-0.723 0.368-1.31 0.956-1.678 1.678-0.419 0.822-0.419 1.897-0.419 4.047v0.512c0 2.151 0 3.226 0.419 4.047 0.368 0.723 0.956 1.31 1.678 1.678 0.821 0.419 1.897 0.419 4.047 0.419z"></path>
    </symbol>
    <symbol id="login_background" viewBox="0 0 32 34">
      <path d="M0 4.063l8.094 2.566c2.257 0.716 4.611 1.080 6.979 1.080 2.546 0 5.075-0.408 7.492-1.208l9.435-3.125v25.25h-32v-24.563z"></path>
    </symbol>
    <symbol id="logo" viewBox="0 0 32 34">
      <path d="M 3.199 3.309 v 5.817 c 0 1.661 0.725 3.132 1.848 4.083 c 0.549 0.466 0.912 1.094 0.912 1.791 v 9.71 c 0 1.079 0.928 1.956 2.071 1.956 s 2.071 -0.876 2.071 -1.956 v -9.71 c 0 -0.697 0.363 -1.326 0.912 -1.791 c 1.124 -0.952 1.848 -2.422 1.848 -4.083 v -5.843"></path>
      <path d="M8.029 9.719v-6.519"></path>
      <path d="M26.665 4.571c0-0.72-0.618-1.304-1.38-1.304h-1.38c-2.287 0-4.141 1.751-4.141 3.911v7.822c0 1.7 1.155 3.133 2.761 3.671v6.039c0 1.080 0.928 1.956 2.070 1.956s2.071-0.876 2.071-1.956v-20.14z"></path>
    </symbol>
    <symbol id="minus" viewBox="0 0 32 34">
      <path stroke-width="3.4286" stroke-miterlimit="4" stroke-linecap="round" stroke-linejoin="round" d="M5 16h22"></path>
    </symbol>
    <symbol id="plus" viewBox="0 0 32 34">
      <path stroke-width="3.4286" stroke-miterlimit="4" stroke-linecap="round" stroke-linejoin="round" d="M5 16h22"></path>
      <path stroke-width="3.4286" stroke-miterlimit="4" stroke-linecap="round" stroke-linejoin="round" d="M16 5v22"></path>
    </symbol>
    <symbol id="search" viewBox="0 0 32 34">
      <path stroke-width="2.56" stroke-miterlimit="4" stroke-linecap="round" stroke-linejoin="round" d="M14.667 25.333c5.891 0 10.667-4.776 10.667-10.667s-4.776-10.667-10.667-10.667c-5.891 0-10.667 4.776-10.667 10.667s4.776 10.667 10.667 10.667z"></path>
      <path stroke-width="2.56" stroke-miterlimit="4" stroke-linecap="round" stroke-linejoin="round" d="M28 28l-5.8-5.8"></path>
    </symbol>
    <symbol id="spec_rectangle" viewBox="0 0 32 34">
      <path d="M5.8 8.114l11.601-5.41c3.203-1.494 7.011-0.108 8.505 3.096l5.41 11.601c1.494 3.203 0.108 7.011-3.096 8.505l-11.601 5.41c-3.203 1.494-7.011 0.108-8.505-3.096l-5.41-11.601c-1.494-3.203-0.108-7.011 3.096-8.505z"></path>
    </symbol>
    <symbol id="spec_round" viewBox="0 0 32 34">
      <path d="M12.429 3.347c6.865-3.201 15.024-0.231 18.225 6.633s0.231 15.024-6.633 18.225c-6.865 3.201-15.024 0.231-18.225-6.633s-0.231-15.024 6.633-18.225z"></path>
    </symbol>
    <symbol id="trash" viewBox="0 0 32 34">
      <path stroke-width="2.7429" stroke-miterlimit="4" stroke-linecap="round" stroke-linejoin="round" d="M21.333 8v-1.067c0-1.493 0-2.24-0.291-2.811-0.256-0.502-0.664-0.91-1.165-1.165-0.57-0.291-1.317-0.291-2.811-0.291h-2.133c-1.493 0-2.24 0-2.811 0.291-0.502 0.256-0.91 0.664-1.165 1.165-0.291 0.57-0.291 1.317-0.291 2.811v1.067M13.333 15.333v6.667M18.667 15.333v6.667M4 8h24M25.333 8v14.933c0 2.24 0 3.36-0.436 4.216-0.384 0.753-0.995 1.365-1.748 1.748-0.856 0.436-1.976 0.436-4.216 0.436h-5.867c-2.24 0-3.36 0-4.216-0.436-0.753-0.384-1.365-0.995-1.748-1.748-0.436-0.856-0.436-1.976-0.436-4.216v-14.933"></path>
    </symbol>
    <symbol id="twitter" viewBox="0 0 32 34">
      <path d="M28.8 5.854c-1.080 0.456-2.223 0.757-3.393 0.893 1.229-0.7 2.154-1.812 2.6-3.127-1.162 0.661-2.432 1.124-3.754 1.371-0.557-0.567-1.226-1.019-1.968-1.326s-1.54-0.466-2.347-0.464c-3.265 0-5.908 2.532-5.908 5.652-0.002 0.434 0.049 0.867 0.152 1.289-2.341-0.107-4.634-0.687-6.731-1.705s-3.953-2.449-5.449-4.204c-0.525 0.86-0.802 1.841-0.803 2.841 0 1.96 1.052 3.692 2.64 4.707-0.941-0.022-1.863-0.264-2.687-0.706v0.070c0 2.742 2.040 5.022 4.74 5.542-0.508 0.132-1.031 0.198-1.556 0.198-0.373 0.001-0.745-0.035-1.111-0.105 0.751 2.246 2.935 3.879 5.523 3.926-2.103 1.576-4.684 2.427-7.339 2.421-0.471-0.001-0.942-0.028-1.41-0.082 2.701 1.677 5.84 2.564 9.044 2.555 10.882 0 16.826-8.616 16.826-16.088 0-0.245-0.007-0.49-0.019-0.729 1.154-0.798 2.152-1.79 2.948-2.928z"></path>
    </symbol>
    <symbol id="user" viewBox="0 0 32 34">
      <path stroke-width="2.5263" stroke-miterlimit="4" stroke-linecap="round" stroke-linejoin="round" d="M26.105 27.849c0-1.763 0-2.644-0.218-3.361-0.49-1.615-1.753-2.879-3.368-3.368-0.717-0.218-1.599-0.218-3.362-0.218h-6.316c-1.763 0-2.644 0-3.361 0.218-1.615 0.49-2.878 1.754-3.368 3.368-0.218 0.717-0.218 1.598-0.218 3.361M21.684 10.797c0 3.139-2.545 5.684-5.684 5.684s-5.684-2.545-5.684-5.684 2.545-5.684 5.684-5.684c3.139 0 5.684 2.545 5.684 5.684z"></path>
    </symbol>
    <symbol id="x" viewBox="0 0 32 34">
      <path stroke-width="3.4286" stroke-miterlimit="4" stroke-linecap="round" stroke-linejoin="round" d="M25 7l-18 18"></path>
      <path stroke-width="3.4286" stroke-miterlimit="4" stroke-linecap="round" stroke-linejoin="round" d="M25 25l-18-18"></path>
    </symbol>
    <symbol id="x_round" viewBox="0 0 32 34">
      <path d="M0 16c0-8.838 7.162-16 16-16s16 7.162 16 16c0 8.837-7.163 16-16 16s-16-7.163-16-16zM10.938 13.006l2.944 2.938-2.944 2.994c-0.581 0.588-0.581 1.538 0 2.069 0.588 0.637 1.537 0.637 2.069 0l2.938-2.888 2.994 2.888c0.588 0.637 1.538 0.637 2.069 0 0.637-0.531 0.637-1.481 0-2.069l-2.888-2.994 2.888-2.938c0.637-0.531 0.637-1.481 0-2.069-0.531-0.581-1.481-0.581-2.069 0l-2.994 2.944-2.938-2.944c-0.531-0.581-1.481-0.581-2.069 0-0.581 0.588-0.581 1.537 0 2.069z"></path>
    </symbol>
    <symbol id="youtube" viewBox="0 0 32 34">
      <path d="M30.205 8.946c0-2.625-1.966-4.737-4.394-4.737-3.29-0.151-6.645-0.209-10.074-0.209h-1.069c-3.42 0-6.782 0.058-10.071 0.21-2.423 0-4.388 2.123-4.388 4.748-0.148 2.076-0.211 4.153-0.208 6.229-0.006 2.077 0.061 4.155 0.202 6.236 0 2.625 1.966 4.754 4.388 4.754 3.456 0.158 7.001 0.228 10.606 0.222 3.61 0.012 7.146-0.062 10.606-0.222 2.429 0 4.394-2.129 4.394-4.754 0.143-2.082 0.208-4.159 0.202-6.241 0.013-2.077-0.051-4.155-0.194-6.236zM12.293 20.91v-11.462l8.61 5.728-8.611 5.734z"></path>
    </symbol>
  </defs>
</svg>
