<svg aria-hidden="true" style="position:absolute;width:0;height:0" xmlns="http://www.w3.org/2000/svg" overflow="hidden"><defs><symbol id="prefix__arrow_long" viewBox="0 0 32 32"><path stroke-width="2.526" stroke-linecap="round" stroke-linejoin="round" d="M5.895 16h20.211m-.001 0l-7.579-7.579M26.105 16l-7.579 7.579"/></symbol><symbol id="prefix__arrow_slim" viewBox="0 0 32 32"><path d="M8.225 2.255c-.24.246-.431.538-.561.859a2.704 2.704 0 00.561 2.887l10.056 10.311L8.225 26.623c-.485.497-.757 1.171-.757 1.873s.272 1.377.757 1.873c.485.497 1.142.776 1.827.776s1.343-.279 1.827-.776l11.896-12.198c.24-.246.431-.538.561-.859a2.704 2.704 0 00-.561-2.887L11.879 2.227c-.985-1.01-2.644-1.01-3.654.027z"/></symbol><symbol id="prefix__camera" viewBox="0 0 32 32"><path d="M16 23.333c1.667 0 3.084-.583 4.251-1.749S22 19 22 17.333s-.583-3.084-1.749-4.251c-1.167-1.166-2.584-1.749-4.251-1.749s-3.084.583-4.251 1.749C10.583 14.249 10 15.666 10 17.333s.583 3.084 1.749 4.251c1.167 1.166 2.584 1.749 4.251 1.749zM5.333 28c-.733 0-1.361-.261-1.883-.783s-.784-1.151-.784-1.884v-16c0-.733.261-1.361.784-1.883s1.149-.784 1.883-.784h4.2L12 3.999h8l2.467 2.667h4.2c.733 0 1.361.261 1.884.784s.783 1.149.783 1.883v16c0 .733-.261 1.361-.783 1.884S27.4 28 26.667 28H5.334z"/></symbol><symbol id="prefix__capture" viewBox="0 0 32 32"><path stroke-width=".5" stroke-linecap="round" stroke-linejoin="round" d="M28.191 11.429V6.848A3.05 3.05 0 0025.153 3.8l-4.581-.014m7.619 16.785v4.571a3.047 3.047 0 01-3.048 3.048h-4.571M11.429 3.787l-4.581.015A3.045 3.045 0 003.81 6.85v4.579m7.619 16.761H6.858a3.047 3.047 0 01-3.048-3.048v-4.571"/></symbol><symbol id="prefix__checkbox" viewBox="0 0 32 32"><path d="M24.876 3.239a2.798 2.798 0 014.632 3.14L14.334 28.76c-1.11 1.637-3.521 1.637-4.631 0L2.496 18.129a2.798 2.798 0 014.632-3.14l4.892 7.215L24.878 3.238z"/></symbol><symbol id="prefix__checkmark_round" viewBox="0 0 32 32"><path d="M0 16C0 7.162 7.162 0 16 0s16 7.162 16 16c0 8.837-7.163 16-16 16S0 24.837 0 16zm23.237-2.762c.681-.681.681-1.794 0-2.475s-1.794-.681-2.475 0l-6.763 6.762-2.763-2.762c-.681-.681-1.794-.681-2.475 0s-.681 1.794 0 2.475l4 4a1.755 1.755 0 002.475 0l8-8z"/></symbol><symbol id="prefix__clock" viewBox="0 0 32 32"><path d="M15.998 29.334c7.364 0 13.333-5.97 13.333-13.333S23.361 2.668 15.998 2.668 2.665 8.638 2.665 16.001c0 7.364 5.97 13.333 13.333 13.333z"/><path d="M16 8v8l5.333 2.667"/></symbol><symbol id="prefix__edit" viewBox="0 0 32 32"><path stroke-width="2.773" stroke-linecap="round" stroke-linejoin="round" d="M4.537 24.602c.098-.882.147-1.323.28-1.735.118-.366.286-.714.497-1.035.239-.362.552-.676 1.18-1.303L22.223 4.8a3.52 3.52 0 114.978 4.978L11.472 25.507c-.628.628-.941.941-1.303 1.18a4.236 4.236 0 01-1.035.497c-.412.134-.853.182-1.735.281l-3.22.358.358-3.22z"/></symbol><symbol id="prefix__facebook" viewBox="0 0 32 32"><path d="M28.19 14.559C28.19 6.94 22.049.762 14.476.762S.762 6.94.762 14.559c0 6.886 5.014 12.594 11.571 13.63v-9.641H8.85v-3.99h3.483v-3.04c0-3.457 2.048-5.369 5.18-5.369 1.5 0 3.07.27 3.07.27v3.396h-1.73c-1.703 0-2.235 1.063-2.235 2.156v2.587h3.803l-.607 3.99h-3.195v9.642c6.557-1.035 11.572-6.743 11.572-13.631z"/></symbol><symbol id="prefix__hamburger" viewBox="0 0 32 32"><path stroke-width="2.286" stroke-linecap="round" stroke-linejoin="round" d="M4 16h24M4 8h24M4 24h16"/></symbol><symbol id="prefix__instagram" viewBox="0 0 32 32"><path d="M22.349 3.301a6.368 6.368 0 016.349 6.349v12.698a6.368 6.368 0 01-6.349 6.349H9.651a6.37 6.37 0 01-6.349-6.349V9.65a6.37 6.37 0 016.349-6.349h12.698zm0-2.539H9.651c-4.889 0-8.889 4-8.889 8.889v12.698c0 4.889 4 8.889 8.889 8.889h12.698c4.889 0 8.889-4 8.889-8.889V9.651c0-4.889-4-8.889-8.889-8.889z"/><path d="M24.254 9.654a1.905 1.905 0 11.003-3.812 1.905 1.905 0 01-.004 3.813zM16 10.923a5.079 5.079 0 11.003 10.156 5.079 5.079 0 01-.004-10.155zm0-2.54a7.62 7.62 0 00-7.473 9.105 7.624 7.624 0 005.986 5.986 7.616 7.616 0 007.821-3.24 7.62 7.62 0 00-6.335-11.853z"/></symbol><symbol id="prefix__lock" viewBox="0 0 32 32"><path stroke-width="2.56" stroke-linecap="round" stroke-linejoin="round" d="M22.4 14.72v-3.84c0-3.535-2.865-6.4-6.4-6.4s-6.4 2.865-6.4 6.4v3.84m1.024 12.8h10.752c2.151 0 3.226 0 4.047-.419a3.838 3.838 0 001.678-1.678c.419-.822.419-1.897.419-4.047v-.512c0-2.151 0-3.226-.419-4.047a3.838 3.838 0 00-1.678-1.678c-.822-.419-1.897-.419-4.047-.419H10.624c-2.151 0-3.226 0-4.047.419a3.838 3.838 0 00-1.678 1.678c-.419.822-.419 1.897-.419 4.047v.512c0 2.151 0 3.226.419 4.047.368.723.956 1.31 1.678 1.678.821.419 1.897.419 4.047.419z"/></symbol><symbol id="prefix__login_background" viewBox="0 0 32 32"><path d="M0 4.063l8.094 2.566a23.08 23.08 0 006.979 1.08c2.546 0 5.075-.408 7.492-1.208L32 3.376v25.25H0V4.063z"/></symbol><symbol id="prefix__logo" viewBox="0 0 32 32"><path d="M3.199 3.309v5.817c0 1.661.725 3.132 1.848 4.083.549.466.912 1.094.912 1.791v9.71c0 1.079.928 1.956 2.071 1.956s2.071-.876 2.071-1.956V15c0-.697.363-1.326.912-1.791 1.124-.952 1.848-2.422 1.848-4.083V3.283M8.029 9.719V3.2M26.665 4.571c0-.72-.618-1.304-1.38-1.304h-1.38c-2.287 0-4.141 1.751-4.141 3.911V15c0 1.7 1.155 3.133 2.761 3.671v6.039c0 1.08.928 1.956 2.07 1.956s2.071-.876 2.071-1.956V4.57z"/></symbol><symbol id="prefix__minus" viewBox="0 0 32 32"><path stroke-width="3.429" stroke-linecap="round" stroke-linejoin="round" d="M5 16h22"/></symbol><symbol id="prefix__plus" viewBox="0 0 32 32"><path stroke-width="3.429" stroke-linecap="round" stroke-linejoin="round" d="M5 16h22M16 5v22"/></symbol><symbol id="prefix__search" viewBox="0 0 32 32"><path stroke-width="2.56" stroke-linecap="round" stroke-linejoin="round" d="M14.667 25.333c5.891 0 10.667-4.776 10.667-10.667S20.558 3.999 14.667 3.999 4 8.775 4 14.666s4.776 10.667 10.667 10.667zM28 28l-5.8-5.8"/></symbol><symbol id="prefix__spec_rectangle" viewBox="0 0 32 32"><path d="M5.8 8.114l11.601-5.41A6.4 6.4 0 0125.906 5.8l5.41 11.601a6.4 6.4 0 01-3.096 8.505l-11.601 5.41a6.4 6.4 0 01-8.505-3.096l-5.41-11.601A6.4 6.4 0 015.8 8.114z"/></symbol><symbol id="prefix__spec_round" viewBox="0 0 32 32"><path d="M12.429 3.347C19.294.146 27.453 3.116 30.654 9.98s.231 15.024-6.633 18.225c-6.865 3.201-15.024.231-18.225-6.633S5.565 6.548 12.429 3.347z"/></symbol><symbol id="prefix__trash" viewBox="0 0 32 32"><path stroke-width="2.743" stroke-linecap="round" stroke-linejoin="round" d="M21.333 8V6.933c0-1.493 0-2.24-.291-2.811a2.666 2.666 0 00-1.165-1.165c-.57-.291-1.317-.291-2.811-.291h-2.133c-1.493 0-2.24 0-2.811.291-.502.256-.91.664-1.165 1.165-.291.57-.291 1.317-.291 2.811V8m2.667 7.333V22m5.334-6.667V22M4 8h24m-2.667 0v14.933c0 2.24 0 3.36-.436 4.216a3.996 3.996 0 01-1.748 1.748c-.856.436-1.976.436-4.216.436h-5.867c-2.24 0-3.36 0-4.216-.436a3.996 3.996 0 01-1.748-1.748c-.436-.856-.436-1.976-.436-4.216V8"/></symbol><symbol id="prefix__twitter" viewBox="0 0 32 32"><path d="M28.8 5.854c-1.08.456-2.223.757-3.393.893a5.725 5.725 0 002.6-3.127 12.08 12.08 0 01-3.754 1.371c-.557-.567-1.226-1.019-1.968-1.326s-1.54-.466-2.347-.464c-3.265 0-5.908 2.532-5.908 5.652-.002.434.049.867.152 1.289-2.341-.107-4.634-.687-6.731-1.705S3.498 5.988 2.002 4.233a5.459 5.459 0 00-.803 2.841c0 1.96 1.052 3.692 2.64 4.707a5.983 5.983 0 01-2.687-.706v.07c0 2.742 2.04 5.022 4.74 5.542a6.187 6.187 0 01-1.556.198 5.832 5.832 0 01-1.111-.105c.751 2.246 2.935 3.879 5.523 3.926a12.197 12.197 0 01-7.339 2.421 12.536 12.536 0 01-1.41-.082A17.065 17.065 0 009.043 25.6c10.882 0 16.826-8.616 16.826-16.088 0-.245-.007-.49-.019-.729a11.753 11.753 0 002.948-2.928z"/></symbol><symbol id="prefix__user" viewBox="0 0 32 32"><path stroke-width="2.526" stroke-linecap="round" stroke-linejoin="round" d="M26.105 27.849c0-1.763 0-2.644-.218-3.361a5.05 5.05 0 00-3.368-3.368c-.717-.218-1.599-.218-3.362-.218h-6.316c-1.763 0-2.644 0-3.361.218a5.053 5.053 0 00-3.368 3.368c-.218.717-.218 1.598-.218 3.361m15.79-17.052a5.684 5.684 0 11-11.368 0 5.684 5.684 0 0111.368 0z"/></symbol><symbol id="prefix__x" viewBox="0 0 32 32"><path stroke-width="3.429" stroke-linecap="round" stroke-linejoin="round" d="M25 7L7 25M25 25L7 7"/></symbol><symbol id="prefix__youtube" viewBox="0 0 32 32"><path d="M30.205 8.946c0-2.625-1.966-4.737-4.394-4.737A219.98 219.98 0 0015.737 4h-1.069c-3.42 0-6.782.058-10.071.21C2.174 4.21.209 6.333.209 8.958a85.824 85.824 0 00-.208 6.229 88.425 88.425 0 00.202 6.236c0 2.625 1.966 4.754 4.388 4.754 3.456.158 7.001.228 10.606.222 3.61.012 7.146-.062 10.606-.222 2.429 0 4.394-2.129 4.394-4.754.143-2.082.208-4.159.202-6.241a83.31 83.31 0 00-.194-6.236zM12.293 20.91V9.448l8.61 5.728-8.611 5.734z"/></symbol><symbol id="prefix__warning" stroke-width="0" viewBox="0 0 32 32" fill="#F6C23E"><path d="M16 0C7.162 0 0 7.162 0 16s7.162 16 16 16c8.837 0 16-7.163 16-16S24.837 0 16 0zm-1.5 9.5c0-.825.675-1.5 1.5-1.5s1.5.672 1.5 1.5v8a1.5 1.5 0 01-3 0v-8zM16 25a1.965 1.965 0 110-3.93A1.965 1.965 0 0116 25z"/></symbol><symbol id="prefix__lock" viewBox="0 0 32 32"><path stroke-width="2.56" stroke-linecap="round" stroke-linejoin="round" d="M22.4 14.72v-3.84c0-3.535-2.865-6.4-6.4-6.4s-6.4 2.865-6.4 6.4v3.84m1.024 12.8h10.752c2.151 0 3.226 0 4.047-.419a3.838 3.838 0 001.678-1.678c.419-.822.419-1.897.419-4.047v-.512c0-2.151 0-3.226-.419-4.047a3.838 3.838 0 00-1.678-1.678c-.822-.419-1.897-.419-4.047-.419H10.624c-2.151 0-3.226 0-4.047.419a3.838 3.838 0 00-1.678 1.678c-.419.822-.419 1.897-.419 4.047v.512c0 2.151 0 3.226.419 4.047.368.723.956 1.31 1.678 1.678.821.419 1.897.419 4.047.419z"/></symbol><symbol id="prefix__envelope" viewBox="0 0 32 32"><path stroke-width="2.133" stroke-linecap="round" stroke-linejoin="round" d="M4.622 5.333h22.756c.754.002 1.476.284 2.009.783s.833 1.177.836 1.883v16c-.002.707-.303 1.384-.836 1.883s-1.255.781-2.009.783H4.622c-.754-.002-1.476-.284-2.009-.783s-.833-1.177-.836-1.883v-16c.002-.707.303-1.384.836-1.883s1.255-.781 2.009-.783z"/><path stroke-width="2.133" stroke-linecap="round" stroke-linejoin="round" d="M30.222 7.999L16 17.332 1.778 7.999"/></symbol><symbol id="prefix__no-error" stroke-width="0" viewBox="0 0 32 32" fill="#3CBC81"><path d="M0 16C0 7.162 7.162 0 16 0s16 7.162 16 16c0 8.837-7.163 16-16 16S0 24.837 0 16zm23.237-2.762c.681-.681.681-1.794 0-2.475s-1.794-.681-2.475 0l-6.763 6.762-2.763-2.762c-.681-.681-1.794-.681-2.475 0s-.681 1.794 0 2.475l4 4a1.755 1.755 0 002.475 0l8-8z"/></symbol><symbol id="prefix__error" stroke-width="0" viewBox="0 0 32 32" fill="#E74A3B"><path d="M0 16C0 7.162 7.162 0 16 0s16 7.162 16 16c0 8.837-7.163 16-16 16S0 24.837 0 16zm10.938-2.994l2.944 2.938-2.944 2.994c-.581.588-.581 1.538 0 2.069.588.637 1.537.637 2.069 0l2.938-2.888 2.994 2.888c.588.637 1.538.637 2.069 0 .637-.531.637-1.481 0-2.069l-2.888-2.994 2.888-2.938c.637-.531.637-1.481 0-2.069-.531-.581-1.481-.581-2.069 0l-2.994 2.944-2.938-2.944c-.531-.581-1.481-.581-2.069 0-.581.588-.581 1.537 0 2.069z"/></symbol><symbol id="prefix__404" fill="none" viewBox="0 0 500 331"><path d="M411.067 162.114s24.463 2.407 36.855 17.474c0 0 13.108-17.453 36.632-17.092a47.084 47.084 0 0010.556-24.136 46.956 46.956 0 00-4.083-26.001 47.332 47.332 0 00-17.453-19.796 47.782 47.782 0 00-25.408-7.447 47.787 47.787 0 00-25.476 7.212 47.346 47.346 0 00-17.638 19.634 46.964 46.964 0 00-4.325 25.962 47.073 47.073 0 0010.329 24.232l.011-.042z" fill="#8BAA36"/><path opacity=".5" d="M411.067 162.114s24.463 2.407 36.855 17.474c0 0 13.108-17.453 36.632-17.092a47.084 47.084 0 0010.556-24.136 46.956 46.956 0 00-4.083-26.001 47.332 47.332 0 00-17.453-19.796 47.782 47.782 0 00-25.408-7.447 47.787 47.787 0 00-25.476 7.212 47.346 47.346 0 00-17.638 19.634 46.964 46.964 0 00-4.325 25.962 47.073 47.073 0 0010.329 24.232l.011-.042z" fill="#FAFAFA"/><path d="M447.105 88.445l-.822 157.495h4.131l-3.309-157.495z" fill="#B8B8B8"/><path d="M448.347 174.996s8.251-14.77 23.119-19.286c0 0-15.69 3.7-23.482 16.413l.363 2.873zM448.347 133.157s8.251-14.77 23.119-19.287c0 0-15.69 3.69-23.482 16.413l.363 2.874zM448.347 154.055s8.251-14.77 23.119-19.287c0 0-15.69 3.701-23.482 16.414l.363 2.873zM447.119 143.813s-7.973-14.759-22.318-19.276c0 0 15.146 3.69 22.713 16.414l-.395 2.862zM447.119 164.33s-7.973-14.77-22.318-19.276c0 0 15.146 3.689 22.713 16.402l-.395 2.874z" fill="#B8B8B8"/><path d="M10.672 162.114s24.464 2.407 36.856 17.474c0 0 13.107-17.452 36.632-17.092a47.08 47.08 0 0010.555-24.136 46.955 46.955 0 00-4.082-26 47.334 47.334 0 00-17.454-19.796 47.782 47.782 0 00-25.407-7.448 47.786 47.786 0 00-25.476 7.213 47.344 47.344 0 00-17.638 19.634 46.959 46.959 0 00-4.326 25.962 47.074 47.074 0 0010.33 24.232l.01-.043z" fill="#8BAA36"/><path opacity=".5" d="M10.672 162.114s24.464 2.407 36.856 17.474c0 0 13.107-17.452 36.632-17.092a47.08 47.08 0 0010.555-24.136 46.955 46.955 0 00-4.082-26 47.334 47.334 0 00-17.454-19.796 47.782 47.782 0 00-25.407-7.448 47.786 47.786 0 00-25.476 7.213 47.344 47.344 0 00-17.638 19.634 46.959 46.959 0 00-4.326 25.962 47.074 47.074 0 0010.33 24.232l.01-.043z" fill="#FAFAFA"/><path d="M46.721 88.446L45.89 245.94h4.13L46.721 88.446z" fill="#B8B8B8"/><path d="M47.972 174.997s8.25-14.77 23.12-19.286c0 0-15.69 3.7-23.483 16.413l.363 2.873zM47.972 133.158s8.25-14.77 23.12-19.287c0 0-15.69 3.69-23.483 16.413l.363 2.874zM47.972 154.056s8.25-14.77 23.12-19.287c0 0-15.69 3.701-23.483 16.414l.363 2.873zM46.73 143.814s-7.973-14.759-22.318-19.276c0 0 15.146 3.69 22.714 16.413l-.395 2.863zM46.73 164.33s-7.973-14.769-22.318-19.276c0 0 15.146 3.69 22.714 16.403l-.395 2.873z" fill="#B8B8B8"/><path d="M311.67 177.382s20.023 1.962 30.163 14.293c0 0 10.727-14.282 29.982-13.996a38.53 38.53 0 008.633-19.754 38.44 38.44 0 00-3.347-21.278 38.743 38.743 0 00-14.288-16.197 39.113 39.113 0 00-20.794-6.09 39.113 39.113 0 00-20.848 5.907 38.752 38.752 0 00-14.431 16.07 38.432 38.432 0 00-3.537 21.247 38.522 38.522 0 008.456 19.83l.011-.032z" fill="#8BAA36"/><path opacity=".5" d="M311.67 177.382s20.023 1.962 30.163 14.293c0 0 10.727-14.282 29.982-13.996a38.53 38.53 0 008.633-19.754 38.44 38.44 0 00-3.347-21.278 38.743 38.743 0 00-14.288-16.197 39.113 39.113 0 00-20.794-6.09 39.113 39.113 0 00-20.848 5.907 38.752 38.752 0 00-14.431 16.07 38.432 38.432 0 00-3.537 21.247 38.522 38.522 0 008.456 19.83l.011-.032z" fill="#FAFAFA"/><path d="M341.164 117.03l-.673 128.91h3.384l-2.711-128.91z" fill="#B8B8B8"/><path d="M342.184 187.878s6.767-12.087 18.924-15.787c0 0-12.808 3.021-19.212 13.433l.288 2.354zM342.184 153.632s6.767-12.088 18.924-15.777c0 0-12.808 3.021-19.212 13.423l.288 2.354zM342.184 170.755s6.767-12.088 18.924-15.788c0 0-12.808 3.022-19.212 13.434l.288 2.354zM341.181 162.358s-6.521-12.087-18.262-15.777c0 0 12.392 3.022 18.593 13.423l-.331 2.354zM341.181 179.142s-6.521-12.088-18.262-15.777c0 0 12.392 3.021 18.593 13.433l-.331 2.344z" fill="#B8B8B8"/><path d="M117.934 177.383s20.024 1.961 30.164 14.292c0 0 10.673-14.282 29.982-13.995a38.536 38.536 0 008.632-19.755 38.426 38.426 0 00-3.347-21.277 38.729 38.729 0 00-14.287-16.197 39.108 39.108 0 00-20.794-6.091 39.113 39.113 0 00-20.848 5.907 38.751 38.751 0 00-14.432 16.071 38.429 38.429 0 00-3.536 21.247 38.518 38.518 0 008.456 19.829l.01-.031z" fill="#8BAA36"/><path opacity=".5" d="M117.934 177.383s20.024 1.961 30.164 14.292c0 0 10.673-14.282 29.982-13.995a38.536 38.536 0 008.632-19.755 38.426 38.426 0 00-3.347-21.277 38.729 38.729 0 00-14.287-16.197 39.108 39.108 0 00-20.794-6.091 39.113 39.113 0 00-20.848 5.907 38.751 38.751 0 00-14.432 16.071 38.429 38.429 0 00-3.536 21.247 38.518 38.518 0 008.456 19.829l.01-.031z" fill="#FAFAFA"/><path d="M147.438 117.031l-.672 128.91h3.383l-2.711-128.91z" fill="#B8B8B8"/><path d="M148.507 187.879s6.767-12.087 18.924-15.788c0 0-12.808 3.022-19.212 13.434l.288 2.354zM148.507 153.632s6.767-12.087 18.924-15.777c0 0-12.808 3.022-19.212 13.423l.288 2.354zM148.507 170.755s6.767-12.087 18.924-15.788c0 0-12.808 3.022-19.212 13.434l.288 2.354zM147.438 162.358s-6.511-12.087-18.251-15.724c0 0 12.392 3.022 18.593 13.423l-.342 2.301zM147.437 179.142s-6.521-12.087-18.262-15.777c0 0 12.392 3.022 18.593 13.434l-.331 2.343z" fill="#B8B8B8"/><path d="M18.033 246.502H478.64" stroke="#22252A" stroke-width="1.047" stroke-miterlimit="10"/><path opacity=".3" d="M143.798 297.67c0 3.181-19.671 5.715-43.954 5.715-24.282 0-43.953-2.555-43.953-5.715 0-3.16 19.682-5.715 43.953-5.715 24.272 0 43.954 2.566 43.954 5.715zM235.814 297.67c0 3.181-19.682 5.715-43.954 5.715-24.272 0-43.954-2.556-43.954-5.715 0-3.16 19.682-5.715 43.954-5.715 24.272 0 43.954 2.566 43.954 5.715zM357.711 297.67c0 3.181-19.671 5.715-43.943 5.715s-43.954-2.555-43.954-5.715c0-3.16 19.672-5.715 43.954-5.715 24.283 0 43.943 2.566 43.943 5.715zM459.532 297.67c0 3.181-19.682 5.715-43.954 5.715-24.271 0-43.996-2.555-43.996-5.715 0-3.16 19.682-5.715 43.954-5.715 24.271 0 43.996 2.566 43.996 5.715z" fill="#000"/><path d="M318.517 130.486s-1.804 7.422-1.804 8.673a10.6 10.6 0 01-.256 2.301s-3.853 4.591-3.341 5.863a6.209 6.209 0 002.573 2.291s2.049 7.422 4.109 7.909c2.116.393 4.255.648 6.404.764l.769 6.118 10.268-1.527-2.562-9.182 1.067-7.91s1.793-3.308 0-8.663c-1.793-5.354-5.646-5.608-8.218-5.608a89.298 89.298 0 01-9.009-1.029z" fill="#FAFAFA" stroke="#22252A" stroke-width="1.047" stroke-linecap="round" stroke-linejoin="round"/><path d="M323.129 126.668s-8.987-.265-8.731 2.036c.256 2.301 9.499 5.302 9.499 5.302s-3.084 2.035-1.547 4.082c1.537 2.046 5.134 3.827 5.134 3.827s-1.068 4.337.523 4.591c1.59.255 2.561-2.046 2.818-2.809.256-.764 3.084-.509 3.853 1.526.434 1.058.694 2.179.768 3.319 0 0 3.085-9.182 3.597-13.264.513-4.082-11.036-8.61-15.914-8.61z" fill="#22252A" stroke="#22252A" stroke-width="1.047" stroke-linecap="round" stroke-linejoin="round"/><path d="M328.823 146.634s3.106-6.786 4.963-3.446c1.858 3.339 1.068 6.817-.757 7.188-1.826.371-3.352.732-3.352.732" fill="#FAFAFA"/><path d="M328.823 146.634s3.106-6.786 4.963-3.446c1.858 3.339 1.068 6.817-.757 7.188-1.826.371-3.352.732-3.352.732" stroke="#22252A" stroke-width="1.047" stroke-linecap="round" stroke-linejoin="round"/><path d="M316.201 217.45c-.502.583-8.731 18.11-9.756 23.973-1.025 5.864-7.696 40.811-7.963 42.337-.266 1.527-14.366 4.591-15.401 4.846-1.036.254 1.067 3.064 4.109 3.827 3.042.764 11.815 4.337 13.875 2.291 2.06-2.047 4.878-13.519 5.647-14.791.768-1.273 15.22-35.096 15.22-35.096s7.408-16.233 8.945-17.77c1.537-1.538-1.825-8.334-3.117-10.38-1.291-2.047-7.962-3.319-11.559.763z" fill="#22252A" stroke="#22252A" stroke-width="1.047" stroke-linecap="round" stroke-linejoin="round"/><path d="M314.662 217.672s3.597 17.092 5.39 23.21a48.745 48.745 0 007.472 14.282c2.06 2.81 12.072 27.567 12.072 27.567l1.537 3.828s-.513 1.527-3.331 3.562c-2.817 2.036-10.791 5.355-8.731 6.129 2.06.774 10.268.763 14.122.509a13.384 13.384 0 008.72-4.082c1.548-1.792-2.562-6.892-2.562-7.91 0-1.018-8.987-32.127-9.499-33.664-.513-1.537-3.085-12.49-3.085-12.49v-12.459s1.292-2.29 1.292-7.422c0-5.131-3.854-6.128-3.854-6.128l-21.059 2.046 1.516 3.022z" fill="#22252A" stroke="#22252A" stroke-width="1.047" stroke-linecap="round" stroke-linejoin="round"/><path d="M312.875 216.177s.523 4.337 2.06 4.591c1.537.255 17.451 4.591 24.389-.509 0 0 1.281-3.827.512-4.845-.768-1.018-2.572-.509-11.805-.509-9.232 0-15.156 0-15.156 1.272z" fill="#8BAA36" stroke="#22252A" stroke-width="1.047" stroke-linecap="round" stroke-linejoin="round"/><path d="M336.475 159.05s-9.5 1.272-13.609 5.301-7.696 11.483-9.489 18.364c-1.793 6.881-3.085 32.137-.523 33.41 2.562 1.272 24.133 2.555 27.751 1.06 3.619-1.495-.256-13.519-.256-18.11 0-4.591 4.109-20.145 3.341-28.808-.769-8.662-7.215-11.217-7.215-11.217z" fill="#8BAA36" stroke="#22252A" stroke-width="1.047" stroke-linecap="round" stroke-linejoin="round"/><path d="M302.198 185.557c-.118-10.497-4.43-19.456-10.162-23.326v-2.121l-15.796.159c-8.892.095-16.011 11.663-15.829 25.765.181 14.102 7.471 25.521 16.373 25.447l15.797-.159v-2.121c5.55-4.103 9.67-13.147 9.617-23.644z" fill="#22252A" stroke="#22252A" stroke-width="1.047" stroke-linecap="round" stroke-linejoin="round"/><path d="M309.285 185.482c-.117-11.027-4.397-20.442-10.417-24.535v-2.258l-6.767.074c-9.35.096-16.79 12.215-16.63 27.069.16 14.855 7.856 26.815 17.206 26.719l6.767-.074v-2.248c5.881-4.22 9.959-13.762 9.841-24.747z" fill="#FAFAFA" stroke="#22252A" stroke-width="1.047" stroke-linecap="round" stroke-linejoin="round"/><path d="M316.074 185.408c.16 14.844-7.29 26.974-16.629 27.069-9.34.096-17.078-11.864-17.206-26.708-.128-14.844 7.29-26.974 16.629-27.08 9.34-.106 17.025 11.865 17.206 26.719z" fill="#737373" stroke="#22252A" stroke-width="1.047" stroke-linecap="round" stroke-linejoin="round"/><path d="M312.196 184.952c.075 7.03-3.458 12.777-7.888 12.83-4.429.053-8.08-5.631-8.154-12.724-.075-7.093 3.458-12.723 7.887-12.829 4.43-.106 8.08 5.683 8.155 12.723zM437.973 237.818a128.012 128.012 0 001.12-19.722c-3.469 1.591-23.706 2.174-25.563 2.216-1.857.043-22.094-.625-25.563-2.216a127.988 127.988 0 001.067 19.722c1.399 8.599 13.695 43.026 13.972 44.691.36 1.605.827 3.185 1.398 4.729 0 0-6.991 4.994-10.065 6.934-3.074 1.94-.832 2.778 2.242 2.778s9.499-.838 11.452-.838c1.729 0 4.739-1.495 5.444-1.855.704.36 3.714 1.855 5.433 1.855 1.964 0 8.389.838 11.463.838s5.337-.838 2.241-2.778c-3.095-1.94-10.065-6.934-10.065-6.934a36.791 36.791 0 001.399-4.729c.33-1.697 12.626-36.124 14.025-44.691z" fill="#22252A" stroke="#22252A" stroke-width="1.047" stroke-linecap="round" stroke-linejoin="round"/><path d="M409.301 164.117s-10.812 3.51-16.394 7.03c-5.583 3.52-11.186 22.584-11.186 23.326a23.632 23.632 0 01-1.303 3.881s-5.592-1.294-6.703 3.329c-1.11 4.623 5.583 10.55 9.126 10.741 3.544.19 4.654-.923 4.654-.923s-2.231 4.443-1.302 6.288c.928 1.844 8.763 8.705 24.229 8.482 15.466-.223 26.684-2.778 28.317-4.994 1.633-2.216 1.868-6.849 1.868-6.849s5.774-1.485 7.823-5.185c2.05-3.701 1.676-7.592.555-11.473-1.12-3.88-6.895-15.151-10.801-21.449-3.907-6.298-12.115-9.808-16.011-10.921-3.895-1.113-10.268-1.283-12.872-1.283z" fill="#8BAA36" stroke="#22252A" stroke-width="1.047" stroke-linecap="round" stroke-linejoin="round"/><path d="M412.578 179.703c1.548-.509 6.404-4.792 8.272-9.076a20.519 20.519 0 001.548-5.142l-.246-.074c-3.906-1.114-10.246-1.294-12.808-1.294 0 0-2.263.732-5.251 1.866a18.954 18.954 0 001.281 6.701c1.686 4.284 5.699 7.539 7.204 7.019z" fill="#FAFAFA" stroke="#22252A" stroke-width="1.047" stroke-linecap="round" stroke-linejoin="round"/><path d="M430.35 188.355s4.472 23.698 9.542 26.136M387.497 211.502s5.593-20.92 5.967-22.956M437.572 199.064s-3.095.689-3.095 2.916M384.99 199.404s3.448 2.226 3.106 5.651" stroke="#22252A" stroke-width="1.047" stroke-linecap="round" stroke-linejoin="round"/><path d="M408.086 296.132c1.73 0 4.739-1.495 5.444-1.855.704.36 3.714 1.855 5.433 1.855 1.964 0 8.389.838 11.463.838s5.337-.838 2.242-2.778c-2.679-1.686-8.294-5.673-9.724-6.69-3.298 2.99-9.82 2.247-9.82 2.247a33.534 33.534 0 01-3.917-.827c-1.953-.562-4.75-1.664-4.75-1.664s-6.991 4.994-10.065 6.934c-3.074 1.94-.832 2.778 2.242 2.778s9.499-.838 11.452-.838z" fill="#8BAA36" stroke="#22252A" stroke-width="1.047" stroke-linecap="round" stroke-linejoin="round"/><path d="M413.117 287.3v-48.412" stroke="#FAFAFA" stroke-width="1.047" stroke-linecap="round" stroke-linejoin="round"/><path d="M413.523 294.223l-.406-4.527V287.3" stroke="#22252A" stroke-width="1.047" stroke-linecap="round" stroke-linejoin="round"/><path d="M409.2 237.223h8.101" stroke="#FAFAFA" stroke-width="1.047" stroke-linecap="round" stroke-linejoin="round"/><path d="M398.614 136.338s-5.807 3.456-4.942 6.489c.864 3.032 3.49 3.615 2.914 5.301-.577 1.686-2.594 2.746-.299 3.807a19.745 19.745 0 004.077 1.304s2.135 7.358 5.807 8.652c3.671 1.293 10.033.434 14.537-.138a7.556 7.556 0 004.129-1.734 7.472 7.472 0 002.403-3.758c.438-1.58-1.889.296-3.053-1.442-1.163-1.739.588-6.203 1.89-10.105s-2.615-11.26-7.696-13.709c-5.081-2.45-14.783-1.167-19.767 5.333z" fill="#22252A" stroke="#22252A" stroke-width="1.047" stroke-linecap="round" stroke-linejoin="round"/><path d="M408.375 161.477a38.89 38.89 0 00-1.494 7.422c-.192 3.181 2.423 6.669 5.219 6.479 2.797-.191 5.209-5.737 5.583-8.483.373-2.746-.929-10.179-.929-10.179s-4.269.191-5.966 1.665a10.28 10.28 0 00-2.413 3.096z" fill="#FAFAFA" stroke="#22252A" stroke-width="1.047" stroke-linecap="round" stroke-linejoin="round"/><path d="M404.584 140.378s.138 4.326 4.504 8.482a27.012 27.012 0 009.147 5.779 7.941 7.941 0 01-.726 2.735c-.189.36-.485.655-.847.844a2.03 2.03 0 01-1.181.216h-1.462s-2.135 4.973-4.718 5.694c-2.583.721-8.933.223-9.809-6.128-.875-6.351-1.014-11.547-.288-12.851.726-1.304 5.38-4.771 5.38-4.771zM450.25 196.254a11.618 11.618 0 001.185-4.241c0-1.93-3.608-4.697-4.27-5.386-.661-.689-1.323-.615-1.462.35a3.967 3.967 0 001.249 2.894 3.246 3.246 0 011.121 1.665c.064.477-1.196 2.82-.566 4.336.63 1.517 2.402 1.973 2.743.382z" fill="#FAFAFA" stroke="#22252A" stroke-width="1.047" stroke-linecap="round" stroke-linejoin="round"/><path d="M305.706 185.429s15.712 4.994 25.158 16.657c9.446 11.663 15.647 9.988 27.388 6.108 11.741-3.881 16.213-17.771 32.426-6.108s19.565 16.095 32.982 9.437c13.416-6.659 20.674-22.764 32.981-17.219 12.307 5.545 6.703 33.929 7.824 47.713 1.12 13.783-.566 48.317 2.23 52.759 2.797 4.443 31.306 1.061 31.306 1.061" stroke="#22252A" stroke-width="3.142" stroke-linecap="round" stroke-linejoin="round"/><path d="M335.133 166.896s-3.127-5.068-7.738-3.743c-4.878 1.4-7.397 8.323-8.539 12.639-1.142 4.315-1.911 8.98-4.003 12.999 0 0-9.243-.159-14.398-1.644a122.415 122.415 0 01-11.592-4.241s-1.825-2.534-3.117-3.032c-1.291-.499-4.643-1.474-4.888-.711-.246.764 3.885 3.277 3.885 3.277s-7.685 1.06-8.453 1.876c-.769.817 5.432 3.255 5.432 3.255s2.317.743 7.952-.593c0 0 20.675 13.041 24.795 14.536 4.12 1.495 6.404 1.972 9.211-3.414 2.807-5.386 12.125-18.746 13.609-24.122" fill="#8BAA36"/><path d="M335.133 166.896s-3.127-5.068-7.738-3.743c-4.878 1.4-7.397 8.323-8.539 12.639-1.142 4.315-1.911 8.98-4.003 12.999 0 0-9.243-.159-14.398-1.644a122.415 122.415 0 01-11.592-4.241s-1.825-2.534-3.117-3.032c-1.291-.499-4.643-1.474-4.888-.711-.246.764 3.885 3.277 3.885 3.277s-7.685 1.06-8.453 1.876c-.769.817 5.432 3.255 5.432 3.255s2.317.743 7.952-.593c0 0 20.675 13.041 24.795 14.536 4.12 1.495 6.404 1.972 9.211-3.414 2.807-5.386 12.125-18.746 13.609-24.122" stroke="#22252A" stroke-width="1.047" stroke-linecap="round" stroke-linejoin="round"/><path d="M294.231 185.069c-3.021-1.124-5.337-2.121-5.337-2.121s-1.825-2.534-3.116-3.032c-1.292-.499-4.643-1.474-4.889-.711-.245.764 3.885 3.277 3.885 3.277s-7.685 1.06-8.453 1.876c-.769.817 5.433 3.255 5.433 3.255s2.316.743 7.951-.593l2.893 1.813 1.633-3.764zM373.915 198.205a11.618 11.618 0 01-1.185-4.241c0-1.93 3.619-4.686 4.27-5.376.651-.689 1.313-.614 1.452.35a3.955 3.955 0 01-1.249 2.895 3.246 3.246 0 00-1.121 1.665c-.064.466 1.195 2.82.566 4.336-.63 1.516-2.391 1.951-2.733.371z" fill="#FAFAFA" stroke="#22252A" stroke-width="1.047" stroke-linecap="round" stroke-linejoin="round"/><path d="M376.403 192.384s-2.978 5.461-1.249 7.422c1.729 1.962 3.405-4.41 3.725-6.17.32-1.761-1.377-3.531-2.476-1.252z" fill="#FAFAFA" stroke="#22252A" stroke-width="1.047" stroke-linecap="round" stroke-linejoin="round"/><path d="M378.855 194.346s-2.978 5.46-1.249 7.422c1.729 1.961 3.405-4.411 3.725-6.171.321-1.76-1.377-3.594-2.476-1.251z" fill="#FAFAFA" stroke="#22252A" stroke-width="1.047" stroke-linecap="round" stroke-linejoin="round"/><path d="M381.561 194.802s-2.978 5.46-1.249 7.422c1.729 1.962 3.405-4.411 3.725-6.171.321-1.76-1.377-3.541-2.476-1.251z" fill="#FAFAFA" stroke="#22252A" stroke-width="1.047" stroke-linecap="round" stroke-linejoin="round"/><path d="M385.017 194.844s-2.775 4.241-1.26 5.842c1.516 1.601 3.149-3.435 3.469-4.888.321-1.453-1.184-2.863-2.209-.954zM448.275 192.597s2.978 5.461 1.248 7.422c-1.729 1.962-3.404-4.421-3.725-6.181-.32-1.76 1.377-3.531 2.477-1.241z" fill="#FAFAFA" stroke="#22252A" stroke-width="1.047" stroke-linecap="round" stroke-linejoin="round"/><path d="M445.822 194.505s2.978 5.461 1.249 7.422c-1.729 1.962-3.405-4.421-3.725-6.181-.32-1.76 1.377-3.52 2.476-1.241z" fill="#FAFAFA" stroke="#22252A" stroke-width="1.047" stroke-linecap="round" stroke-linejoin="round"/><path d="M443.096 195.014s2.978 5.461 1.249 7.422c-1.729 1.962-3.405-4.411-3.714-6.181-.31-1.771 1.398-3.531 2.465-1.241z" fill="#FAFAFA" stroke="#22252A" stroke-width="1.047" stroke-linecap="round" stroke-linejoin="round"/><path d="M439.653 195.056s2.775 4.294 1.259 5.842-3.149-3.435-3.458-4.888c-.31-1.452 1.174-2.862 2.199-.954zM72.432 255.471v6.022a19.058 19.058 0 00-4.408 8.037c-1.292 4.92-5.337 26.094-4.27 26.645 1.068.552 11.112 2.831 14.314 2.354 3.672-.551 6.799-.36 4.952-2.375-1.846-2.014-11.548-7.644-11.548-7.644s10.673-15.332 13.043-20.994c2.37-5.662 2.753-14.42 2.753-14.42l-14.323-.541-.513 2.916z" fill="#FAFAFA" stroke="#22252A" stroke-width="1.047" stroke-linecap="round" stroke-linejoin="round"/><path d="M78.069 298.529c3.671-.551 6.799-.36 4.952-2.375-1.847-2.014-11.549-7.645-11.549-7.645l-.363 2.185-6.99-.849c-.513 3.542-.737 6.139-.364 6.362 1.142.509 11.111 2.799 14.313 2.322z" fill="#22252A" stroke="#22252A" stroke-width="1.047" stroke-linecap="round" stroke-linejoin="round"/><path d="M107.521 258.588l1.654 2.926a10.62 10.62 0 00-.555 8.578c1.654 5.111 5.518 23.909 5.518 25.002 0 1.092 2.38 1.823 4.27 1.823 1.889 0 7.119.361 7.855.361.737 0 6.063.912 7.899-.18 1.836-1.093-2.338-3.287-5.091-4.56-2.754-1.272-8.817-4.559-8.817-4.559s1.462-14.971 1.462-21.545c0-6.574 1.473-8.758-.544-12.776-2.017-4.019-14.697 1.834-14.697 1.834l1.046 3.096z" fill="#FAFAFA" stroke="#22252A" stroke-width="1.047" stroke-linecap="round" stroke-linejoin="round"/><path d="M129.014 292.539c-2.754-1.283-8.816-4.56-8.816-4.56l-.737 2.736-5.902 1.06c.352 1.824.576 3.075.576 3.329 0 1.061 2.38 1.824 4.269 1.824 1.89 0 7.12.361 7.856.361.737 0 6.063.911 7.899-.181 1.835-1.092-2.391-3.297-5.145-4.569z" fill="#22252A" stroke="#22252A" stroke-width="1.047" stroke-linecap="round" stroke-linejoin="round"/><path d="M97.622 137.091a50.2 50.2 0 00-4.92-6.934c-2.53-2.831-10.46-2.672-13.94 1.06-3.48 3.732-2.38 10.391-1.068 12.278 1.313 1.887 3.96 10.709 3.96 10.709l.63 6.298 14.74 5.195-3.01-10.231s5.71-1.061 6.18-2.831c.47-1.771-.95-7.719-.95-7.719s1.9-1.262 1.74-2.365c-.16-1.102-3.362-5.46-3.362-5.46z" fill="#FAFAFA" stroke="#22252A" stroke-width="1.047" stroke-linecap="round" stroke-linejoin="round"/><path d="M80.66 143.878s2.52 2.121 3.896-.307c1.377-2.428 2.423-4.803 2.423-6.86 0-2.057-5.177-3.764-1.73-5.143 3.448-1.378 5.935 1.686 7.472-1.389 1.537-3.074.139-3.403-8.144-3.403-8.282 0-12.424 4.114-10.673 9.256a69.056 69.056 0 005.177 10.964l1.58-3.118z" fill="#22252A" stroke="#22252A" stroke-width="1.047" stroke-linecap="round" stroke-linejoin="round"/><path d="M98.083 140.729c0 .778-.232 1.538-.668 2.185a3.956 3.956 0 01-1.777 1.449 3.972 3.972 0 01-4.316-.853 3.91 3.91 0 01-.858-4.287c.3-.719.808-1.333 1.459-1.765a3.98 3.98 0 015 .489 3.92 3.92 0 011.16 2.782zM97.523 137.24c.461-.187.954-.285 1.452-.286a3.74 3.74 0 012.277.777 3.681 3.681 0 011.14 4.382 3.71 3.71 0 01-1.613 1.775M90.176 140.729l-9.51 3.149" stroke="#22252A" stroke-width="1.047" stroke-linecap="round" stroke-linejoin="round"/><path d="M83.403 145.923s-1.9-3.933-3.8-3.18c-1.9.752-.95 6.934.95 7.559a4.125 4.125 0 003.64-.943s1.59 3.308 3.49 4.241" fill="#FAFAFA"/><path d="M83.403 145.923s-1.9-3.933-3.8-3.18c-1.9.752-.95 6.934.95 7.559a4.125 4.125 0 003.64-.943s1.59 3.308 3.49 4.241" stroke="#22252A" stroke-width="1.047" stroke-linecap="round" stroke-linejoin="round"/><path d="M70.927 216.613l-1.185 15.077-3.544 22.319s8.283 6.457 16.01 6.457c7.728 0 9.852-.975 9.852-.975l4.334-22.902 4.333 24.079s8.539-1.368 14.196-2.746a37.572 37.572 0 0011.037-5.09l-11.432-29.561-2.476-15.246s-12.808 1.176-20.504 1.569c-7.696.392-17.932-1.569-17.932-1.569l-2.69 8.588z" fill="#8BAA36" stroke="#22252A" stroke-width="1.047" stroke-linecap="round" stroke-linejoin="round"/><path d="M79.058 156.368s18.145 6.287 23.749 12.395c3.095 3.393 6.564 26.613 7.813 32.285 1.249 5.673 3.426 16.965 3.426 16.965s-11.068 4.962-19.629 5.142c-8.56.181-24.986-3.721-24.986-3.721s1.953-25.161 1.953-36.856.181-19.329 2.135-23.05c.01.031 3.223-3.521 5.54-3.16z" fill="#22252A" stroke="#22252A" stroke-width="1.047" stroke-linecap="round" stroke-linejoin="round"/><path d="M74.272 221.256s.982 16.445 0 22.521a46.496 46.496 0 01-3.544 11.355" stroke="#22252A" stroke-width="1.047" stroke-linecap="round" stroke-linejoin="round"/><path d="M74.683 229.092a9.042 9.042 0 003.842-2.553 8.955 8.955 0 002.07-4.106M67.18 250.828s9.862 8.418 25.232 5.301M100.296 255.714s16.16-1.76 23.258-6.457" stroke="#22252A" stroke-width="1.047" stroke-linecap="round" stroke-linejoin="round"/><path d="M172.584 148.755s-1.558 1.145-6.991 5.089c-5.433 3.945-1.153 9.903-1.153 9.903s-3.885.605-9.073 6.023c-5.187 5.418 2.317 14.717 9.329 16.169 7.013 1.453 15.21-7.167 17.665-15.162 2.455-7.995-.79-20.05-2.423-22.542-1.633-2.491-7.354.52-7.354.52z" fill="#22252A" stroke="#22252A" stroke-width="1.047" stroke-linecap="round" stroke-linejoin="round"/><path d="M193.155 147.694s2.7-4.145.256-10.157c-2.444-6.012-9.745-8.758-16.854-4.4a12.452 12.452 0 00-5.227 6.082 12.366 12.366 0 00-.419 7.988c.694 2.777 4.195 7.05 4.931 7.114.737.064 7.13 2.375 11.496.35 4.365-2.025 5.817-6.977 5.817-6.977z" fill="#22252A" stroke="#22252A" stroke-width="1.047" stroke-linecap="round" stroke-linejoin="round"/><path d="M161.754 287.651s5.07 7.835 13.876 9.171c8.805 1.336.885-6.51-.598-7.698-1.484-1.187-12.083-3.753-13.278-1.473zM208.662 289.665s9.68 2.364 8.933 4.442c-.747 2.079-8.635 1.92-13.246.732-4.611-1.188-8.944-2.958-8.346-4.877.597-1.919 12.659-.297 12.659-.297z" fill="#737373" stroke="#22252A" stroke-width="1.047" stroke-linecap="round" stroke-linejoin="round"/><path d="M181.138 163.281s-12.958 1.887-15.327 6.435c-2.37 4.549.971 29.328.971 29.328s-5.529 12.119-5.604 19.923c-.074 7.803 3.427 21.534 3.149 24.959-.278 3.424-3.821 42.411-3.821 43.471 0 1.061 7.471 3.436 18.241 4.708 10.77 1.272 31.37-2.534 31.37-2.534s-.406-23.008.672-36.728c1.078-13.72-.459-26.051-3.202-31.173-2.743-5.121-15.519-23.559-15.519-23.559s6.19-11.154 6.575-16.032c.384-4.877-1.612-7.422-6.287-13.031a16.292 16.292 0 00-5.024-4.007 16.376 16.376 0 00-6.194-1.76z" fill="#8BAA36" stroke="#22252A" stroke-width="1.047" stroke-linecap="round" stroke-linejoin="round"/><path d="M192.088 198.121s6.191-11.154 6.575-16.032c.384-4.877-1.611-7.422-6.287-13.031-.224-.275-.458-.519-.693-.774l-.171.159c-4.803 7.794-20.685 21.111-25.414 24.991.363 3.319.673 5.609.673 5.609s-5.529 12.119-5.604 19.923c.089 3.556.445 7.1 1.067 10.603 11.218-6.362 26.225-18.269 34.348-24.906-2.54-3.732-4.494-6.542-4.494-6.542z" fill="#737373" stroke="#22252A" stroke-width="1.047" stroke-linecap="round" stroke-linejoin="round"/><path d="M178.747 154.183c.358 2.91.554 5.837.587 8.768-.171 2.174.534 7.136 4.27 8.695 3.735 1.558 6.083-.615 6.073-2.799a21.919 21.919 0 00-1.068-5.302l.107-5.99s-6.447-4.008-9.969-3.372z" fill="#FAFAFA" stroke="#22252A" stroke-width="1.047" stroke-linecap="round" stroke-linejoin="round"/><path d="M175.395 150.292s-2.743-2.396-2.829 1.06c-.085 3.457 3.117 4.602 3.821 4.835a2.373 2.373 0 001.687-.413s4.974 4.241 8.966 4.517c3.991.275 5.614-1.559 6.553-8.758.939-7.2-6.543-14.505-6.543-14.505s-6.404 11.727-11.655 13.264zM114.353 217.863a9.48 9.48 0 01.598-3.605c.661-1.441 4.269-2.269 5.07-2.544.8-.276 1.206 0 .971.753a3.3 3.3 0 01-1.932 1.738 2.718 2.718 0 00-1.42.859c-.202.34-.074 2.513-1.067 3.436-.993.922-2.551.668-2.22-.637z" fill="#FAFAFA" stroke="#22252A" stroke-width="1.047" stroke-linecap="round" stroke-linejoin="round"/><path d="M196.147 185.981s-12.809-1.665-18.455 7.22c-5.646 8.885-16.202 39.973-35.767 44.978-19.565 5.004-25.158-34.99-36.898-33.877-11.186 1.061-19 0-25.713 12.215-3.586 6.542-21.518 77.973-29.993 78.705-26.993 2.343-44.37.816-44.37.816" stroke="#22252A" stroke-width="3.142" stroke-linecap="round" stroke-linejoin="round"/><path d="M79.895 156.877s-2.957-1.177-6.906 1.166-14.58 28.002-13.79 30.748c.79 2.746 12.018 7.836 18.326 9.596 6.309 1.76 17.74 3.923 17.74 3.923s3.544 5.481 4.728 5.672a25.818 25.818 0 005.124-.583s2.134 1.76 2.956-.201c.822-1.962-.79-4.496-2.561-6.457-1.772-1.962-9.265-2.937-9.265-2.937l-20.312-13.911 8.539-15.661" fill="#22252A"/><path d="M79.895 156.877s-2.957-1.177-6.906 1.166-14.58 28.002-13.79 30.748c.79 2.746 12.018 7.836 18.326 9.596 6.309 1.76 17.74 3.923 17.74 3.923s3.544 5.481 4.728 5.672a25.818 25.818 0 005.124-.583s2.134 1.76 2.956-.201c.822-1.962-.79-4.496-2.561-6.457-1.772-1.962-9.265-2.937-9.265-2.937l-20.312-13.911 8.539-15.661" stroke="#22252A" stroke-width="1.047" stroke-linecap="round" stroke-linejoin="round"/><path d="M99.993 207.972a25.885 25.885 0 005.123-.584s2.135 1.761 2.957-.201c.822-1.962-.79-4.496-2.562-6.457-1.772-1.962-9.264-2.937-9.264-2.937l-20.312-13.9 3.031-5.609c-7.589-4.697-12.627-4.348-15.349-3.404-2.721 6.489-4.792 12.639-4.43 13.9.79 2.747 12.02 7.836 18.327 9.596 6.308 1.76 17.74 3.923 17.74 3.923s3.554 5.482 4.739 5.673z" fill="#FAFAFA" stroke="#22252A" stroke-width="1.047" stroke-linecap="round" stroke-linejoin="round"/><path d="M226.939 186.415c-.865-9.256-5.337-16.858-10.674-19.88l-.17-1.887-13.94 1.283c-7.845.721-13.257 11.419-12.093 23.888 1.163 12.469 8.464 21.98 16.309 21.205l13.94-1.282-.182-1.888c4.696-3.902 7.674-12.182 6.81-21.439z" fill="#22252A" stroke="#22252A" stroke-width="1.047" stroke-linecap="round" stroke-linejoin="round"/><path d="M233.254 185.865c-.907-9.723-5.337-17.728-10.983-20.909l-.192-1.983-5.967.552c-8.24.763-13.929 11.992-12.712 25.097 1.217 13.105 8.902 23.103 17.142 22.34l5.967-.552-.182-1.982c4.931-4.178 7.834-12.872 6.927-22.563z" fill="#FAFAFA" stroke="#22252A" stroke-width="1.047" stroke-linecap="round" stroke-linejoin="round"/><path d="M239.23 185.28c1.228 13.106-4.461 24.334-12.712 25.097-8.251.764-15.925-9.245-17.174-22.34-1.249-13.094 4.462-24.386 12.702-25.097 8.24-.71 15.946 9.246 17.184 22.34z" fill="#FAFAFA" stroke="#22252A" stroke-width="1.047" stroke-linecap="round" stroke-linejoin="round"/><path d="M245.636 177.626l-23.151 2.121a2.495 2.495 0 01-1.816-.556 2.464 2.464 0 01-.325-3.475 2.485 2.485 0 011.682-.879l23.151-2.12a2.494 2.494 0 011.816.556 2.464 2.464 0 01.786 2.628 2.46 2.46 0 01-1.214 1.452 2.48 2.48 0 01-.929.273zM247.346 195.852l-23.151 2.12a2.475 2.475 0 01-1.816-.556 2.44 2.44 0 01-.884-1.67 2.445 2.445 0 011.312-2.41c.288-.151.604-.244.929-.273l23.151-2.12a2.507 2.507 0 011.81.562 2.445 2.445 0 01-.422 4.074 2.48 2.48 0 01-.929.273z" fill="#737373" stroke="#22252A" stroke-width="1.047" stroke-linecap="round" stroke-linejoin="round"/><path d="M173.135 165.009s-5.572 1.06-8.208 4.241c-2.637 3.181-8.048 27.726-6.799 30.547 1.248 2.82 21.261 6.361 27.441 6.87a89.36 89.36 0 0014.879-.657s5.337-.138 6.799-.382c1.463-.244 4.152-1.675 4.195-2.216.043-.541-.224-1.834-2.22-1.993-1.996-.159-6.276-1.58-6.82-1.622a34.652 34.652 0 013.895-.785s.278-1.06-1.921-1.06-4.194-.149-5.027 1.06a18.203 18.203 0 00-1.516 2.969s-12.328.859-19.02-2.386c-6.692-3.244-8.806-4.326-8.806-4.326l4.803-19.085" fill="#8BAA36"/><path d="M173.135 165.009s-5.572 1.06-8.208 4.241c-2.637 3.181-8.048 27.726-6.799 30.547 1.248 2.82 21.261 6.361 27.441 6.87a89.36 89.36 0 0014.879-.657s5.337-.138 6.799-.382c1.463-.244 4.152-1.675 4.195-2.216.043-.541-.224-1.834-2.22-1.993-1.996-.159-6.276-1.58-6.82-1.622a34.652 34.652 0 013.895-.785s.278-1.06-1.921-1.06-4.194-.149-5.027 1.06a18.203 18.203 0 00-1.516 2.969s-12.328.859-19.02-2.386c-6.692-3.244-8.806-4.326-8.806-4.326l4.803-19.085" stroke="#22252A" stroke-width="1.047" stroke-linecap="round" stroke-linejoin="round"/><path d="M207.219 205.66c1.484-.244 4.152-1.675 4.195-2.216.043-.541-.224-1.834-2.22-1.993-1.996-.16-6.276-1.58-6.82-1.623a34.873 34.873 0 013.895-.784s.278-1.061-1.921-1.061-4.195-.148-5.027 1.061a18.194 18.194 0 00-1.516 2.968s-12.328.859-19.02-2.385c-6.692-3.245-8.806-4.326-8.806-4.326l2.925-11.663a42.048 42.048 0 00-11.923-2.937c-1.995 7.994-3.629 17.41-2.881 19.085 1.238 2.82 21.261 6.362 27.441 6.87 4.97.196 9.947-.024 14.879-.657 0 0 5.348-.095 6.799-.339zM117.052 215.806s-4.12 3.064-3.49 5.09c.629 2.025 4.066-2.121 4.92-3.34.854-1.22.182-3.064-1.43-1.75z" fill="#FAFAFA" stroke="#22252A" stroke-width="1.047" stroke-linecap="round" stroke-linejoin="round"/><path d="M117.873 218.552s-4.109 3.064-3.49 5.09c.619 2.025 4.077-2.121 4.92-3.34.844-1.22.182-3.086-1.43-1.75z" fill="#FAFAFA" stroke="#22252A" stroke-width="1.047" stroke-linecap="round" stroke-linejoin="round"/><path d="M119.825 220.333s-4.11 3.065-3.48 5.09c.63 2.025 4.067-2.121 4.92-3.34.854-1.219.182-3.086-1.44-1.75z" fill="#FAFAFA" stroke="#22252A" stroke-width="1.047" stroke-linecap="round" stroke-linejoin="round"/><path d="M121.43 221.776s-3.555 2.269-2.957 3.944c.598 1.675 3.533-1.495 4.269-2.471.737-.975.139-2.544-1.312-1.473z" fill="#FAFAFA" stroke="#22252A" stroke-width="1.047" stroke-linecap="round" stroke-linejoin="round"/></symbol><symbol id="prefix__hero-bg" viewBox="0 0 768 606" fill="none" xmlns="http://www.w3.org/2000/svg"><path d="M0 16.5l194.254 61.584A554.261 554.261 0 00361.756 104a571.887 571.887 0 00179.81-29.003L768 0v606H0V16.5z" fill="#1E1F28"/></symbol><symbol id="prefix__hero-login-register" fill="none" viewBox="0 0 36 32"><path fill="#e0e0e0" d="M5.931 12.083a.038.038 0 010-.015v-.042-.162c0-.142 0-.347-.006-.604l.011.01-3.539.006.017-.015v.824l-.017-.016 3.275.011-3.298.017v-.832l.018-.016 3.55.006v.01c0 .26-.005.467-.006.61v.2l-.005.009z"/><path fill="#e0e0e0" d="M6.41 11.259v-.016-.043-.165c0-.145 0-.349-.007-.6l.012.011-2.127.005.018-.015v.821l-.017-.015 1.521.007.443.005h.124l-.122.01-.436.005-1.55.007v-.015-.399-.422l.018-.016 2.14.004v.011c0 .256-.005.46-.007.607v.163a.231.231 0 01-.012.052zM16.649 4.645a.038.038 0 010-.015v-.042-.163c0-.142-.004-.346-.007-.604l.012.01-3.544.009.018-.016v.821l-.018-.015 3.54.012a.049.049 0 01-.017 0h-.248l-.743.012-2.546.007v-.628-.209l.019-.016 3.546.006v.01c0 .26-.005.467-.007.61v.201l-.004.012z"/><path fill="#e0e0e0" d="M17.129 3.821v-.015-.044-.165c0-.144-.004-.348-.007-.599l.013.012-2.127.004.018-.016V3.82l-.017-.015 2.127.012a.24.24 0 01-.038 0h-.116l-.436.004-1.558.02v-.015-.825l.018-.016 2.14.004v.012c0 .256-.005.46-.007.606v.163a.507.507 0 01-.009.054zM13.071 8.529H4.229V3.14h8.842v5.389zm-8.758-.073h8.676V3.214H4.313v5.242z"/><path fill="#e0e0e0" d="M12.081 3.84a.193.193 0 01-.034 0h-.474l-1.414.005-4.939.009.018-.013v3.994l-.022-.019 6.861.004-.018.015.009-2.906c0-.347 0-.618.004-.804v-.211-.074.279c0 .185 0 .454.004.8 0 .696.005 1.696.009 2.916v.015l-6.901.004v-.019-4.011h.02l6.875.017z"/><path fill="#e0e0e0" d="M4.271 3.162a.775.775 0 01.151.086c.089.057.212.138.343.23s.247.18.33.246a.691.691 0 01.125.116c-.008.008-.218-.145-.482-.329s-.474-.341-.467-.349zM26.225 30.749h4.311V28.3h.299v-.685h-4.789v.621l.18 2.513zM16.23 15.929v-.057-.162c0-.142-.004-.347-.006-.604l.011.01-3.539.006.017-.015v.822l-.017-.015 3.275.011-.74.005-2.553.007v-.831l.018-.016 3.55.006v.01c0 .26-.004.467-.006.61v.2l-.01.015zM33.381 11.016v-.057-.162c0-.142-.004-.347-.006-.604l.011.01-3.539.006.018-.015V11.018l-.017-.016 3.275.011-.741.005-2.552.007v-.015V10.186l.018-.016 3.545.006v.01c0 .26-.004.467-.006.61v.2a.044.044 0 01-.007.022z"/><path fill="#455a64" d="M31.051 1.884h-10.54c-1.018 0-1.843.726-1.843 1.622v21.541c0 .896.825 1.622 1.843 1.622h10.54c1.018 0 1.844-.726 1.844-1.622V3.506c0-.896-.825-1.622-1.844-1.622z"/><path fill="#263238" d="M32.671 25.049V3.504c0-.786-.724-1.423-1.617-1.423H20.509c-.893 0-1.617.637-1.617 1.423v21.545c0 .786.724 1.423 1.617 1.423h10.545c.893 0 1.617-.637 1.617-1.423z"/><path fill="#455a64" d="M24.76 2.862a.174.174 0 01-.119-.038.132.132 0 01-.05-.102c0-.02.004-.038.013-.056.009-.018.021-.033.037-.046s.035-.023.055-.03a.194.194 0 01.064-.008h2.037c.04.002.078.018.105.044s.043.06.043.095-.015.069-.043.095-.065.042-.105.044H24.76zM23.668 2.862c-.031 0-.062-.008-.088-.023s-.046-.037-.058-.063a.126.126 0 01.034-.152c.022-.019.05-.033.081-.038s.063-.003.092.008c.029.011.054.028.071.051s.027.05.027.078c0 .037-.017.072-.046.099s-.07.041-.112.041zM24.251 2.862c-.031 0-.062-.008-.088-.023s-.047-.037-.059-.062c-.012-.025-.015-.054-.009-.081s.021-.052.043-.072c.022-.02.05-.033.081-.038s.063-.003.092.008c.029.011.054.028.071.051s.027.05.027.078c0 .037-.017.072-.046.098s-.07.041-.111.041zM27.895 2.862c-.031 0-.062-.008-.088-.023s-.047-.037-.059-.062c-.012-.025-.015-.054-.009-.081s.021-.052.043-.072c.022-.02.05-.033.081-.038s.063-.003.092.008c.029.011.054.028.071.051s.027.05.027.078c0 .037-.017.072-.046.098s-.07.041-.111.041zM27.312 2.862c-.031 0-.062-.008-.088-.023s-.046-.037-.058-.063a.126.126 0 01.034-.152c.022-.019.05-.033.081-.038s.063-.003.092.008c.029.011.054.028.071.051s.027.05.027.078c0 .037-.017.072-.046.099s-.07.041-.112.041z"/><path fill="#fafafa" d="M31.128 2.221H29.13c-.153 0-.303.044-.426.124s-.213.194-.257.324l-.034.102c-.046.139-.141.261-.272.348s-.291.135-.455.135H23.88c-.165 0-.325-.047-.457-.134s-.228-.21-.274-.349l-.034-.102c-.044-.13-.134-.243-.257-.324s-.273-.124-.426-.124H20.62c-.373 0-.731.13-.995.363s-.412.547-.412.876v21.491c0 .309.14.605.388.824s.585.341.936.341h10.615c.157 0 .313-.027.459-.08s.278-.131.389-.228c.111-.098.2-.214.26-.342s.091-.265.091-.404V3.298c0-.285-.129-.559-.358-.761s-.54-.315-.865-.315z"/><path fill="#455a64" d="M32.91 10.119h-.016V7.27h.016c.021 0 .04.007.055.02s.023.03.023.048v2.712c0 .018-.008.036-.023.048s-.034.02-.055.02zM18.649 9.024h.019v1.804h-.019c-.021 0-.04-.007-.055-.02s-.023-.03-.023-.048V9.096a.063.063 0 01.022-.05.079.079 0 01.056-.021zM18.649 6.669h.019v1.804h-.019c-.021 0-.04-.007-.055-.02s-.023-.03-.023-.048V6.741a.063.063 0 01.022-.05.079.079 0 01.056-.021zM18.654 4.901h.015v.838h-.015c-.018 0-.036-.006-.049-.018s-.02-.027-.02-.043v-.717c0-.016.007-.032.02-.043s.031-.018.049-.018z"/><path fill="#263238" d="M31.179 3.181h-.49c-.009 0-.018-.003-.025-.009s-.01-.014-.011-.022v-.214c0-.008.004-.016.01-.022s.015-.009.025-.009h.491a.006.006 0 01.006 0 .006.006 0 010 .006v.07h.052l.006.002c.001.001.003.003.003.005v.104l-.001.003-.002.003-.003.002H31.184v.071l.001.003-.001.003-.003.002-.003.001zm-.009-.261h-.482l-.007.001-.005.003-.004.005-.001.006v.214l.001.006.004.005.006.003.007.001h.482v-.07c0-.002.001-.004.003-.005l.006-.002h.052v-.088h-.052l-.004-.001-.003-.002-.002-.003V2.92zM30.204 3.164c0-.006-.002-.013-.006-.018s-.01-.009-.016-.012-.014-.003-.021-.002c-.007.001-.014.004-.019.009s-.008.01-.01.017c-.001.006 0 .013.002.019s.008.011.014.014a.046.046 0 00.02.005l.014-.002c.005-.001.008-.004.012-.007l.008-.01a.024.024 0 00.003-.012zM30.047 3.089l.046.04c.021-.018.048-.027.077-.028s.056.01.076.028l.046-.04a.184.184 0 00-.122-.045.184.184 0 00-.122.045z"/><path fill="#263238" d="M30.168 2.954c-.036 0-.072.006-.105.018s-.064.03-.089.053l.046.04a.23.23 0 01.298 0l.046-.04c-.026-.023-.056-.041-.089-.053s-.069-.018-.106-.018z"/><path fill="#263238" d="M29.901 2.959l.046.04a.35.35 0 01.446 0l.046-.04c-.071-.063-.168-.098-.269-.098s-.197.035-.269.098z"/><path fill="#fafafa" d="M24.193 23.672c-.049-.023-.091-.057-.119-.1s-.044-.09-.044-.14c0-.049.015-.097.044-.139s.07-.076.119-.1a.388.388 0 01.169-.035.388.388 0 01.169.035c.049.023.09.057.119.099a.237.237 0 01.034.212c-.011.036-.03.069-.057.098s-.059.052-.096.07a.375.375 0 01-.169.036.375.375 0 01-.169-.036zm.266-.091a.183.183 0 00.068-.061.155.155 0 00.025-.088.155.155 0 00-.025-.088.166.166 0 00-.068-.06.23.23 0 00-.194 0 .172.172 0 00-.068.06.166.166 0 00.068.237.23.23 0 00.194 0zM25.183 23.699l-.116-.148h-.129v.148h-.14v-.531h.261a.392.392 0 01.14.023c.038.014.07.038.091.068s.033.066.032.102c.002.036-.01.071-.032.101s-.055.053-.093.066l.135.171-.15-.001zm-.035-.408a.157.157 0 00-.095-.024h-.114v.186h.114a.163.163 0 00.095-.024c.011-.008.02-.019.025-.031s.008-.025.007-.038c.001-.013-.002-.026-.007-.038s-.014-.022-.025-.031zM25.433 23.168h.274c.06-.001.12.01.174.033a.278.278 0 01.117.093.252.252 0 01-.117.373.428.428 0 01-.174.033h-.274v-.531zm.267.43a.218.218 0 00.145-.044c.035-.033.054-.076.054-.12s-.019-.088-.054-.12a.224.224 0 00-.145-.045h-.127v.33h.127z"/><path fill="#263238" d="M19.782 6.28h.888l11.026-.012V9.815l-11.93-.006v-.016c0-1.103.005-1.984.007-2.587v-.691-.177-.06V7.214c0 .603.004 1.48.007 2.58l-.013-.011 11.899-.005-.019.017V6.28l.019.016-11.884-.016z"/><path fill="#afe814" d="M21.971 8.1c-.014 0-.027-.005-.038-.013s-.016-.02-.017-.032l-.063-1.339c0-.006.001-.013.003-.019s.006-.012.012-.016.011-.008.018-.011a.052.052 0 01.021-.004h.073c.015 0 .028.005.039.014s.016.021.016.034l-.013 1.339c0 .012-.006.024-.015.033s-.023.014-.037.015zM22.095 8.105c-.013-.004-.024-.013-.03-.024s-.007-.024-.003-.036l.463-1.276c.002-.006.006-.012.011-.018s.011-.009.018-.012a.054.054 0 01.044-.001l.073.023c.007.002.013.006.019.01s.01.01.013.016c.003.006.005.012.005.019s-.001.013-.004.019l-.535 1.253c-.003.006-.007.012-.012.016s-.011.008-.018.011c-.007.002-.014.004-.022.003s-.015-.002-.022-.005z"/><path fill="#fafafa" d="M22.613 7.765a.37.37 0 00-.25-.14.577.577 0 00-.291.045c-.073.029-.145.07-.218.056a.438.438 0 01-.145-.072.571.571 0 00-.388-.069.564.564 0 00-.336.204c-.033.038-.055.082-.067.128s-.011.095.001.141l1.718-.006a.29.29 0 00-.024-.289z"/><path fill="#263238" d="M22.567 8.021a.305.305 0 000-.074.262.262 0 00-.097-.179.26.26 0 00-.142-.054.443.443 0 00-.178.022c-.06.018-.117.053-.184.076a.29.29 0 01-.218-.009c-.069-.029-.127-.069-.19-.097a.41.41 0 00-.356.003.39.39 0 00-.128.098.423.423 0 00-.099.259.41.41 0 01.092-.267c.034-.042.079-.077.13-.102s.108-.04.167-.044a.43.43 0 01.201.038c.064.029.122.068.189.097a.269.269 0 00.206.009c.065-.023.122-.057.186-.076a.478.478 0 01.184-.022.284.284 0 01.145.059.257.257 0 01.095.185.182.182 0 01-.004.077z"/><path fill="#263238" d="M22.485 8.038a.342.342 0 000-.064c-.002-.029-.012-.058-.029-.084s-.039-.048-.066-.065a.208.208 0 00-.13-.028.422.422 0 00-.145.054.65.65 0 01-.161.072.343.343 0 01-.193-.017c-.124-.043-.223-.116-.335-.135-.049-.009-.099-.006-.147.007s-.09.037-.124.069a.317.317 0 00-.092.156c-.01.041-.009.064-.011.064a.23.23 0 01.005-.064.308.308 0 01.219-.234.343.343 0 01.153-.008c.116.02.218.093.338.135a.336.336 0 00.183.016.651.651 0 00.157-.069.434.434 0 01.151-.055.21.21 0 01.204.1.185.185 0 01.027.088.136.136 0 01-.006.063z"/><path fill="#263238" d="M22.379 8.039a.113.113 0 00-.009-.051.116.116 0 00-.044-.044.143.143 0 00-.087-.012c-.068.009-.129.064-.218.09a.454.454 0 01-.291-.035 1.758 1.758 0 00-.271-.102.308.308 0 00-.227.027.211.211 0 00-.091.112.303.303 0 00-.009.051.119.119 0 010-.053.2.2 0 01.091-.118.307.307 0 01.236-.03c.095.026.186.059.273.101a.445.445 0 00.281.035c.084-.025.145-.08.218-.088a.138.138 0 01.092.014c.02.012.036.029.045.049a.075.075 0 01.007.039.03.03 0 01.003.013z"/><path fill="#263238" d="M20.864 7.989h.139l.389-.005 1.336-.013-.005.01-.191.335-.161.281V8.6h-1.159l-.34-.605.351.6-.005-.003h1.154l-.007.003.161-.28.191-.335.007.01-1.86-.001z"/><path fill="#000" opacity=".3" d="M21.243 8.591l.031.059h1.123l.29-.624-.323.565h-1.12z"/><path fill="#fafafa" d="M21.965 8.964s0-.011-.007-.03c-.006-.02-.017-.039-.034-.054s-.037-.027-.06-.033c-.023-.006-.047-.007-.07-.003s-.045.014-.063.028c-.018.014-.031.032-.039.052s-.009.041-.005.062c.004.021.015.04.03.056a.146.146 0 00.124.043.16.16 0 00.063-.023.125.125 0 00.052-.064c.006-.019.006-.03.007-.03a.08.08 0 010 .031.122.122 0 01-.052.073c-.02.014-.043.023-.068.026s-.05.001-.073-.006c-.029-.009-.055-.026-.073-.048s-.028-.049-.028-.076.01-.054.028-.076a.154.154 0 01.073-.048c.024-.008.049-.01.074-.006s.048.013.067.027a.128.128 0 01.052.072.07.07 0 010 .029z"/><path fill="#263238" d="M21.244 7.484c.008-.002.014-.006.02-.011s.01-.011.012-.017a.055.055 0 000-.047.193.193 0 00-.041-.054c-.034-.038-.05-.085-.044-.133s.031-.092.073-.123c.029-.024.065-.047.069-.083 0-.017-.005-.035-.014-.05s-.021-.03-.036-.041a.377.377 0 01-.073-.082c-.015-.027-.023-.056-.025-.086s.004-.059.017-.087a.213.213 0 01.126-.112s-.015.007-.04.024a.22.22 0 00-.073.091.184.184 0 00.01.164c.02.029.044.056.073.079.017.012.03.028.04.045s.014.037.014.056a.162.162 0 01-.073.091c-.039.029-.064.07-.07.115s.008.09.04.126a.206.206 0 01.041.057.065.065 0 010 .051c-.02.03-.046.03-.046.026zM21.438 7.484c.008-.002.014-.006.02-.011s.01-.011.012-.017a.055.055 0 000-.047.193.193 0 00-.041-.054c-.034-.038-.05-.085-.044-.133s.031-.092.073-.123c.029-.024.065-.047.069-.083 0-.017-.005-.035-.014-.05s-.021-.03-.036-.041a.377.377 0 01-.073-.082c-.015-.027-.023-.056-.025-.086s.004-.059.017-.087a.213.213 0 01.126-.112s-.016.007-.04.024a.22.22 0 00-.073.091c-.011.026-.016.055-.014.083s.01.056.024.081c.02.029.044.056.073.079.017.012.03.028.04.045s.014.037.014.056a.162.162 0 01-.073.091.18.18 0 00-.062.081.157.157 0 00.031.159.206.206 0 01.041.057.065.065 0 010 .051c-.022.03-.048.03-.046.026z"/><path fill="#8baa36" d="M29.222 9.04h-.118v.102h-.087V9.04h-.118v-.072h.118v-.101h.087v.101h.118v.072zM30.027 9.134v.078h-.358v-.064l.183-.152a.155.155 0 00.039-.042.074.074 0 00.01-.035c0-.007-.001-.015-.005-.021s-.009-.013-.015-.017a.09.09 0 00-.056-.013c-.019 0-.039.003-.056.011s-.032.017-.042.031l-.08-.045a.174.174 0 01.076-.057.301.301 0 01.204-.006c.024.009.046.024.061.043s.023.041.023.064a.133.133 0 01-.017.064.24.24 0 01-.063.068l-.109.091.204.003z"/><path fill="#263238" d="M30.877 9.486v-.019-.052c0-.048 0-.113-.004-.196 0-.172-.004-.414-.007-.713l.014.012-2.352.004.019-.017v.979l-.018-.016 2.352.011a.294.294 0 01-.042 0h-.128l-.485.004-1.715.008v-.015-.979l.019-.017 2.366.004v.012c0 .302-.005.547-.007.72 0 .082 0 .147-.004.192v.05a.041.041 0 01-.007.026z"/><path fill="#e0e0e0" d="M25.126 9.173a.268.268 0 01-.149.055v.085h-.087V9.23a.565.565 0 01-.122-.02.325.325 0 01-.093-.041l.047-.093a.332.332 0 00.076.036c.029.009.06.015.091.018v-.128a.605.605 0 01-.103-.029.188.188 0 01-.073-.047.112.112 0 01-.028-.081.137.137 0 01.052-.108.267.267 0 01.151-.055v-.084h.087v.083a.418.418 0 01.175.047l-.043.093a.369.369 0 00-.132-.04v.128a.695.695 0 01.102.027c.028.01.053.026.073.046.02.023.03.052.028.081.001.02-.004.041-.013.059s-.023.036-.039.049zm-.283-.301c.014.01.03.017.047.02v-.107a.108.108 0 00-.049.021.047.047 0 00-.015.035c0 .006.001.012.004.017s.007.01.012.014zm.179.236c.005-.004.009-.009.012-.015s.004-.012.004-.018c0-.006-.001-.012-.004-.017s-.007-.01-.012-.014a.148.148 0 00-.046-.021v.105a.106.106 0 00.046-.02zM25.778 9.173a.264.264 0 01-.15.055v.085h-.086V9.23a.51.51 0 01-.122-.02.344.344 0 01-.094-.041l.048-.093a.31.31 0 00.073.036c.029.009.06.015.091.018v-.128a.616.616 0 01-.104-.029.188.188 0 01-.073-.047.112.112 0 01-.028-.081.137.137 0 01.052-.108.267.267 0 01.151-.055v-.084h.086v.083a.418.418 0 01.175.047l-.043.093a.381.381 0 00-.132-.04v.128a.743.743 0 01.103.027c.028.01.053.026.073.046.02.023.03.052.028.081a.135.135 0 01-.048.109zm-.283-.301c.014.01.03.017.047.02v-.107a.108.108 0 00-.049.021.047.047 0 00-.015.035c0 .006.001.012.004.017s.007.01.013.014zm.18.236c.005-.004.009-.009.012-.015s.004-.012.004-.018c0-.006-.001-.012-.004-.017s-.007-.01-.012-.014a.154.154 0 00-.047-.021v.105a.116.116 0 00.047-.02z"/><path fill="#263238" d="M19.782 10.157h.891l11.026-.012V13.692l-11.93-.017c0-1.103.005-1.984.007-2.587v-.69-.178-.059V11.096c0 .603.004 1.48.007 2.58l-.013-.011 11.899-.006-.019.017v-3.519l.019.016-11.887-.016z"/><path fill="#8baa36" d="M29.222 12.918h-.118v.101h-.087v-.101h-.118v-.073h.118v-.101h.087v.101h.118v.073zM29.856 12.672v.417h-.11v-.34h-.095v-.077h.204z"/><path fill="#263238" d="M30.877 13.363v-.019-.052c0-.048 0-.113-.004-.196 0-.172-.004-.414-.007-.713l.014.012-2.352.004.019-.017v.979l-.018-.016 1.684.008.49.004h.178a.294.294 0 01-.042 0h-.128l-.485.005-1.715.007v-.016-.97l.019-.017 2.366.004v.012c0 .302-.005.547-.007.721 0 .082 0 .147-.004.192v.05a.05.05 0 01-.007.017z"/><path fill="#e0e0e0" d="M25.126 13.05a.268.268 0 01-.149.055v.085h-.087v-.083a.51.51 0 01-.122-.02.325.325 0 01-.093-.041l.047-.093a.398.398 0 00.167.055v-.128a.714.714 0 01-.103-.029.188.188 0 01-.073-.047.116.116 0 01-.028-.082.137.137 0 01.052-.108.267.267 0 01.151-.055v-.08h.087v.083a.417.417 0 01.175.046l-.043.093a.369.369 0 00-.132-.04v.128a.848.848 0 01.102.027c.028.01.053.026.073.047.02.023.03.052.028.081 0 .02-.005.039-.014.057s-.022.034-.038.047zm-.283-.301c.014.01.03.017.047.02v-.107a.1.1 0 00-.049.022.044.044 0 00-.015.035c0 .006.001.012.004.017s.007.01.012.014zm.179.237c.005-.004.009-.009.012-.015s.004-.012.004-.018c0-.006-.001-.012-.004-.017s-.007-.01-.012-.014a.175.175 0 00-.046-.021v.105a.096.096 0 00.046-.02z"/><path fill="#8baa36" d="M21.02 11.414l.151 1.77c.002.027.016.051.038.07s.051.029.081.029l.818.006c.03 0 .06-.01.082-.028s.036-.043.039-.069l.166-1.757-1.376-.02z"/><path fill="#000" opacity=".3" d="M22.386 11.531c-.283.1-.588.14-.891.117-.396-.022-.466-.106-.466-.106l-.005-.079h1.368l-.006.068z"/><path fill="#e0e0e0" d="M22.453 11.339l.032.122s-.156.114-.796.106c-.573-.006-.711-.1-.711-.1l-.044-.033.039-.115 1.48.02z"/><path fill="#263238" d="M22.453 11.339h-.428l-1.048-.013-.039.115v-.005l.047.035a.487.487 0 00.057.024l.03.009.03.008c.04.01.081.017.122.024.079.012.159.021.239.025.145.009.291.012.436.007.118-.002.236-.013.352-.032a1.27 1.27 0 00.136-.03.435.435 0 00.1-.04l-.022-.09-.006-.024v-.008.008l.006.024.025.09a.43.43 0 01-.101.042 1.07 1.07 0 01-.136.031c-.116.019-.234.03-.353.033a4.526 4.526 0 01-.436-.006 2.39 2.39 0 01-.362-.049c-.01 0-.02-.005-.031-.008l-.03-.01a.304.304 0 01-.059-.024l-.047-.035.039-.115 1.48.021-.001-.007z"/><path fill="#263238" d="M20.971 11.328v-.007a.038.038 0 01.015-.016.29.29 0 01.082-.031c.107-.023.216-.037.325-.043a4.654 4.654 0 01.778.018c.049.006.1.013.151.023a.864.864 0 01.11.031l.009.004.009.005.007.007c.002.003.001.007 0 .011a.02.02 0 01-.005.01l-.008.007a.267.267 0 01-.053.024.605.605 0 01-.073.02 2.075 2.075 0 01-.151.026 3.285 3.285 0 01-.548.023c-.081 0-.158-.008-.227-.013a2.195 2.195 0 01-.324-.044.29.29 0 01-.082-.031.033.033 0 01-.015-.016v-.006.006a.036.036 0 00.015.015.259.259 0 00.082.029c.107.022.215.036.324.042a4.76 4.76 0 00.486.011 3.297 3.297 0 00.436-.049.605.605 0 00.109-.034c.005-.003.011-.006.015-.01a.021.021 0 00.01-.011l-.002-.007a.012.012 0 00-.005-.005l-.016-.009a.595.595 0 00-.109-.03 3.662 3.662 0 00-.436-.046 4.944 4.944 0 00-.487.003 2.091 2.091 0 00-.325.04.312.312 0 00-.081.029.043.043 0 00-.015.015l-.001.007z"/><path fill="#e0e0e0" d="M22.134 11.225l.017.069s-.088.07-.447.06-.399-.056-.399-.056l-.01-.011.007-.073.832.011z"/><path fill="#263238" d="M22.134 11.225h-.241l-.591-.007.005-.003c0 .023-.005.047-.007.072l.008.008a.013.013 0 00.007.006c.02.01.043.017.066.021a2.091 2.091 0 00.202.025c.081.006.161.008.242.006.066-.001.132-.006.197-.017a.458.458 0 00.128-.042l-.012-.051v-.013-.005.004l.004.013.015.051a.22.22 0 01-.056.026.602.602 0 01-.073.019 1.443 1.443 0 01-.198.019c-.073 0-.156 0-.244-.006a2.194 2.194 0 01-.135-.013c-.023 0-.046-.007-.069-.012s-.047-.012-.068-.022a.024.024 0 01-.009-.008l-.007-.008.007-.072v-.004h.004l.594.01.175.004h.063l-.006-.001z"/><path fill="#263238" d="M21.301 11.219s0-.006.009-.013a.123.123 0 01.046-.018c.06-.013.122-.022.183-.025a2.523 2.523 0 01.522.021l.042.011a.072.072 0 01.02.009c.004.002.008.004.01.007l.005.011c-.001.004-.002.008-.005.011l-.01.008a.3.3 0 01-.063.019.832.832 0 01-.085.013c-.056.006-.111.008-.162.01a2.506 2.506 0 01-.274-.006 1.12 1.12 0 01-.183-.026.16.16 0 01-.047-.019c-.009-.006-.009-.013-.008-.013 0 .003.002.005.003.007l.006.005c.014.008.03.013.046.017.06.013.121.021.183.024a2.779 2.779 0 00.436-.006.813.813 0 00.125-.023l.02-.008c.006 0 .011-.007.011-.012s-.005-.008-.011-.011a.108.108 0 00-.019-.008l-.041-.011a2.307 2.307 0 00-.245-.025 3.13 3.13 0 00-.274 0c-.061.002-.123.01-.183.022a.166.166 0 00-.047.017c-.003.001-.005.003-.007.006s-.003.005-.003.008z"/><path fill="#263238" d="M21.65 11.204a.216.216 0 00.064.004c.016-.003.033-.004.049-.003a78.516 78.516 0 01-.022-.793l.004.004-.113.004.004-.004.012.562v.228-.012-.045c0-.04 0-.097-.005-.167l-.016-.564v-.004h.004l.113-.005h.005v.006c.009.348.015.65.017.794a.4.4 0 00-.049 0 .216.216 0 01-.036 0c-.007 0-.014-.002-.021-.004l-.012-.003z"/><path fill="#263238" d="M21.607 11.196s.05.006.111.006.112-.007.112-.005a.529.529 0 01-.223-.002z"/><path fill="#8baa36" d="M22.947 15.62c.005-.023.003-.047-.005-.07s-.024-.042-.045-.058a.238.238 0 00-.145-.045.285.285 0 00-.135.031c-.023.012-.042.029-.057.048s-.023.042-.025.066.002.047.012.069c.01.022.026.041.046.056a.257.257 0 00.162.052.215.215 0 00.136-.043.147.147 0 00.059-.107z"/><path fill="#263238" d="M19.782 14.025h.891l11.026-.012V17.56l-11.93-.006v-.017c0-1.103.005-1.984.007-2.587v-.69-.177-.059V14.96c0 .603.004 1.48.007 2.58l-.013-.011 11.899-.006-.019.017v-3.514l.019.016-11.887-.016z"/><path fill="#8baa36" d="M29.222 16.785h-.118v.101h-.087v-.101h-.118v-.072h.118v-.102h.087v.102h.118v.072zM29.856 16.54v.42h-.11v-.34h-.095v-.077l.204-.003z"/><path fill="#263238" d="M30.878 17.231v-.019-.052c0-.047 0-.113-.004-.197 0-.171-.004-.414-.007-.712l.014.012-2.352.005.019-.017v.978l-.018-.015 1.684.007.49.004h.178a.294.294 0 01-.042 0h-.128l-.485.005-1.715.008v-.016-.966c-.004 0 .036-.032.019-.017l2.366.005v.013c0 .301-.005.547-.007.72 0 .082 0 .147-.004.192v.049c-.006.008-.007.014-.007.013z"/><path fill="#e0e0e0" d="M25.126 16.918a.271.271 0 01-.149.055v.085h-.087v-.083a.51.51 0 01-.122-.02.3.3 0 01-.093-.041l.047-.092a.398.398 0 00.167.054v-.128a.714.714 0 01-.103-.029.188.188 0 01-.073-.047.114.114 0 01-.028-.082.137.137 0 01.052-.108.275.275 0 01.151-.055v-.084h.087v.083a.417.417 0 01.175.046l-.043.093a.368.368 0 00-.132-.039v.128a.698.698 0 01.102.028c.028.01.053.026.073.047.02.023.03.052.028.081a.134.134 0 01-.052.108zm-.283-.301c.014.01.03.017.047.021v-.108a.11.11 0 00-.049.022.044.044 0 00-.015.035c0 .006.001.012.004.017s.007.01.012.014zm.179.236c.005-.004.009-.009.012-.015s.004-.012.004-.018c0-.006-.001-.012-.004-.017s-.007-.01-.012-.014a.128.128 0 00-.046-.021v.104a.087.087 0 00.046-.02zM25.719 16.918a.268.268 0 01-.149.055v.085h-.087v-.083a.51.51 0 01-.122-.02.3.3 0 01-.093-.041l.047-.092a.39.39 0 00.167.054v-.128a.714.714 0 01-.103-.029.188.188 0 01-.073-.047.12.12 0 01-.029-.082.137.137 0 01.052-.108.275.275 0 01.151-.055v-.084h.087v.083a.433.433 0 01.175.046l-.044.093a.368.368 0 00-.132-.039v.128a.698.698 0 01.102.028c.028.01.053.026.073.047.02.023.03.052.028.081.001.02-.004.041-.013.059s-.022.036-.039.05zm-.283-.301c.014.01.03.017.047.021v-.108a.101.101 0 00-.048.022.048.048 0 00-.016.035c0 .006.001.012.004.017s.007.01.012.014zm.18.236c.005-.004.009-.009.012-.015s.004-.012.004-.018c0-.006-.001-.012-.004-.017s-.007-.01-.012-.014a.121.121 0 00-.046-.021v.104a.09.09 0 00.047-.02z"/><path fill="#455a64" d="M22.019 15.596a.536.536 0 00.125-.284.416.416 0 00-.049-.269c-.004-.006-.007-.012-.015-.014s-.015-.002-.022 0c-.058.025-.108.064-.144.112s-.057.103-.061.16c-.004.057.009.114.038.165s.073.095.128.126zM22.245 15.36a.497.497 0 00.211-.136.319.319 0 00.092-.206.02.02 0 00-.015-.006.302.302 0 00-.256.1.22.22 0 00-.029.245z"/><path fill="#8baa36" d="M22.207 15.588c.005-.023.004-.048-.005-.07s-.024-.043-.045-.058a.238.238 0 00-.145-.045.278.278 0 00-.134.031c-.02.011-.037.025-.051.042s-.024.036-.029.056a.145.145 0 00.057.141.264.264 0 00.162.053.215.215 0 00.136-.044c.017-.013.031-.03.041-.048s.016-.038.017-.058z"/><path fill="#455a64" d="M22.72 15.717c.202.031.402-.165.45-.293.004-.006.006-.013.006-.02s-.002-.014-.006-.021c-.006-.005-.014-.009-.023-.011s-.017-.001-.026.001c-.1.012-.192.052-.264.113s-.119.143-.136.23z"/><path fill="#8baa36" d="M21.474 15.343c.005-.023.004-.048-.005-.07s-.024-.043-.045-.058a.252.252 0 00-.145-.045.268.268 0 00-.134.032.146.146 0 00-.083.114.139.139 0 00.058.125.26.26 0 00.163.053.215.215 0 00.136-.044c.017-.013.031-.03.041-.048s.016-.038.017-.058z"/><path fill="#455a64" d="M21.907 15.658a.546.546 0 00-.136-.28.514.514 0 00-.249-.162.037.037 0 00-.021 0l-.009.007c-.003.003-.004.006-.005.009-.022.054-.027.112-.014.168s.041.109.083.152c.043.043.097.076.159.095s.127.023.191.012zM21.171 15.5a.912.912 0 01-.106-.128.269.269 0 01-.045-.154l.002-.012c.001-.004.004-.007.007-.01.004-.002.009-.002.013-.002l.013.002c.114.023.216.076.294.152s.126.172.138.274l.006.027a.48.48 0 01-.319.042.741.741 0 01-.246-.085.312.312 0 01-.149-.187.529.529 0 01.392.08zM22.427 15.344a.75.75 0 01.356-.159.4.4 0 01-.106.331c-.042.046-.093.085-.152.114s-.123.047-.19.054l-.008-.013c-.019-.057-.02-.118-.002-.175s.053-.11.102-.151z"/><path fill="#263238" d="M23.124 15.59h-.725l-1.791.007.007-.01c.081.157.168.32.26.483l.073.128a.67.67 0 00.084.116c.066.07.147.127.239.167.173.079.364.123.559.128.176.007.352-.018.517-.075a.93.93 0 00.368-.234c.138-.154.249-.325.329-.508.028-.064.047-.117.06-.151l.017-.054a1.868 1.868 0 01-.399.719.952.952 0 01-.372.238 1.417 1.417 0 01-.522.077 1.431 1.431 0 01-.565-.128.75.75 0 01-.243-.17c-.033-.037-.062-.076-.087-.118l-.073-.128a15.82 15.82 0 01-.261-.483l-.004-.01h2.525l.005.005zM19.842 17.927h.891l11.026-.012V21.462l-11.93-.006v-.017c0-1.103.005-1.984.007-2.587v-.69-.177-.06V18.861c0 .603.004 1.48.007 2.58l-.013-.011 11.899-.006-.019.017v-3.514l.019.016-11.887-.016z"/><path fill="#8baa36" d="M29.282 20.687h-.118v.101h-.087v-.101h-.118v-.072h.118v-.102h.087v.102h.118v.072zM29.916 20.442v.42h-.11v-.34h-.095v-.077l.204-.003z"/><path fill="#263238" d="M30.938 21.132v-.019-.052c0-.047 0-.113-.004-.196 0-.171-.004-.414-.007-.712l.014.012-2.352.005.019-.017v.978l-.018-.015 1.684.007.49.004h.178a.294.294 0 01-.042 0h-.128l-.485.005-1.715.008v-.016-.965c-.004 0 .036-.032.019-.017l2.366.005v.013c0 .301-.005.547-.007.72 0 .082 0 .147-.004.192v.049c-.006.008-.007.014-.007.013z"/><path fill="#e0e0e0" d="M25.186 20.82a.271.271 0 01-.149.055v.085h-.087v-.083a.51.51 0 01-.122-.02.278.278 0 01-.093-.041l.047-.092a.398.398 0 00.167.054v-.128a.714.714 0 01-.103-.029.188.188 0 01-.073-.047.114.114 0 01-.028-.082.137.137 0 01.052-.108.267.267 0 01.151-.055v-.084h.087v.083a.417.417 0 01.175.046l-.043.093a.368.368 0 00-.132-.039v.128a.698.698 0 01.102.028c.028.01.053.026.073.047.02.023.03.052.028.081a.134.134 0 01-.052.108zm-.283-.301c.014.01.03.017.047.021v-.108a.11.11 0 00-.049.022.044.044 0 00-.015.035c0 .006.001.012.004.017s.007.01.012.014zm.179.236c.005-.004.009-.009.012-.015s.004-.012.004-.018c0-.006-.001-.012-.004-.017s-.007-.01-.012-.014a.128.128 0 00-.046-.021v.104a.087.087 0 00.046-.02zM25.779 20.82a.268.268 0 01-.149.055v.085h-.087v-.083a.51.51 0 01-.122-.02.278.278 0 01-.093-.041l.047-.092a.39.39 0 00.167.054v-.128a.714.714 0 01-.103-.029.188.188 0 01-.073-.047.12.12 0 01-.029-.082.137.137 0 01.052-.108.267.267 0 01.151-.055v-.084h.087v.083a.433.433 0 01.175.046l-.044.093a.368.368 0 00-.132-.039v.128a.698.698 0 01.102.028c.028.01.053.026.073.047.02.023.03.052.028.081.001.02-.004.04-.013.059s-.022.036-.039.049zm-.283-.301c.014.01.03.017.047.021v-.108a.101.101 0 00-.048.022.048.048 0 00-.016.035c0 .006.001.012.004.017s.007.01.012.014zm.18.236c.005-.004.009-.009.012-.015s.004-.012.004-.018c0-.006-.001-.012-.004-.017s-.007-.01-.012-.014a.121.121 0 00-.046-.021v.104a.09.09 0 00.047-.02z"/><path fill="#455a64" d="M22.079 19.497a.536.536 0 00.125-.284.416.416 0 00-.049-.269c-.004-.006-.007-.012-.015-.014s-.015-.003-.022 0c-.058.025-.108.064-.144.112s-.057.103-.061.16c-.004.057.009.114.038.165s.073.095.128.126zM22.305 19.262a.497.497 0 00.211-.136.319.319 0 00.092-.206.02.02 0 00-.015-.006.302.302 0 00-.256.1.22.22 0 00-.029.245z"/><path fill="#8baa36" d="M22.267 19.49c.005-.023.004-.048-.005-.07s-.024-.043-.045-.058a.238.238 0 00-.145-.045.278.278 0 00-.134.031.162.162 0 00-.08.098c-.005.026-.002.052.007.077s.027.047.049.064a.257.257 0 00.162.052.215.215 0 00.136-.044c.017-.013.031-.03.041-.048s.016-.038.017-.058z"/><path fill="#455a64" d="M22.78 19.619c.202.031.402-.165.45-.293a.036.036 0 000-.04c-.006-.005-.014-.009-.023-.011s-.017-.001-.026.001c-.1.012-.192.052-.264.113s-.119.143-.136.23z"/><path fill="#8baa36" d="M21.534 19.245c.005-.023.004-.048-.005-.07s-.024-.043-.045-.058a.254.254 0 00-.145-.045.268.268 0 00-.134.032.146.146 0 00-.083.114.139.139 0 00.058.125.253.253 0 00.163.052.215.215 0 00.136-.044c.017-.013.031-.03.041-.048s.016-.038.017-.058z"/><path fill="#455a64" d="M21.967 19.56a.546.546 0 00-.136-.28.521.521 0 00-.249-.162.037.037 0 00-.021 0l-.009.007c-.003.003-.004.006-.005.009-.022.054-.027.112-.014.168s.041.109.083.152c.043.043.097.076.159.095s.127.023.191.012zM21.231 19.402a.912.912 0 01-.106-.128.269.269 0 01-.045-.154l.002-.012c.001-.004.004-.007.007-.01.004-.002.009-.002.013-.002l.013.002c.114.023.216.076.294.152s.126.172.138.274l.006.027a.48.48 0 01-.319.042.741.741 0 01-.246-.085.312.312 0 01-.149-.187.529.529 0 01.392.08zM22.487 19.246a.75.75 0 01.356-.159.4.4 0 01-.106.331c-.042.046-.093.085-.152.114s-.123.047-.19.054l-.008-.013c-.019-.057-.02-.118-.002-.175s.053-.11.102-.151z"/><path fill="#263238" d="M23.184 19.492h-.725l-1.791.007.007-.01c.081.157.168.32.26.483l.073.128a.67.67 0 00.084.116.74.74 0 00.239.167c.173.079.364.123.559.128.176.007.352-.018.517-.075a.93.93 0 00.368-.234c.138-.154.249-.325.329-.508.028-.064.047-.116.06-.151l.017-.054a1.868 1.868 0 01-.399.719.952.952 0 01-.372.238 1.417 1.417 0 01-.522.077 1.431 1.431 0 01-.565-.128.75.75 0 01-.243-.17c-.033-.037-.062-.076-.087-.118l-.073-.128a15.82 15.82 0 01-.261-.483l-.004-.01h2.525l.005.005zM19.911 21.756h.891l11.026-.012V25.291l-11.93-.006v-.017c0-1.103.005-1.984.007-2.587v-.69-.177-.06V22.69c0 .603.004 1.48.007 2.58l-.013-.011 11.899-.006-.019.017v-3.514l.019.016-11.887-.016z"/><path fill="#8baa36" d="M29.351 24.516h-.118v.101h-.087v-.101h-.118v-.072h.118v-.102h.087v.102h.118v.072zM29.984 24.271v.42h-.11v-.34h-.095v-.077l.204-.003z"/><path fill="#263238" d="M31.006 24.962v-.019-.052c0-.047 0-.113-.004-.196 0-.171-.004-.414-.007-.712l.014.012-2.352.005.019-.017v.978l-.018-.015 1.684.007.49.004h.178a.294.294 0 01-.042 0h-.128l-.485.005-1.715.008v-.016-.965c-.004 0 .036-.032.019-.017l2.366.005v.013c0 .301-.005.547-.007.72 0 .082 0 .147-.004.192v.049c-.006.008-.007.014-.007.013z"/><path fill="#e0e0e0" d="M25.254 24.649a.271.271 0 01-.149.055v.085h-.087v-.083a.51.51 0 01-.122-.02.278.278 0 01-.093-.041l.047-.092a.398.398 0 00.167.054v-.128a.714.714 0 01-.103-.029.188.188 0 01-.073-.047.114.114 0 01-.028-.082.137.137 0 01.052-.108.267.267 0 01.151-.055v-.084h.087v.083a.417.417 0 01.175.046l-.043.093a.368.368 0 00-.132-.039v.128a.698.698 0 01.102.028c.028.01.053.026.073.047.02.023.03.052.028.081a.134.134 0 01-.052.108zm-.283-.301c.014.01.03.017.047.021v-.108a.11.11 0 00-.049.022.044.044 0 00-.015.035c0 .006.001.012.004.017s.007.01.012.014zm.18.236c.005-.004.009-.009.012-.015s.004-.012.004-.018c0-.006-.001-.012-.004-.017s-.007-.01-.012-.014a.128.128 0 00-.046-.021v.104a.087.087 0 00.046-.02zM25.847 24.649a.268.268 0 01-.149.055v.085h-.087v-.083a.51.51 0 01-.122-.02.278.278 0 01-.093-.041l.047-.092a.39.39 0 00.167.054v-.128a.714.714 0 01-.103-.029.188.188 0 01-.073-.047.12.12 0 01-.029-.082.137.137 0 01.052-.108.267.267 0 01.151-.055v-.084h.087v.083a.433.433 0 01.175.046l-.044.093a.368.368 0 00-.132-.039v.128a.698.698 0 01.102.028c.028.01.053.026.073.047.02.023.03.052.028.081.001.02-.004.04-.013.059s-.022.036-.039.049zm-.283-.301c.014.01.03.017.047.021v-.108a.101.101 0 00-.048.022.048.048 0 00-.016.035c0 .006.001.012.004.017s.007.01.012.014zm.181.236c.005-.004.009-.009.012-.015s.004-.012.004-.018c0-.006-.001-.012-.004-.017s-.007-.01-.012-.014a.121.121 0 00-.046-.021v.104a.09.09 0 00.047-.02z"/><path fill="#455a64" d="M22.148 23.326a.536.536 0 00.125-.284.416.416 0 00-.049-.269c-.004-.006-.007-.012-.015-.014s-.015-.003-.022 0c-.058.025-.108.064-.144.112s-.057.103-.061.16c-.004.057.009.114.038.165s.073.095.128.126zM22.374 23.091a.497.497 0 00.211-.136.319.319 0 00.092-.206.02.02 0 00-.015-.006.302.302 0 00-.256.1.22.22 0 00-.029.245z"/><path fill="#8baa36" d="M22.335 23.319c.005-.023.004-.048-.005-.07s-.024-.043-.045-.058a.238.238 0 00-.145-.045.278.278 0 00-.134.031.162.162 0 00-.08.098c-.005.026-.002.052.007.077s.027.047.049.064a.257.257 0 00.162.052.215.215 0 00.136-.044c.017-.013.031-.03.041-.048s.016-.038.017-.058z"/><path fill="#455a64" d="M22.848 23.448c.202.031.402-.165.45-.293a.036.036 0 000-.04c-.006-.005-.014-.009-.023-.011s-.017-.001-.026.001c-.1.012-.192.052-.264.113s-.119.143-.136.23z"/><path fill="#8baa36" d="M21.602 23.074c.005-.023.004-.048-.005-.07s-.024-.043-.045-.058a.254.254 0 00-.145-.045.268.268 0 00-.134.032.146.146 0 00-.083.114.139.139 0 00.058.125.253.253 0 00.163.052.215.215 0 00.136-.044c.017-.013.031-.03.041-.048s.016-.038.017-.058z"/><path fill="#455a64" d="M22.036 23.389a.546.546 0 00-.136-.28.521.521 0 00-.249-.162.037.037 0 00-.021 0l-.009.007c-.003.003-.004.006-.005.009-.022.054-.027.112-.014.168s.041.109.083.152c.043.043.097.076.159.095s.127.023.191.012zM21.299 23.231a.912.912 0 01-.106-.128.269.269 0 01-.045-.154l.002-.012c.001-.004.004-.007.007-.01.004-.002.009-.002.013-.002l.013.002c.114.023.216.076.294.152s.126.172.138.274l.006.027a.48.48 0 01-.319.042.741.741 0 01-.246-.085.312.312 0 01-.149-.187.529.529 0 01.392.08zM22.556 23.075a.75.75 0 01.356-.159.4.4 0 01-.106.331c-.042.046-.093.085-.152.114s-.123.047-.19.054l-.008-.013c-.019-.057-.02-.118-.002-.175s.053-.11.102-.151z"/><path fill="#263238" d="M23.252 23.321h-.725l-1.791.007.007-.01c.081.157.168.32.26.483l.073.128a.67.67 0 00.084.116.74.74 0 00.239.167c.173.079.364.123.559.128.176.007.352-.018.517-.075a.93.93 0 00.368-.234c.138-.154.249-.325.329-.508.028-.064.047-.116.06-.151l.017-.054a1.868 1.868 0 01-.399.719.952.952 0 01-.372.238 1.417 1.417 0 01-.522.077 1.431 1.431 0 01-.565-.128.75.75 0 01-.243-.17c-.033-.037-.062-.076-.087-.118l-.073-.128a15.82 15.82 0 01-.261-.483l-.004-.01h2.525l.005.005z"/><path fill="#fafafa" d="M11.636 6.992h5.34c.101 0 .198.035.27.098s.112.149.112.238v4.698c0 .089-.04.175-.112.238s-.169.098-.27.098h-3.977c-.364.271-1.059.818-1.059.818l-.052-.818h-.252c-.101 0-.198-.036-.27-.099s-.112-.148-.112-.237V7.328c0-.089.04-.174.112-.237s.168-.099.27-.099z"/><path fill="#263238" d="M11.636 6.992a.395.395 0 00-.272.107.329.329 0 00-.089.137.824.824 0 00-.014.232V8.451c0 .524 0 1.16.004 1.887v1.623a.444.444 0 00.015.154c.016.05.046.096.087.133s.092.066.148.082a.568.568 0 00.179.017h.205v.013l.052.819-.029-.011 1.069-.82h4.01c.076-.005.148-.031.206-.074s.1-.101.119-.166a.433.433 0 00.012-.134v-1.095-2.063-.96-.46a.824.824 0 00-.004-.111.297.297 0 00-.036-.102.353.353 0 00-.17-.145.407.407 0 00-.114-.029h-1.723l-2.677-.005 4.279-.005h.124c.065.007.127.028.181.06s.098.077.128.128c.02.035.034.072.039.111a.63.63 0 01.004.115v4.571a.486.486 0 01-.013.142.376.376 0 01-.2.222.439.439 0 01-.159.04H12.996l.012-.004c-.364.282-.728.558-1.059.817l-.027.021v-.032l-.051-.818.017.014h-.189a.608.608 0 01-.19-.019c-.061-.018-.116-.049-.16-.09s-.077-.091-.095-.145a.493.493 0 01-.015-.162v-.466-1.157c0-.727 0-1.363.004-1.887v-.7-.283a.806.806 0 01.017-.235c.017-.052.049-.1.092-.139a.393.393 0 01.247-.101l.035-.012z"/><path fill="#afe814" d="M14.518 9.778c-.021 0-.04-.007-.055-.02s-.023-.03-.024-.048l-.092-1.956c0-.009.002-.019.005-.028s.01-.017.017-.024.016-.012.026-.016a.081.081 0 01.031-.006h.111c.01 0 .021.002.03.005s.018.009.026.015a.066.066 0 01.023.05l-.019 1.957c0 .019-.009.036-.024.049s-.035.02-.056.02zM14.696 9.786c-.019-.006-.035-.019-.044-.035s-.011-.035-.004-.053l.677-1.865a.07.07 0 01.04-.042c.01-.004.02-.007.031-.007s.022.001.032.004l.104.033c.02.007.036.02.045.037s.01.036.002.054l-.781 1.832c-.008.017-.022.031-.041.039s-.041.009-.06.003z"/><path fill="#e0e0e0" d="M15.455 9.288c-.041-.055-.094-.101-.157-.136s-.133-.058-.207-.068a.832.832 0 00-.422.064c-.103.043-.209.102-.319.083a.682.682 0 01-.209-.104c-.082-.049-.174-.084-.272-.101s-.198-.017-.295 0a.816.816 0 00-.491.298.435.435 0 00-.096.393l2.511-.008a.43.43 0 00-.044-.421z"/><path fill="#263238" d="M15.389 9.664a.386.386 0 00-.146-.365.386.386 0 00-.204-.077.644.644 0 00-.258.032c-.087.027-.17.077-.269.112a.44.44 0 01-.162.026.476.476 0 01-.163-.04c-.102-.043-.187-.101-.277-.142a.62.62 0 00-.527.01.573.573 0 00-.169.134.63.63 0 00-.135.268c-.015.069-.014.109-.018.108a.566.566 0 01.308-.534.642.642 0 01.56-.017c.095.042.18.101.276.141.045.02.095.033.146.036a.4.4 0 00.146-.024c.093-.032.178-.083.271-.11a.697.697 0 01.273-.031.386.386 0 01.357.362.378.378 0 01-.006.082c.001.017-.002.028-.004.028z"/><path fill="#263238" d="M15.269 9.688a.753.753 0 000-.095c-.004-.042-.019-.083-.043-.12s-.056-.069-.096-.094a.284.284 0 00-.186-.038.642.642 0 00-.21.079.99.99 0 01-.237.105.516.516 0 01-.286-.024c-.183-.064-.327-.17-.488-.198a.465.465 0 00-.389.106.473.473 0 00-.136.224c-.016.059-.015.095-.019.094s0-.008 0-.025a.448.448 0 01.313-.414.484.484 0 01.242-.018c.172.029.32.138.495.198.083.032.175.04.263.023a.951.951 0 00.228-.1.635.635 0 01.223-.081.31.31 0 01.313.167.29.29 0 01.029.112.24.24 0 01-.018.099z"/><path fill="#263238" d="M15.114 9.688a.161.161 0 00-.016-.072c-.015-.03-.042-.055-.075-.069s-.072-.018-.108-.011a.468.468 0 00-.146.055 1.008 1.008 0 01-.17.078.671.671 0 01-.431-.051 2.407 2.407 0 00-.393-.148.453.453 0 00-.327.036.3.3 0 00-.133.16c-.015.047-.012.075-.016.075a.118.118 0 01-.004-.02.224.224 0 01.005-.058.298.298 0 01.132-.176.48.48 0 01.35-.046c.139.038.273.087.4.148.124.06.268.078.405.051a.936.936 0 00.165-.072.474.474 0 01.156-.054.22.22 0 01.139.022.16.16 0 01.066.073.116.116 0 01.009.058.036.036 0 01-.009.022z"/><path fill="#263238" d="M12.9 9.616a.417.417 0 01.05 0l.151-.003.566-.008 1.97-.022-.014.024-.28.49-.235.41-.005.01h-.012l-1.695-.005v-.006l-.364-.652-.097-.175-.025-.045-.007-.014.01.016.028.047.105.175c.089.154.218.37.374.636l-.012-.007 1.686-.004-.017.009.515-.899.017.024-2.651.005-.06-.005z"/><path fill="#000" opacity=".3" d="M13.453 10.496l.046.086h1.641l.424-.911-.472.824h-1.638z"/><path fill="#fafafa" d="M14.508 11.041s-.004-.016-.014-.044a.188.188 0 00-.077-.093.218.218 0 00-.184-.022c-.026.009-.049.022-.069.039s-.035.038-.044.061a.148.148 0 00.011.141.188.188 0 00.129.085c.027.005.055.005.082 0s.053-.015.075-.03a.182.182 0 00.077-.093c.009-.027.01-.043.014-.043a.075.075 0 010 .047.176.176 0 01-.073.109c-.029.021-.064.034-.102.04s-.075.003-.111-.009c-.044-.014-.082-.039-.109-.073s-.041-.074-.041-.115c0-.041.014-.081.041-.115s.065-.059.109-.073c.036-.011.074-.014.111-.009s.072.02.101.041a.18.18 0 01.073.109.075.075 0 010 .047z"/><path fill="#263238" d="M13.459 8.877c.01-.004.02-.009.027-.017s.013-.016.017-.025a.088.088 0 000-.064.345.345 0 00-.061-.077c-.052-.056-.076-.128-.069-.2s.047-.138.11-.184c.043-.035.092-.07.098-.117-.001-.025-.008-.049-.021-.071s-.03-.042-.052-.057a.504.504 0 01-.105-.122.29.29 0 01-.011-.256.304.304 0 01.124-.135.15.15 0 01.065-.027s-.021.012-.056.038a.33.33 0 00-.108.133.271.271 0 00.017.235c.028.042.062.08.102.114.021.02.04.041.057.064a.127.127 0 01.023.088.148.148 0 01-.044.081.735.735 0 01-.067.056c-.055.042-.09.101-.099.164s.011.128.053.18a.328.328 0 01.06.085.094.094 0 010 .077.068.068 0 01-.039.035c-.016.006-.022.005-.022.004zM13.738 8.877c.01-.004.02-.009.027-.017s.014-.016.017-.025a.088.088 0 000-.064.345.345 0 00-.061-.077c-.052-.056-.076-.128-.069-.2s.047-.138.11-.184c.043-.035.092-.07.098-.117-.001-.025-.008-.049-.021-.071s-.03-.042-.052-.057a.504.504 0 01-.105-.122c-.022-.04-.035-.083-.036-.127s.007-.088.025-.129a.322.322 0 01.124-.135.138.138 0 01.066-.027s-.022.012-.057.038a.32.32 0 00-.107.133.271.271 0 00.017.235.495.495 0 00.101.114c.021.02.041.041.057.064a.127.127 0 01.023.088.142.142 0 01-.044.081c-.022.021-.045.038-.066.056a.24.24 0 00-.099.235c.007.04.026.077.053.109a.35.35 0 01.059.085.094.094 0 010 .077.07.07 0 01-.039.035c-.015.006-.022.005-.022.004z"/><path fill="#fafafa" d="M5.387 27.958l-.506 2.897h.578l.977-2.897H5.387zM17.957 27.958l.506 2.897h-.579l-.976-2.897h1.049z"/><path fill="#535455" d="M2.755 20.275c-.041 1.307-.426 7.072.917 8.17h1.669c.436 0 .412-.181.395-.563l-.317-7.48a.621.621 0 00-.165-.395c-.218-.238-.66-.606-1.264-.57a1.967 1.967 0 00-.913.266c-.101.066-.183.153-.239.253s-.084.209-.083.32z"/><path fill="#535455" d="M17.881 28.528l-12.54-.084v-3.408h12.54v3.492z"/><path fill="#535455" d="M17.832 25.036l-12.562.091v-2.044l12.612-.208-.049 2.161z"/><path fill="#535455" d="M2.992 19.891s.093-2.838 3.643-2.984 8.818 0 8.818 0 4.46-.147 4.563 2.324l-.886 4.736H5.36l-2.369-4.076z"/><path fill="#535455" d="M20.544 20.576c-.094 1.956-.299 7.693-1.846 7.952h-1.15l.356-8.38s.533-.818 1.422-.768h.027c.336.024.649.163.871.386s.337.514.321.81z"/><path fill="#202324" d="M19.911 19.501l-.042-.009-.207-.05-.109-.015c-.039-.004-.081-.012-.127-.016h-.145a1.75 1.75 0 00-.713.157l-.049.021-.047.026-.096.053a1.801 1.801 0 00-.52.469v-.006l-.168 3.146a205.055 205.055 0 00-.156 3.7l-.032 1.122c0 .131-.007.234-.008.305 0 .034 0 .06-.004.079s0 .027 0 .027v-.027-.079-.305c0-.265.009-.648.02-1.122.024-.948.073-2.257.145-3.701a367.431 367.431 0 01.175-3.151c.096-.128.21-.244.341-.344.06-.047.123-.091.188-.131l.098-.054.048-.026.049-.021c.224-.101.472-.154.723-.154l.145.005c.045.004.087.012.127.017l.109.016.087.023.119.033.046.012z"/><path fill="#202324" d="M5.361 25.118h.952l2.598.006c2.194.007 5.224.028 8.569-.014h.139l-.018.015.036-1.035.017-.507.009-.25c0-.041.004-.084 0-.123-.002-.039-.015-.078-.036-.113s-.053-.065-.09-.089a.349.349 0 00-.123-.049.654.654 0 00-.14-.007h-.714l-1.101.006-3.809.035c-1.083.01-1.959.013-2.564.014H8.147h.243l.696-.005 2.564-.024 3.808-.042 1.102-.007h.714a.636.636 0 01.145.008c.049.009.096.028.136.054s.074.06.099.099a.268.268 0 01.041.124v.128c0 .083-.005.166-.008.25l-.017.506-.035 1.036c-.001.004-.003.007-.006.01s-.008.004-.012.005h-.138c-3.347.042-6.377.018-8.57.005l-3.488-.019-.06-.018z"/><path fill="#000" opacity=".2" d="M5.269 25.127c2.878.549 4.249.508 6.925.548 2.401.037 5.044-.344 5.426-.571l-12.35.023z"/><path fill="#202324" d="M5.341 28.444a.131.131 0 010-.028v-.083-.32c0-.279.007-.679.012-1.173l.052-3.87.033-2.131a1.27 1.27 0 00-.073-.468 1.36 1.36 0 00-.231-.395 1.577 1.577 0 00-.34-.288 1.616 1.616 0 00-.388-.168 1.655 1.655 0 00-1.263.172 1.141 1.141 0 00-.257.221c-.049.058-.069.093-.073.092a.568.568 0 01.066-.095c.07-.088.156-.165.254-.228a1.655 1.655 0 011.281-.183c.142.04.277.097.4.17.132.082.249.181.349.293.217.252.327.563.31.879l-.031 2.131-.063 3.869-.024 1.173c0 .138-.006.244-.008.32v.083a.314.314 0 01-.004.028z"/><path fill="#8baa36" d="M12.396 22.445c.027-1.343.175-2.681.444-4.003.041-.202.095-.419.272-.55.153-.114.364-.139.563-.153 1.43-.102 2.887.459 4.185 1.067.142.066.257.171.328.298s.094.271.067.411c-.218 1.094-.655 1.92-1.297 2.965a8.91 8.91 0 01-4.602.358z"/><path fill="#202324" d="M9.835 12.556c-.09-.564-.084-.545-.164-1.085-.154-1.047-.53-2.234-2.228-2.149 0 0-1.28.064-1.673.868-.21.434-.265 1.935-.335 3.286a.181.181 0 01-.015.064l-.079.204a2.73 2.73 0 00-.183.832l-.108 1.875c-.004.062.021.122.068.168s.113.074.183.077c.573.024 1.881-.04 2.132-.12.516-.166.986-.429 1.377-.769s.695-.75.89-1.202c.026-.064.396-.092.466-.115.115-.039-.314-1.827-.331-1.934z"/><path fill="#ffbf9d" d="M7.114 9.806l.108-.088 1.144.421c.08.005.155.036.21.087s.087.119.088.189l-.063 3.289c0 .223.073.481-.086.657l-.186.23c-.374.422-1.237.269-1.52-.204a.317.317 0 01-.039-.086.608.608 0 01-.016-.074c-.03-.265-.028-.495-.028-.495-.016-.291-.02-.41-.021-.407s-.701-.079-.879-.878c-.088-.396-.062-.939-.027-1.472.049-.737.639-1.179 1.315-1.171z"/><path fill="#202324" d="M7.294 11.512c.001.027.013.052.035.071s.051.029.082.029a.125.125 0 00.082-.026c.011-.009.02-.02.026-.032s.009-.025.01-.038c-.001-.027-.013-.052-.035-.071s-.051-.029-.082-.029c-.015 0-.03.002-.044.006a.109.109 0 00-.064.053.086.086 0 00-.01.038zM6.121 11.52c.001.027.013.052.035.071s.051.029.082.029a.125.125 0 00.082-.026c.011-.009.02-.02.026-.032s.009-.025.01-.038c-.001-.027-.013-.052-.035-.071s-.051-.029-.082-.029c-.015-.001-.03.002-.044.006a.109.109 0 00-.064.053.102.102 0 00-.01.038zM5.917 11.188c.015.013.101-.047.226-.051s.218.049.233.035c.015-.014-.009-.03-.05-.054a.354.354 0 00-.367.013c-.038.028-.05.052-.042.058zM7.19 11.216c.017.011.095-.056.218-.072s.224.029.236.013c.012-.015-.012-.029-.057-.049-.059-.026-.126-.036-.191-.028s-.125.034-.172.074c-.033.031-.042.056-.034.061zM6.739 12.014a1.01 1.01 0 00-.205-.026c-.033 0-.063-.006-.073-.026a.124.124 0 01.018-.084l.086-.218c.119-.31.204-.565.19-.569s-.122.244-.242.554l-.082.219a.144.144 0 00-.012.111c.005.01.012.018.022.025s.02.012.032.014a.921.921 0 00.265-.001z"/><path fill="#ff9a6c" d="M6.706 13.325A2.56 2.56 0 007.914 13s-.284.564-1.198.518l-.009-.193zM6.803 12.279c.023-.027.053-.049.088-.063a.251.251 0 01.192.002.2.2 0 01.065.045c.017.018.028.04.031.064s-.003.047-.016.068a.168.168 0 01-.164.042.503.503 0 01-.199-.112.03.03 0 01-.007-.02c0-.007.002-.014.007-.021z"/><path fill="#202324" d="M7.112 12.079c-.02 0-.015.12-.129.209s-.259.08-.259.097c0 .007.033.022.095.022a.376.376 0 00.218-.074.247.247 0 00.098-.172c.004-.053-.013-.082-.023-.081zM7.076 10.679c.017.028.139 0 .287-.003s.272.018.291-.011c.006-.014-.018-.04-.073-.064a.56.56 0 00-.436.011c-.053.027-.076.054-.069.067zM5.942 10.715c.023.024.108-.004.212-.009s.193.01.212-.017c.009-.013-.007-.038-.046-.06a.338.338 0 00-.342.021c-.036.027-.047.053-.036.065z"/><path fill="#202324" d="M8.616 11.82s-.645.168-.987-1.233c-.116-.479-.613-.871-.613-.871l.204-.052s1.263.33 1.284.344.311.58.311.58l-.199 1.231z"/><path fill="#ffbf9d" d="M8.459 11.765c0-.06.073-.202.137-.214.178-.03.501-.028.52.371.026.546-.602.457-.604.441s-.045-.392-.053-.598z"/><path fill="#ff9a6c" d="M8.691 12.15l.03.013a.125.125 0 00.081 0c.065-.024.116-.117.114-.216a.293.293 0 00-.036-.135c-.007-.017-.018-.032-.033-.044s-.033-.021-.052-.026c-.012-.002-.026-.001-.037.004s-.02.014-.025.024c-.007.016 0 .026-.007.027s-.013-.009-.009-.031a.059.059 0 01.023-.035.094.094 0 01.059-.016c.026.004.05.013.07.027s.037.032.047.053a.292.292 0 01.045.151c0 .11-.057.216-.146.241a.125.125 0 01-.099-.01c-.02-.014-.024-.026-.023-.028z"/><path fill="#202324" d="M8.185 11.547a.566.566 0 01-.31-.133.718.718 0 01-.205-.281 2.969 2.969 0 01-.127-.398 3.922 3.922 0 00-.137-.398 2.092 2.092 0 00-.156-.31 1.51 1.51 0 00-.139-.192c-.018-.022-.034-.038-.044-.049a.12.12 0 00-.016-.016.22.22 0 00.014.018c.009.011.024.028.041.051a1.892 1.892 0 01.287.502c.049.12.093.256.135.397.033.136.076.269.129.4a.743.743 0 00.211.283.563.563 0 00.319.126z"/><path fill="#8baa36" d="M10.051 14.485l-1.382-.459-1.964-.376-1.582.184c-.334.006-.912.623-1.352 1.285-.394.593-.705 1.188-.705 1.188l1.841.605c.105.689.259 1.6.392 1.959.227.614.296 1.456.296 1.456l4.373-.502.062-2.643 1.438-.165c.001-.093-.554-2.298-1.416-2.534z"/><path fill="#202324" d="M9.94 15.544c0 .022.003.043.008.064l.028.179a4.258 4.258 0 01-.03 1.373.34.34 0 00-.009.064 2.078 2.078 0 00.059-.243 3.39 3.39 0 00-.038-1.376.247.247 0 00-.019-.06z"/><path fill="#ffbf9d" d="M11.412 17.056l-1.421.135.023.343-.316-.398-.477.87s.192.508.296.788c.277.752.72 1.591 1.237 1.536.622-.064 1.062-.721 1.042-1.141-.017-.38-.384-2.133-.384-2.133zM12.078 22.041l2.464.85-.937.997-2.096-.321.569-1.526z"/><path fill="#202324" d="M5.602 20.283s-.065 2.472.193 2.902 2.749.448 2.749.448l3.929.175.458-1.617s-2.858-1.167-3.128-1.302-.909-.371-.909-.371l-.962-1.088-2.33.852z"/><path fill="#535455" d="M10.14 23.66l-.031-.01-.09-.023-.336-.081-1.134-.264a1.996 1.996 0 01-.189-.011 1.576 1.576 0 01-.356-.074 1.78 1.78 0 01-.309-.128 1.64 1.64 0 01-.655-.614c-.021-.036-.034-.064-.045-.084a.122.122 0 00-.017-.029.166.166 0 00.012.031c.009.02.02.051.04.088.056.105.127.204.21.294a1.737 1.737 0 00.756.468 1.753 1.753 0 00.556.086l1.133.256.338.073.092.019a.251.251 0 00.027.004z"/><path fill="#202324" d="M10.023 21.035l.669-3.599s-.089-2.591 1.565-2.405 1.455 2.465 1.455 2.465-.214 3.125-.331 3.576c-.117.451-.176.953-.514 1.133L11.366 22l-1.344-.965z"/><path fill="#202324" d="M11.313 15.686l-.4.851.248 3.249s2.132.161 2.11.109.382-1.618.382-1.618.132-2.079-.499-2.476c-.632-.397-1.841-.115-1.841-.115z"/><path fill="#ffbf9d" d="M11.247 19.791l.028 1.551 1.489.719.405-2.157-1.921-.113z"/><path fill="#202324" d="M7.929 19.43l1.626-.589.973.767-.54 1.529-1.427-.468-.632-1.238z"/><path fill="#535455" d="M12.836 22.191l-.02-.01-.06-.026-.23-.099-.848-.36-1.259-.527-1.441-.598a1.689 1.689 0 00-.547-.118c-.146-.008-.293 0-.436.024a2.394 2.394 0 00-1.331.697c-.14.146-.264.304-.37.47a4.06 4.06 0 00-.446.973l-.017.056a.065.065 0 00-.004.019s0-.006.008-.019l.02-.056c.017-.049.044-.121.08-.213.1-.261.227-.513.38-.754a3.09 3.09 0 01.371-.465 2.37 2.37 0 011.316-.684c.142-.023.286-.031.43-.023a1.657 1.657 0 01.54.115l3.555 1.47.232.093.061.024.016.01z"/><path fill="#535455" d="M9.739 20.928a1.333 1.333 0 01.018-.236 1.7 1.7 0 01.234-.529c.11-.166.204-.339.279-.519.021-.056.036-.112.047-.17.005-.021.007-.043.005-.064-.006 0-.016.09-.073.228a3.975 3.975 0 01-.287.512 1.59 1.59 0 00-.227.538.685.685 0 00-.008.175.234.234 0 00.012.064zM13.657 18.276l-.006.017c0 .013-.008.029-.015.05l-.052.192a45.685 45.685 0 00-.297 1.2c-.009.045-.02.089-.026.136V19.891v-.004h-.004a.234.234 0 01-.038.003h-.081c-.108 0-.218-.007-.335-.013-.46-.024-.964-.06-1.494-.098l-.146-.011.014.013c-.073-.903-.134-1.714-.18-2.304l-.057-.693a8.67 8.67 0 00-.018-.188c0-.02-.004-.036-.005-.049a.049.049 0 000-.017.048.048 0 000 .017v.049c0 .045.007.108.012.188l.048.694.171 2.304v.012h.014l.146.011c.53.039 1.035.073 1.495.096.115.005.227.01.337.012h.082c.014 0 .028-.002.042-.004a.088.088 0 00.015-.005c.003-.002.005-.004.006-.007v-.007c-.009 0 0-.003 0 0v-.015c.006-.045.016-.09.025-.134.038-.177.076-.341.112-.491l.172-.71.046-.192.011-.051a.057.057 0 00.007-.022z"/><path fill="#535455" d="M11.694 15.441a1.617 1.617 0 00-.165.145 2.092 2.092 0 00-.517.873 1.5 1.5 0 00-.035.147.172.172 0 00-.006.055c.005 0 .023-.076.062-.197.104-.316.278-.61.513-.866.089-.098.152-.154.148-.157zM9.26 20.515a.184.184 0 00-.01-.052 2.625 2.625 0 00-.248-.575 2.88 2.88 0 00-.283-.401c-.041-.048-.073-.086-.101-.111a.246.246 0 00-.041-.038s.047.064.124.161c.1.129.191.264.273.403s.151.283.21.431c.047.113.071.184.076.183zM6.585 20.328c-.005 0-.026.054-.073.14a1.672 1.672 0 01-.509.579c-.083.059-.139.092-.136.096s.016-.005.043-.018a1.488 1.488 0 00.414-.325c.086-.099.157-.209.211-.324a.872.872 0 00.041-.107.143.143 0 00.009-.041z"/><path fill="#fafafa" d="M14.505 23.911c.918-.041 1.149-.015 2.068-.056.224-.01 1.04.015 1.227-.094.171-.099.39-.192.436-.367.073-.296-.018-.63-.327-.815a.814.814 0 00-.364-.109c-.542-.038-1.037.31-1.579.207-.146-.028-.278-.099-.423-.128a1.033 1.033 0 00-.635.09c-.194.088-.239.103-.239.103l-.965-.287-.3 1.482 1.103-.025z"/><path fill="#fafafa" d="M13.688 22.102l.509.146c.037.011.069.034.088.064s.026.065.018.099l-.395 1.59c-.008.034-.03.064-.062.084s-.072.029-.111.025l-.515-.051c-.022-.002-.043-.008-.063-.018a.146.146 0 01-.076-.092.114.114 0 010-.058l.401-1.683c.004-.019.013-.038.026-.054s.03-.03.049-.04c.019-.01.041-.016.063-.019s.045 0 .066.006z"/><path fill="#202324" d="M13.896 24.064c.038-.077.07-.157.094-.239.052-.149.116-.357.175-.589s.097-.448.118-.6c.01-.077.018-.141.02-.184a.194.194 0 000-.068 1.79 1.79 0 00-.051.248c-.029.153-.073.365-.13.596s-.119.44-.162.591a1.648 1.648 0 00-.064.246zM14.215 22.613a.905.905 0 00-.8-.112c0 .012.186-.035.411 0s.383.122.389.112z"/><path fill="#202324" d="M14.155 23.213a1.991 1.991 0 00-.426-.118 1.992 1.992 0 00-.442-.059c.141.041.286.073.432.097.239.049.433.092.437.081zM13.923 23.836c0-.012-.197.009-.415-.073s-.341-.216-.351-.207c-.009.008.02.041.073.092a.87.87 0 00.563.206.302.302 0 00.13-.017z"/><path fill="#fafafa" d="M11.208 20.846l.039.671 1.522.643.253-1.12-1.814-.193z"/><path fill="#fafafa" d="M13.274 20.646l-.114.467c-.008.035-.031.065-.064.086s-.073.03-.113.026l-1.874-.181c-.04-.004-.077-.02-.104-.047s-.042-.061-.041-.096v-.465c0-.02.005-.039.015-.058s.023-.034.04-.047a.176.176 0 01.125-.035l1.985.179c.023.002.045.007.066.017a.148.148 0 01.08.095c.004.02.005.04 0 .06z"/><path fill="#202324" d="M11.037 21.04c.093.027.188.047.284.059.178.029.423.064.698.093s.523.038.704.041h.214a.295.295 0 00.078-.007 2.57 2.57 0 00-.291-.019c-.18-.01-.428-.026-.701-.052s-.519-.059-.697-.082a2.796 2.796 0 00-.29-.033zM12.741 21.17a.561.561 0 00.133-.358c.015-.215-.081-.374-.089-.369s.06.162.045.366-.098.355-.089.36z"/><path fill="#202324" d="M12.043 21.18c.049-.127.079-.259.091-.393.032-.22.034-.4.022-.401s-.034.177-.066.396c-.031.218-.06.395-.047.398zM11.301 21.04c.014 0-.031-.175.04-.378s.212-.327.202-.335c-.011-.008-.044.022-.097.077a.67.67 0 00-.178.523.227.227 0 00.033.112z"/><path fill="#ffbf9d" d="M7.82 15.922s.778.097.827.139 1.051 1.075 1.051 1.075l-.476.87-.882-.4a1.571 1.571 0 00-.279-.074s-.883-.106-.946-.198-.028-.115.037-.128c.065-.013.593.027.711.044.117.008.234.006.351-.006 0 0-.367-.069-.451-.092s-.906-.17-.896-.3c.01-.13.111-.178.626-.064.286.065.579.1.874.103l-1.141-.327s-.46-.12-.316-.238 1.128.101 1.128.101l.437.136-.128-.227s-.618-.149-.698-.202c-.099-.064-.114-.128-.042-.184s.215-.029.215-.029z"/><path fill="#202324" d="M5.165 14.833a.396.396 0 01-.01.077l-.039.207c-.033.175-.073.417-.116.684s-.068.512-.087.688l-.023.209a.398.398 0 01-.012.077.249.249 0 010-.077c0-.05.004-.122.01-.21.012-.177.036-.422.073-.69a7.803 7.803 0 01.178-.889.27.27 0 01.025-.074zM10.307 14.9c0-.018-.194-1.069-.284-1.441l-1.423.192c-.02.156-.026.698-.022.88a.75.75 0 00.196.508c.066.071.153.124.251.154s.204.035.306.015c.11.141.277.24.466.275.189.026.405-.061.466-.221a.79.79 0 00.044-.363zM8.234 15.044l-.227 1.916c-.004.031-.021.06-.048.08s-.062.03-.097.028l-1.347-.095c-.036-.002-.069-.017-.093-.041s-.035-.055-.033-.087l.159-2.014c.001-.017.006-.033.015-.048s.021-.028.036-.038a.146.146 0 01.107-.024l1.413.192c.035.005.067.021.088.046s.031.056.027.087z"/><path fill="#ffbf9d" d="M7.096 15.68s-.784-.017-.842.017-1.235.911-1.235.911l.307.928.946-.267c.095-.02.193-.031.291-.033 0 0 .891.024.967-.059s.048-.109-.013-.134-.59-.058-.709-.058a2.003 2.003 0 01-.345-.057s.375-.015.462-.026.925-.037.94-.166-.073-.192-.606-.155a4.176 4.176 0 01-.873-.02l1.18-.159s.476-.052.356-.192-1.132-.064-1.132-.064l-.455.071.168-.206s.638-.058.728-.098c.11-.05.137-.109.073-.175s-.207-.058-.207-.058z"/><path fill="#ffbf9d" d="M3.365 16.406l1.315.432-.025.161.396-.415.364.832s-.612 1.058-.744 1.329c-.379.786-1.053 1.196-1.536 1.022-.582-.209-.915-.749-.65-1.348.158-.356.88-2.013.88-2.013z"/><path fill="#ff9a6c" d="M5.02 16.608l.032-.026.097-.074.372-.28.59-.438.089-.064.047-.033a.181.181 0 01.062-.014c.081-.008.164-.009.249-.01h.54a.486.486 0 01.142.018c.024.007.047.018.066.033s.034.036.042.058c.005.012.007.024.005.036s-.005.024-.012.035c-.014.02-.033.037-.055.051s-.047.025-.073.033l-.073.016a9.03 9.03 0 01-.634.076l.01-.005-.168.205-.014-.02.455-.071c.191-.013.387-.021.587-.02.1 0 .202.004.304.014.052.005.103.013.154.025.026.006.05.016.073.029.013.007.023.016.032.027s.014.023.016.037c0 .014-.004.027-.011.039s-.018.022-.03.03a.307.307 0 01-.073.035 1 1 0 01-.154.042c-.105.02-.21.029-.316.045l-.992.132v-.027c.268.033.54.041.81.024a3.76 3.76 0 01.397-.012.62.62 0 01.196.032.143.143 0 01.078.064c.014.029.018.06.011.091a.067.067 0 01-.034.04.361.361 0 01-.044.022.745.745 0 01-.092.027 2.306 2.306 0 01-.185.032 6.673 6.673 0 01-.364.035l-.178.012c-.057.004-.117.012-.175.014-.116.006-.229.012-.341.016v-.024c.122.034.249.053.377.058a10.387 10.387 0 01.548.039c.029.003.058.006.087.011a.18.18 0 01.084.03.055.055 0 01.025.038.066.066 0 01-.01.041.194.194 0 01-.023.033l-.013.015c-.005.006-.012.01-.019.014a.592.592 0 01-.162.034c-.2.016-.401.022-.602.018h-.136a.94.94 0 00-.13 0c-.08.003-.16.014-.237.035l-.682.192-.226.061-.016.004.015-.005.046-.014.179-.052.679-.196c.166-.037.338-.05.509-.038.2.003.4-.004.599-.02a.535.535 0 00.154-.032.027.027 0 00.012-.009l.012-.014a.12.12 0 00.02-.03c.012-.021.012-.041-.009-.054a.183.183 0 00-.034-.018.382.382 0 00-.039-.008c-.028-.005-.057-.008-.085-.011a8.4 8.4 0 00-.545-.036 1.642 1.642 0 01-.383-.058c-.003-.001-.006-.003-.008-.006s-.003-.006-.002-.009l.005-.006c.002-.001.005-.003.008-.003.112-.004.226-.01.341-.017.058 0 .114-.01.175-.015l.178-.012a6.77 6.77 0 00.364-.035 2.23 2.23 0 00.182-.031.513.513 0 00.087-.026c.026-.01.057-.026.06-.044a.119.119 0 00-.009-.074.116.116 0 00-.063-.049.606.606 0 00-.185-.029 3.99 3.99 0 00-.394.013 4.332 4.332 0 01-.813-.022l-.006-.002-.005-.003-.003-.005v-.005a.02.02 0 01.004-.008c.002-.002.005-.003.009-.004l.992-.133c.106-.015.212-.025.314-.044.05-.01.098-.023.146-.04a.302.302 0 00.065-.032c.009-.005.016-.012.021-.019s.008-.017.008-.026c-.004-.038-.052-.06-.1-.071s-.096-.02-.146-.024a3.368 3.368 0 00-.301-.014c-.199 0-.395.007-.582.019l-.455.07h-.005l-.005-.002-.004-.004-.002-.005v-.01l.169-.205c.003-.003.006-.005.01-.005.218-.021.431-.042.631-.074a.3.3 0 00.136-.044c.039-.024.069-.06.053-.097-.008-.018-.02-.035-.036-.048s-.036-.023-.057-.029a.426.426 0 00-.133-.017 16.56 16.56 0 00-.538-.005c-.085 0-.168 0-.247.009a.178.178 0 00-.052.011l-.046.032-.089.064-1.071.776-.033.025z"/><path fill="#ff9a6c" d="M5.02 16.608c.008.006-.364.418-.826.92s-.847.904-.858.899.364-.417.826-.92c.463-.502.848-.905.858-.899z"/><path fill="#8baa36" d="M23.047 5.136c-.056 0-.106-.009-.151-.027s-.08-.045-.107-.081a.23.23 0 01-.042-.129h.199c.003.028.013.05.03.066s.039.022.066.022c.028 0 .05-.006.066-.019s.024-.031.024-.054c0-.019-.007-.035-.02-.047s-.028-.023-.047-.031a.63.63 0 00-.079-.027c-.05-.015-.09-.031-.121-.046s-.058-.038-.081-.068a.187.187 0 01-.034-.117c0-.071.026-.127.078-.167s.119-.061.202-.061c.085 0 .153.02.205.061s.08.096.083.168h-.202c-.001-.025-.011-.044-.027-.058s-.038-.022-.065-.022c-.023 0-.041.006-.055.019s-.021.029-.021.051c0 .025.012.044.035.058s.06.029.109.045c.05.017.09.033.12.048s.058.038.081.067.034.067.034.113c0 .044-.011.083-.034.119s-.054.064-.096.085-.092.032-.15.032zm.689.001c-.06 0-.114-.013-.162-.038s-.085-.062-.113-.109c-.027-.047-.04-.103-.04-.166s.014-.118.042-.165c.028-.048.066-.085.114-.111s.102-.038.162-.038c.06 0 .114.013.162.038s.086.062.114.111c.028.047.042.102.042.165s-.014.118-.043.166c-.028.047-.066.084-.115.109s-.102.038-.162.038zm0-.162c.036 0 .066-.013.091-.039s.038-.064.038-.113-.012-.086-.037-.113c-.024-.026-.054-.039-.09-.039s-.067.013-.091.039c-.024.026-.036.063-.036.113s.012.086.035.113a.117.117 0 00.09.039zm1.342-.615l-.266.514v.254h-.187v-.254l-.266-.514h.212l.149.322.148-.322h.21zm.695.158v.61h-.187v-.083a.227.227 0 01-.185.09c-.047 0-.088-.01-.124-.031s-.063-.051-.083-.091-.03-.086-.03-.139v-.357h.186v.332c0 .041.011.073.032.095s.05.034.085.034c.037 0 .065-.011.086-.034s.032-.054.032-.095v-.332h.187zm.929-.007c.076 0 .136.023.18.069s.068.11.068.191v.357h-.186v-.332c0-.039-.011-.07-.032-.091s-.049-.033-.085-.033c-.037 0-.065.011-.086.033s-.031.051-.031.091v.332h-.186v-.332c0-.039-.011-.07-.032-.091s-.049-.033-.085-.033c-.037 0-.065.011-.086.033s-.031.051-.031.091v.332h-.187v-.61h.187v.077c.019-.026.044-.046.074-.06s.065-.023.104-.023c.046 0 .087.01.123.03s.065.048.085.084a.242.242 0 01.205-.114zm1.175 0c.076 0 .136.023.18.069s.068.11.068.191v.357h-.186v-.332c0-.039-.011-.07-.032-.091s-.049-.033-.085-.033-.065.011-.086.033a.127.127 0 00-.031.091v.332h-.186v-.332c0-.039-.011-.07-.032-.091s-.049-.033-.085-.033-.065.011-.086.033a.127.127 0 00-.031.091v.332h-.187v-.61h.187v.077c.019-.026.044-.046.074-.06s.065-.023.104-.023c.046 0 .087.01.123.03s.065.048.085.084a.242.242 0 01.205-.114zm1.019.007l-.383.9h-.201l.14-.311-.248-.59h.209l.141.382.14-.382h.202z"/></symbol></defs></svg>
