<svg xmlns="http://www.w3.org/2000/svg" fill="none" preserveAspectRatio="xMidYMax meet" viewBox="0 0 456 422"><path fill="#E0E0E0" d="M169.29 18.26v78.46H41.2l-4.61-77.9 132.7-.56z"/><path fill="#FAFAFA" d="M36.59 18.82v77.73h128.08V18.82H36.59z"/><path fill="#E0E0E0" d="M165.29 97.08H35.98v-78.8h129.3v78.8zm-128.1-1.06h126.88V19.35H37.2v76.67z"/><path fill="#FAFAFA" d="M150.8 28.47H50.47v58.42h100.35V28.47z"/><path fill="#E0E0E0" d="M150.8 28.51h-7.43l-20.68.07-72.23.13.27-.2v58.42l-.32-.28 100.34.05-.25.23.14-42.5c0-5.08 0-9.05.06-11.76V28.5v4.08c0 2.71 0 6.65.06 11.7 0 10.19.08 24.8.13 42.65v.22h-.25l-100.35.06h-.32V28.26h.29l72.42.13 20.61.07h6.85l.67.05z"/><path fill="#E0E0E0" d="M36.59 18.6c.78.33 1.52.75 2.2 1.25 1.3.83 3.1 2 5.02 3.37a101 101 0 014.82 3.6c.69.5 1.3 1.06 1.83 1.7-.12.11-3.2-2.12-7.04-4.82-3.86-2.7-6.94-4.98-6.83-5.1zm128.09.22a63 63 0 01-6.75 5.01 61.77 61.77 0 01-7.12 4.6 62.23 62.23 0 016.73-5.04c3.84-2.64 7.03-4.7 7.14-4.57z"/><path fill="#FAFAFA" d="M164.57 96.56L150.3 86.38l14.27 10.18z"/><path fill="#E0E0E0" d="M150.3 86.38a70.02 70.02 0 017.34 4.87 67.08 67.08 0 016.93 5.31 66.58 66.58 0 01-7.34-4.88c-3.93-2.8-7.05-5.14-6.94-5.3zM36.59 96.55a60.64 60.64 0 016.69-5A60.3 60.3 0 0150.34 87a60.05 60.05 0 01-6.67 5 60.4 60.4 0 01-7.08 4.56zm34.25-49.88v19.56h63.13V46.67H70.84z"/><path fill="#F5F5F5" d="M295.49 386.23v35.82H420.7v-35.82H295.5z"/><path fill="#E0E0E0" d="M290.23 376.22v10.01h134.84v-10.01H290.23z"/><path fill="#E0E0E0" d="M357.66 422.05h63.04v-35.82h4.37v-10.01h-70.04v9.09l2.63 36.74zM338.4 392H313v5.4h25.4V392z"/><path fill="#FAFAFA" d="M342.34 404.14h-32.6v11.38h32.6v-11.38z"/><path fill="#455A64" d="M428.24-.1H274.1c-14.89 0-26.96 10.62-26.96 23.72v315.04c0 13.1 12.07 23.71 26.96 23.71h154.15c14.9 0 26.97-10.61 26.97-23.71V23.62c0-13.1-12.08-23.72-26.97-23.72z"/><path fill="#263238" d="M451.93 338.7V23.6c0-11.5-10.6-20.8-23.65-20.8H274.06c-13.06 0-23.65 9.3-23.65 20.8v315.1c0 11.49 10.59 20.8 23.65 20.8h154.22c13.06 0 23.65-9.31 23.65-20.8z"/><path fill="#455A64" d="M336.23 14.21a2.61 2.61 0 01-1.74-.54c-.23-.2-.42-.43-.55-.68a1.83 1.83 0 010-1.63c.13-.25.32-.48.55-.68a2.47 2.47 0 011.74-.54h29.8c.58.03 1.13.26 1.53.64.4.38.62.88.62 1.4 0 .51-.22 1.01-.62 1.39-.4.38-.95.6-1.54.64h-29.8zm-15.96 0c-.46 0-.9-.12-1.29-.34a2.11 2.11 0 01-.85-.92 1.8 1.8 0 01-.14-1.18c.1-.4.31-.76.64-1.04a2.55 2.55 0 012.53-.44c.42.15.78.41 1.04.75.25.33.39.73.39 1.13 0 .54-.25 1.06-.68 1.44-.44.39-1.03.6-1.64.6zm8.53 0a2.6 2.6 0 01-1.3-.34 2.13 2.13 0 01-.86-.91 1.82 1.82 0 01-.14-1.18c.1-.4.31-.76.64-1.05.32-.29.73-.48 1.18-.56a2.7 2.7 0 011.35.11c.42.16.78.42 1.04.76.25.33.4.73.4 1.13a1.98 1.98 0 01-.69 1.44 2.5 2.5 0 01-1.63.6zm53.28 0c-.46 0-.91-.12-1.3-.34a2.12 2.12 0 01-.85-.91 1.81 1.81 0 01-.14-1.18c.09-.4.3-.76.63-1.05.33-.29.74-.48 1.19-.56.45-.08.92-.04 1.34.11.43.16.79.42 1.04.76.26.33.4.73.4 1.13 0 .54-.25 1.06-.68 1.44a2.5 2.5 0 01-1.63.6zm-8.53 0c-.46 0-.9-.12-1.29-.34a2.12 2.12 0 01-.85-.92 1.8 1.8 0 01-.13-1.18c.09-.4.3-.76.63-1.04a2.61 2.61 0 012.53-.44c.42.15.79.41 1.04.75.26.33.4.73.4 1.13 0 .54-.25 1.06-.69 1.44-.43.39-1.02.6-1.64.6z"/><path fill="#FAFAFA" d="M429.36 4.84h-29.22c-2.24 0-4.43.64-6.22 1.82a9.25 9.25 0 00-3.76 4.73l-.5 1.5a9.87 9.87 0 01-3.98 5.1 12.15 12.15 0 01-6.66 1.97h-55.66c-2.4 0-4.75-.7-6.68-1.97a9.88 9.88 0 01-4-5.1l-.5-1.5a9.25 9.25 0 00-3.76-4.73 11.38 11.38 0 00-6.23-1.82h-26.5a22.1 22.1 0 00-14.56 5.3 17.1 17.1 0 00-6.03 12.81v314.31c0 4.52 2.04 8.85 5.67 12.05a20.79 20.79 0 0013.7 4.99H429.7c2.3 0 4.58-.4 6.71-1.17a17.82 17.82 0 005.69-3.35 15.44 15.44 0 003.8-5 13.82 13.82 0 001.34-5.9V20.58c0-4.18-1.9-8.18-5.25-11.13a19.2 19.2 0 00-12.64-4.6z"/><path fill="#455A64" d="M455.43 120.34h-.24V78.68h.24c.3 0 .59.1.8.3.22.18.34.44.34.7v39.66c0 .27-.12.52-.34.71-.21.19-.5.3-.8.3zm-208.58-16.01h.28v26.38h-.28c-.3 0-.59-.11-.8-.3a.94.94 0 01-.34-.7v-24.34a.9.9 0 01.08-.4.97.97 0 01.24-.33 1.27 1.27 0 01.82-.3zm0-34.43h.28v26.37h-.28c-.3 0-.59-.1-.8-.3a.94.94 0 01-.34-.7V70.93a.9.9 0 01.08-.4.98.98 0 01.24-.33 1.28 1.28 0 01.82-.3zm.08-25.87h.21V56.3h-.21c-.27 0-.53-.09-.72-.26a.84.84 0 01-.3-.63V44.92c0-.23.11-.46.3-.63.2-.16.45-.26.72-.26z"/><path fill="#263238" d="M402.03 17.02h-1.43v1.76h1.43v-1.76zm2.32-.79h-1.43v2.55h1.43v-2.55zm2.33-.58h-1.43v3.14h1.43v-3.14zm2.32-1.14h-1.42v4.28h1.43V14.5zm21.1 4.36h-7.17a.56.56 0 01-.36-.13.44.44 0 01-.16-.32V15.3c0-.12.06-.24.15-.32.1-.09.23-.14.36-.14h7.29a.1.1 0 010 .08v1.03h.76a.2.2 0 01.1.03l.04.08v1.52a.11.11 0 01-.04.08.14.14 0 01-.1.03h-.77v1.09a.1.1 0 010 .05l-.04.03a.14.14 0 01-.05.02zm-.12-3.8h-7.06l-.1.01a.25.25 0 00-.07.05.2.2 0 00-.07.16v3.13c0 .03 0 .06.02.09a.2.2 0 00.05.07l.09.04.1.02h7.04V17.6a.1.1 0 01.03-.08.14.14 0 01.1-.03h.76V16.2h-.82a.13.13 0 01-.04-.03.11.11 0 01-.03-.04v-1.08z"/><path fill="#263238" d="M423.26 18.12v-2.54h6.13v2.54h-6.13zm-7.41.51c0-.1-.03-.18-.1-.26a.52.52 0 00-.23-.17.6.6 0 00-.31-.03c-.1.02-.2.06-.27.13a.45.45 0 00-.15.24c-.02.1 0 .19.04.27.04.09.1.16.2.21a.59.59 0 00.5.04.52.52 0 00.17-.1.44.44 0 00.15-.33zm-2.3-1.11l.67.58a1.76 1.76 0 012.24 0l.67-.58a2.84 2.84 0 00-3.59 0z"/><path fill="#263238" d="M415.33 15.56a4.48 4.48 0 00-2.84 1.04l.67.58c.58-.5 1.36-.79 2.17-.79.82 0 1.6.28 2.18.79l.67-.58c-.38-.33-.82-.6-1.3-.77a4.48 4.48 0 00-1.55-.27z"/><path fill="#263238" d="M411.42 15.63l.67.6c.43-.38.94-.68 1.5-.89a5.15 5.15 0 015.02.88l.67-.59a5.98 5.98 0 00-3.93-1.43 6 6 0 00-3.93 1.43zm25.78 42.05c0 .13-39.5.24-88.2.24-48.71 0-88.2-.11-88.2-.24s39.48-.25 88.2-.25c48.72 0 88.2.1 88.2.25z"/><path fill="#FAFAFA" d="M327.94 318.55a4.3 4.3 0 01-1.75-1.46 3.61 3.61 0 01-.64-2.04c0-.71.22-1.42.64-2.03a4.32 4.32 0 011.75-1.46 5.76 5.76 0 012.48-.52c.86 0 1.7.17 2.47.52.71.33 1.31.83 1.73 1.44a3.5 3.5 0 01.5 3.1 3.76 3.76 0 01-.83 1.43c-.38.42-.86.77-1.4 1.02-.76.36-1.61.54-2.47.53a5.61 5.61 0 01-2.48-.53zm3.9-1.32c.41-.21.75-.52.98-.89a2.44 2.44 0 000-2.58 2.55 2.55 0 00-.99-.87 3.27 3.27 0 00-2.83 0c-.4.21-.75.51-.99.88-.24.4-.36.84-.36 1.29a2.38 2.38 0 001.35 2.17 3.26 3.26 0 002.83 0zm10.58 1.71l-1.7-2.16h-1.88v2.16h-2.05v-7.76h3.82c.7-.01 1.4.1 2.04.34.56.2 1.02.55 1.34 1 .32.44.48.96.46 1.48.03.53-.14 1.04-.46 1.48-.33.44-.8.78-1.36.97l1.98 2.5h-2.19zm-.52-5.95c-.4-.26-.9-.38-1.4-.35h-1.66v2.71h1.67c.5.03.99-.1 1.39-.36a1.15 1.15 0 00.47-1 1.1 1.1 0 00-.1-.55 1.25 1.25 0 00-.37-.45zm4.17-1.81h4.01c.88-.01 1.75.15 2.54.48.71.3 1.3.78 1.72 1.37a3.74 3.74 0 010 4.08 3.9 3.9 0 01-1.72 1.36c-.79.33-1.66.5-2.54.48h-4v-7.77zm3.9 6.3a3.3 3.3 0 002.13-.65c.51-.48.8-1.1.8-1.76 0-.65-.29-1.28-.8-1.76a3.25 3.25 0 00-2.12-.66h-1.87v4.82h1.87z"/><path fill="#EBEBEB" d="M323.07 64.2h-59.64v51.39h59.64v-51.4z"/><path fill="#263238" d="M263.43 64.2h12.99l36.28-.08 124.7-.1h.27v51.86h-.28l-174.01-.09h-.18v-.23c0-16.14.07-29.02.1-37.83V64.17v13.69c0 8.82.07 21.64.1 37.74l-.18-.17 174.01-.08-.27.25V64.2l.27.23-124.48-.1-36.36-.08h-12.28l-.68-.06z"/><path fill="#8BAA36" d="M306.34 89l-1.94 8.36 6.31-.13-4.37-8.23z"/><path fill="#000" d="M306.34 89l-1.94 8.36 6.31-.13-4.37-8.23z" opacity=".3"/><path fill="#8BAA36" d="M279.3 89.27l1.93 8.36-6.3-.13 4.36-8.23z"/><path fill="#000" d="M279.3 89.27l1.93 8.36-6.3-.13 4.36-8.23z" opacity=".3"/><path fill="#AFE814" d="M295.44 90.81c-.2 0-.4-.07-.54-.19a.67.67 0 01-.25-.47l-.92-19.58a.68.68 0 01.22-.52.87.87 0 01.58-.21h1.06c.22 0 .42.07.57.2.15.13.23.31.23.5l-.19 19.58c0 .18-.08.35-.22.48a.85.85 0 01-.54.21z"/><path fill="#8BAA36" d="M296.46 72.34h-2.63v1.7h2.63v-1.7z"/><path fill="#AFE814" d="M297.25 90.89a.76.76 0 01-.44-.35.61.61 0 01-.03-.52l6.77-18.67a.78.78 0 01.42-.44.88.88 0 01.65 0l1.06.33c.1.03.2.08.28.15a.7.7 0 01.18.23.63.63 0 01.01.56l-7.82 18.32a.69.69 0 01-.17.24.8.8 0 01-.27.16.88.88 0 01-.64-.01z"/><path fill="#8BAA36" d="M302.92 73.03l-.66 1.6 2.46.8.67-1.6-2.47-.8z"/><path fill="#FAFAFA" d="M304.83 85.92a5 5 0 00-1.58-1.37 5.73 5.73 0 00-2.08-.67 8.34 8.34 0 00-4.26.66c-1.06.43-2.12 1.02-3.19.83a6.48 6.48 0 01-2.13-1.05 8.46 8.46 0 00-5.67-1.01 8.24 8.24 0 00-4.91 2.98 4.22 4.22 0 00-.96 3.94l25.13-.08a4.25 4.25 0 00-.35-4.23z"/><path fill="#263238" d="M304.16 89.65a3.9 3.9 0 000-1.08 3.9 3.9 0 00-1.42-2.62 3.84 3.84 0 00-2.07-.79 6.53 6.53 0 00-2.6.32c-.89.26-1.72.77-2.7 1.11a4.29 4.29 0 01-3.19-.13c-1.01-.42-1.86-1.01-2.78-1.42a5.89 5.89 0 00-2.82-.55 6.3 6.3 0 00-2.38.6c-.74.35-1.38.84-1.87 1.44a6.18 6.18 0 00-1.33 2.7c-.08.35-.1.62-.12.8v.29a6 6 0 011.35-3.9 5.66 5.66 0 011.9-1.5 6.23 6.23 0 015.38-.08c.93.42 1.79 1 2.77 1.41a3.87 3.87 0 003 .14c.95-.34 1.8-.84 2.72-1.1.86-.3 1.78-.4 2.7-.33a3.8 3.8 0 013.52 3.57c.06.37.04.75-.06 1.12z"/><path fill="#263238" d="M302.97 89.91c.02-.3.02-.62 0-.93a2.7 2.7 0 00-.42-1.23 3 3 0 00-2.86-1.36 6.2 6.2 0 00-2.13.8 9.7 9.7 0 01-2.35 1.05c-.94.19-1.93.1-2.82-.24-1.8-.63-3.26-1.7-4.9-1.98a4.8 4.8 0 00-2.14.1c-.69.2-1.31.54-1.81 1a4.68 4.68 0 00-1.35 2.28c-.15.6-.13.94-.16.94-.02-.32 0-.63.07-.94a4.5 4.5 0 011.33-2.35c.51-.5 1.16-.86 1.88-1.07a4.94 4.94 0 012.23-.12c1.7.3 3.2 1.37 4.94 1.98.84.32 1.78.4 2.68.23a9.7 9.7 0 002.3-1.01c.66-.4 1.41-.67 2.2-.8a3.06 3.06 0 013 1.45 3 3 0 01.4 1.29c.03.3 0 .62-.1.91z"/><path fill="#263238" d="M301.41 89.92c.03-.25-.02-.5-.13-.74a1.63 1.63 0 00-.64-.64 2.06 2.06 0 00-1.27-.17c-1 .13-1.88.94-3.19 1.32-1.44.3-2.96.12-4.26-.5-1.26-.6-2.59-1.1-3.95-1.5a4.6 4.6 0 00-3.32.39 3 3 0 00-1.33 1.64c-.07.24-.11.5-.13.75a1.72 1.72 0 010-.77c.2-.7.66-1.31 1.33-1.73a4.5 4.5 0 013.46-.44c1.38.37 2.72.87 3.99 1.48 1.25.6 2.7.79 4.1.51 1.23-.36 2.13-1.17 3.2-1.28.46-.08.94 0 1.35.2.29.18.52.43.66.72.08.18.12.37.1.57.02.06.03.13.03.2z"/><path fill="#8BAA36" d="M279.25 89.2c0 .56 4.62 21.43 4.62 21.43l18.09-.26L306.32 89l-27.07.2z"/><path fill="#263238" d="M279.25 89.2h2.03l5.69-.07 19.37-.19h.17l-.07.14-2.8 4.9c-.81 1.4-1.6 2.77-2.35 4.1v.05h-16.95l-4.98-8.84 5.13 8.78-.08-.05h16.88l-.1.05 2.35-4.1 2.8-4.9.1.14-27.19-.02z"/><path fill="#000" d="M284.8 98l.45.87h16.42l4.23-9.12-4.72 8.25h-16.39z" opacity=".3"/><path fill="#FAFAFA" d="M296.51 106.78c-2.13.14-4.26.14-6.38 0 2.12-.12 4.25-.12 6.38 0zm-1.16-3.32s0-.16-.1-.44c-.09-.3-.26-.57-.5-.8a2.08 2.08 0 00-.87-.48 2.29 2.29 0 00-1.94.37c-.26.2-.46.46-.57.75-.12.3-.14.6-.08.9.07.3.22.59.44.82.23.24.52.42.84.53a2.24 2.24 0 001.9-.24c.37-.23.64-.56.77-.93.09-.28.09-.44.11-.44.03.15.03.3 0 .45-.1.43-.37.8-.76 1.07a2.4 2.4 0 01-3.13-.41 1.76 1.76 0 010-2.23 2.4 2.4 0 013.13-.4c.4.26.66.64.76 1.06a1 1 0 010 .42z"/><path fill="#263238" d="M284.8 81.8a.7.7 0 00.3-.15.84.84 0 00.18-.94 3.17 3.17 0 00-.6-.78 2.5 2.5 0 01-.65-1.95c.08-.7.46-1.34 1.06-1.8.43-.34.95-.69 1.01-1.2a1.75 1.75 0 00-.72-1.34 5.29 5.29 0 01-1.06-1.2 2.85 2.85 0 01-.12-2.53 3.16 3.16 0 011.84-1.65s-.22.1-.59.36c-.48.36-.85.82-1.06 1.34a2.7 2.7 0 00.15 2.4c.3.42.65.81 1.06 1.16a1.83 1.83 0 01.79 1.47 2.4 2.4 0 01-1.06 1.33 2.35 2.35 0 00-.45 3.52c.25.25.45.53.6.84.1.24.1.5 0 .74-.3.44-.68.44-.68.39zm2.85 0c.1-.02.2-.08.29-.15a.64.64 0 00.17-.25c.1-.22.1-.47 0-.69a3.17 3.17 0 00-.6-.78 2.5 2.5 0 01-.64-1.95c.08-.7.46-1.34 1.06-1.8.43-.34.95-.69 1.01-1.2a1.75 1.75 0 00-.72-1.34 5.26 5.26 0 01-1.06-1.2 2.85 2.85 0 01-.12-2.53 3.16 3.16 0 011.84-1.65s-.23.1-.59.36c-.48.36-.85.82-1.06 1.34a2.68 2.68 0 00.15 2.4c.3.42.65.81 1.06 1.16a1.83 1.83 0 01.79 1.47 2.4 2.4 0 01-1.06 1.33c-.42.32-.74.73-.9 1.2-.15.38-.18.8-.1 1.2.08.41.27.8.55 1.12.25.25.45.53.6.84.1.24.1.5 0 .74-.32.44-.7.44-.67.39z"/><path fill="#8BAA36" d="M369.16 73.41h-34.53v4.14h34.53v-4.14z"/><path fill="#E0E0E0" d="M425.7 83.61h-91.07v2.65h91.07v-2.65zm0 5.31h-91.07v2.65h91.07v-2.65z"/><path fill="#8BAA36" d="M401.5 104.56h-1.73v1.5h-1.28v-1.5h-1.72v-1.06h1.72v-1.47h1.28v1.47h1.72v1.06zm11.76 1.38v1.14h-5.23v-.94l2.67-2.22c.23-.18.42-.38.57-.61.1-.16.15-.34.15-.52a.6.6 0 00-.06-.3.7.7 0 00-.23-.26 1.41 1.41 0 00-.81-.2c-.29 0-.57.06-.82.16s-.47.26-.62.45l-1.17-.65a2.6 2.6 0 011.12-.83 4.1 4.1 0 011.63-.3c.47-.01.93.06 1.36.21.35.13.66.35.89.63.22.27.33.6.33.93 0 .33-.08.65-.25.94a3.6 3.6 0 01-.91 1l-1.6 1.32 2.98.05zm6.4-1.85h2.8v1.1h-2.8v-1.1z"/><path fill="#263238" d="M425.7 111.09v-1.03c0-.7 0-1.66-.05-2.88 0-2.5-.07-6.05-.1-10.42l.2.17-34.4.07.27-.24v14.32l-.27-.24 24.64.12 7.16.05h2.6-2.49l-7.1.06-24.8.11h-.27V96.63l.27-.24 34.4.07h.2v.17c0 4.42-.07 8-.1 10.53 0 1.2 0 2.16-.05 2.81v.73a.57.57 0 01-.1.39z"/><path fill="#E0E0E0" d="M341.58 106.51c-.6.47-1.37.76-2.18.8v1.25h-1.27v-1.2a8.1 8.1 0 01-1.77-.3 4.64 4.64 0 01-1.37-.6l.7-1.35a5.5 5.5 0 002.44.78v-1.87a9.44 9.44 0 01-1.5-.42 2.64 2.64 0 01-1.07-.68 1.72 1.72 0 01-.42-1.2 2.04 2.04 0 01.77-1.58 3.89 3.89 0 012.2-.8V98.1h1.27v1.21c.9.04 1.78.28 2.55.68l-.63 1.37c-.59-.3-1.24-.5-1.92-.58v1.87c.5.1 1 .23 1.49.4.41.15.78.38 1.06.68.29.34.44.76.42 1.19 0 .3-.06.6-.2.87-.12.27-.32.52-.57.72zm-4.14-4.4a2 2 0 00.7.3v-1.57a1.6 1.6 0 00-.72.3.7.7 0 00-.22.51c0 .09.02.18.06.26.04.08.1.14.18.2zm2.63 3.45a.63.63 0 00.18-.21.55.55 0 00.05-.26.5.5 0 00-.05-.26.58.58 0 00-.18-.2c-.2-.14-.43-.24-.67-.31v1.53c.25-.04.48-.14.67-.29zm11.05.95c-.6.48-1.38.76-2.19.8v1.25h-1.25v-1.2c-.6-.04-1.2-.13-1.78-.3-.5-.13-.96-.33-1.37-.6l.7-1.35a4.87 4.87 0 002.4.78v-1.87a9.83 9.83 0 01-1.53-.42 2.65 2.65 0 01-1.06-.68 1.72 1.72 0 01-.42-1.2 2.04 2.04 0 01.77-1.58 3.89 3.89 0 012.2-.8V98.1h1.26v1.21c.9.04 1.78.28 2.56.68l-.63 1.37c-.59-.3-1.25-.5-1.93-.58v1.87c.51.1 1.01.23 1.5.4.41.15.78.38 1.06.68.29.34.44.76.42 1.19a1.94 1.94 0 01-.71 1.59zm-4.13-4.4c.2.14.44.24.69.3v-1.57a1.6 1.6 0 00-.72.3.7.7 0 00-.22.51c0 .09.02.18.06.26.04.08.1.15.19.2zm2.62 3.45a.63.63 0 00.18-.21.57.57 0 00.06-.26.53.53 0 00-.06-.26.6.6 0 00-.18-.2 2 2 0 00-.68-.31v1.53c.26-.04.5-.14.68-.29z"/><path fill="#263238" d="M323.1 116.07c-.15 0-.27-11.54-.27-25.78 0-14.24.12-25.79.28-25.79.16 0 .28 11.54.28 25.79 0 14.24-.11 25.78-.28 25.78z"/><path fill="#EBEBEB" d="M323.07 120.9h-59.64v51.4h59.64v-51.4z"/><path fill="#263238" d="M263.43 120.9h13.03l36.29-.07 124.7-.11h.26v51.86h-.27l-174.02-.08h-.18v-.16c0-16.14.07-29.02.1-37.83v-13.57 13.69c0 8.81.07 21.65.11 37.74l-.2-.16 174.03-.09-.28.25V120.9l.28.23-124.5-.1-36.35-.07h-12.28l-.72-.06z"/><path fill="#8BAA36" d="M369.16 130.12h-34.53v4.13h34.53v-4.13z"/><path fill="#E0E0E0" d="M425.7 140.33h-91.07v2.65h91.07v-2.65zm0 5.29h-91.07v2.65h91.07v-2.65z"/><path fill="#8BAA36" d="M401.5 161.27h-1.73v1.48h-1.28v-1.48h-1.72v-1.06h1.72v-1.48h1.28v1.48h1.72v1.06zm9.26-3.59v6.1h-1.6v-4.97h-1.39v-1.13h3zm6.94 3.11h2.8v1.1h-2.8v-1.1z"/><path fill="#263238" d="M425.7 167.79v-1.03c0-.7 0-1.66-.05-2.87 0-2.51-.07-6.06-.1-10.43l.2.18-34.4.06.27-.24v14.32l-.27-.23 24.64.1 7.16.07h2.6c-.2.02-.4.02-.61 0h-1.88l-7.1.07-24.8.1h-.27v-14.42l.27-.24 34.4.06h.2v.18c0 4.42-.07 8-.1 10.54 0 1.2 0 2.14-.05 2.8v.74a.6.6 0 01-.1.24z"/><path fill="#E0E0E0" d="M341.58 163.21a3.8 3.8 0 01-2.18.8v1.25h-1.27v-1.2c-.6-.03-1.2-.13-1.77-.3a4.64 4.64 0 01-1.37-.6l.7-1.35a5.85 5.85 0 002.45.8v-1.88a11 11 0 01-1.52-.42 2.72 2.72 0 01-1.06-.68 1.7 1.7 0 01-.42-1.2 2.07 2.07 0 01.77-1.58 3.89 3.89 0 012.2-.8v-1.18h1.27v1.22c.9.04 1.78.27 2.55.67l-.63 1.37c-.59-.3-1.24-.5-1.92-.58v1.87c.5.1 1 .23 1.49.4.41.15.78.38 1.06.69.3.34.44.75.42 1.18 0 .28-.07.57-.2.83-.14.26-.33.5-.57.7zm-4.14-4.4c.2.15.44.25.7.3v-1.57a1.4 1.4 0 00-.72.32.67.67 0 00-.22.5c0 .1.02.18.06.25.04.08.1.15.18.2zm2.63 3.46a.63.63 0 00.18-.22.55.55 0 00.05-.26.5.5 0 00-.05-.25.6.6 0 00-.18-.2 2.3 2.3 0 00-.67-.32v1.54c.25-.04.48-.14.67-.3z"/><path fill="#263238" d="M323.1 172.77c-.15 0-.27-11.54-.27-25.78 0-14.24.14-25.81.28-25.81s.28 11.54.28 25.78c0 14.25-.11 25.8-.28 25.8z"/><path fill="#8BAA36" d="M281.53 139.29l2.21 25.88c.04.39.23.75.56 1.02.32.26.74.41 1.19.42l11.96.08c.44 0 .87-.14 1.2-.4.33-.27.53-.63.57-1.02l2.43-25.7-20.12-.28z"/><path fill="#000" d="M300.6 150.61c-6.08.22-12.17.15-18.24-.21l.57 7.79s10.64 1.6 17.03-.36l.65-7.22zm.91-9.61a32.04 32.04 0 01-13.03 1.7c-5.8-.31-6.81-1.55-6.81-1.55l-.08-1.16h20.02l-.1 1z" opacity=".3"/><path fill="#E0E0E0" d="M302.49 138.18l.47 1.8s-2.29 1.66-11.64 1.55c-8.38-.1-10.4-1.46-10.4-1.46l-.66-.5.58-1.68 21.65.3z"/><path fill="#263238" d="M302.49 138.18h-6.27l-15.4-.18h.07l-.56 1.68v-.06l.68.5c.26.14.54.26.83.35l.43.13.45.12a33.82 33.82 0 005.27.71c2.12.14 4.25.17 6.38.1a37.1 37.1 0 005.15-.46c.67-.11 1.34-.26 2-.44a6.09 6.09 0 001.46-.6l-.32-1.31-.09-.35v-.12.11l.09.35.36 1.32c-.46.26-.95.47-1.48.6-.65.2-1.31.35-1.99.46-1.7.29-3.43.45-5.16.5-2.13.06-4.26.04-6.38-.1a36.23 36.23 0 01-3.5-.36c-.6-.09-1.2-.2-1.8-.35-.15 0-.3-.08-.45-.12-.15-.03-.3-.08-.43-.14-.3-.08-.6-.2-.87-.35l-.69-.5.58-1.7 15.43.24 4.57.08h1.65l-.01-.1z"/><path fill="#FAFAFA" d="M280.82 138.02c0 .87 4.8 1.48 10.83 1.62 4.1.1 10.1-.6 10.84-1.5.57-.7-4.84-1.59-10.82-1.62-5.98-.04-10.84.66-10.85 1.5z"/><path fill="#263238" d="M280.82 138.02v-.1a.5.5 0 01.2-.23c.38-.21.78-.37 1.21-.46 1.56-.34 3.15-.55 4.76-.63 2.37-.14 4.75-.17 7.13-.07 1.35.06 2.75.16 4.25.33.72.09 1.46.2 2.2.34a10.01 10.01 0 011.61.46l.13.06.13.08.1.1a.2.2 0 010 .16.27.27 0 01-.07.14l-.12.1a2.15 2.15 0 01-.78.36c-.34.12-.7.21-1.06.3-.74.15-1.48.26-2.2.37a48.3 48.3 0 01-8.01.33c-1.2 0-2.31-.1-3.32-.2-1.6-.09-3.2-.3-4.75-.64a3.88 3.88 0 01-1.2-.46.52.52 0 01-.21-.23v-.1.1a.5.5 0 00.2.21c.38.2.79.35 1.21.43 1.56.33 3.15.53 4.75.62a80.15 80.15 0 007.11.17c1.34-.06 2.75-.16 4.2-.35.71-.09 1.44-.21 2.18-.36a10.9 10.9 0 001.58-.5l.23-.14c.06-.04.12-.1.15-.16a.19.19 0 00-.03-.1.21.21 0 00-.08-.07l-.24-.13a10.9 10.9 0 00-1.59-.44 51.5 51.5 0 00-6.37-.67c-2.37-.1-4.75-.09-7.12.05-1.6.06-3.19.26-4.75.59-.42.08-.82.23-1.19.43a.69.69 0 00-.22.21l-.02.1z"/><path fill="#E0E0E0" d="M297.83 136.52l.25 1s-1.28 1.03-6.54.88c-5.26-.15-5.84-.82-5.84-.82l-.15-.16.1-1.07 12.18.17z"/><path fill="#263238" d="M297.83 136.52h-3.53l-8.65-.1.07-.05c0 .33-.07.7-.1 1.06l.11.1c.03.05.06.08.1.1.3.15.63.25.97.31.33.08.67.13 1 .18a37.02 37.02 0 005.5.28c.96-.01 1.93-.1 2.88-.24.36-.07.72-.16 1.06-.27.3-.07.57-.19.81-.34l-.18-.75v-.26.06l.05.19.22.75c-.25.16-.53.28-.82.37-.35.11-.7.2-1.07.27-.95.17-1.92.26-2.89.28-1.06 0-2.29 0-3.56-.09-.64-.05-1.3-.1-1.97-.19-.33 0-.67-.1-1.01-.17a3.68 3.68 0 01-1-.33.48.48 0 01-.14-.11l-.1-.12.1-1.05v-.06h.06l8.68.14 2.57.06h.91l-.08-.02z"/><path fill="#FAFAFA" d="M285.65 136.43c0 .49 2.72.94 6.08.94s6.1-.37 6.1-.85c0-.49-2.73-.94-6.09-.94s-6.1.37-6.1.85z"/><path fill="#263238" d="M285.65 136.43s0-.09.12-.18c.2-.13.43-.22.67-.27.88-.19 1.78-.31 2.68-.36a39.68 39.68 0 016.39.12c.4.06.82.11 1.24.2a4.97 4.97 0 01.92.3.4.4 0 01.15.1c.04.05.06.1.07.16 0 .06-.03.11-.07.16a.4.4 0 01-.15.11c-.1.05-.2.1-.3.12a14.45 14.45 0 01-1.87.35 35.78 35.78 0 01-6.38.05c-.9-.06-1.8-.19-2.68-.39a2.45 2.45 0 01-.68-.27c-.14-.1-.12-.2-.11-.2 0 .04.02.08.04.1.03.04.06.06.1.08.2.11.43.2.66.24.88.2 1.77.31 2.67.36a41.4 41.4 0 006.37-.08 13.59 13.59 0 001.83-.34l.29-.12c.08 0 .15-.1.15-.17s-.07-.12-.15-.17a2.45 2.45 0 00-.28-.12c-.2-.07-.4-.11-.6-.16a19.53 19.53 0 00-3.6-.37 42.37 42.37 0 00-4 0c-.9.03-1.79.14-2.67.31-.23.05-.46.14-.68.25a.28.28 0 00-.1.08.24.24 0 00-.03.11z"/><path fill="#FAFAFA" d="M290.74 136.22l-.28-11.57 1.66-.07.27 11.65c-.65-.02-1.05.18-1.65-.01z"/><path fill="#263238" d="M290.74 136.22a3.48 3.48 0 00.94.06c.24-.03.48-.05.72-.04-.07-2.1-.2-6.56-.32-11.6l.07.06-1.66.05.06-.05.18 8.21v3.39-.88c0-.58 0-1.41-.07-2.44l-.24-8.25v-.05h.07l1.65-.07h.07v.1c.13 5.09.21 9.5.25 11.6a5.65 5.65 0 00-.72 0h-.52c-.1 0-.2-.02-.3-.05l-.18-.04z"/><path fill="#455A64" d="M291.6 124.66l.28 11.6-.62-.02-.37-11.57.71-.01z"/><path fill="#263238" d="M290.13 136.1s.73.08 1.62.1c.9 0 1.64-.11 1.64-.08a7.88 7.88 0 01-3.27-.03zm11.81 4.33a2.6 2.6 0 01-.32-.86c-.1-.29-.16-.58-.2-.88.16.27.27.56.32.86.1.29.17.58.2.88zm-1.74.47a3.62 3.62 0 01-.33-.88c-.11-.3-.18-.62-.2-.94.15.28.26.58.33.88.12.3.19.62.2.94zm-1.87.36a4.3 4.3 0 01-.29-.93 4.1 4.1 0 01-.16-.94c.15.3.24.62.29.94.1.3.16.62.16.93zm-2.2.21a7.18 7.18 0 01-.32-1.87c.1.3.18.62.22.93.07.31.1.62.1.94zm-2.33.09a3.96 3.96 0 010-.93c0-.32.04-.63.11-.94.04.31.04.63 0 .94 0 .31-.03.63-.1.93zm-1.89-.04a2.77 2.77 0 010-.94c0-.32.04-.63.13-.94.05.31.05.63 0 .94 0 .32-.04.63-.13.94zm-2-.07a2.5 2.5 0 01.07-.94c.03-.3.11-.6.24-.88 0 .31-.04.62-.12.93-.03.3-.1.6-.19.9zm-2.37-.14c.03-.32.1-.63.22-.94.08-.32.2-.63.35-.93a3 3 0 01-.22.93c-.07.33-.2.64-.35.94zm-2.16-.14a4 4 0 01.21-.94c.07-.32.18-.64.34-.93-.03.32-.1.63-.2.93-.07.33-.19.64-.35.94zm-2.54-.43c.05-.3.13-.6.26-.88.1-.3.24-.58.4-.84a6.8 6.8 0 01-.66 1.72zm-1.91-.63c.04-.27.13-.53.25-.78.07-.27.2-.52.36-.75-.04.27-.12.53-.25.78-.07.27-.2.52-.36.75z"/><path fill="#8BAA36" d="M309.71 200.8c.08-.35.05-.7-.07-1.03a1.97 1.97 0 00-.66-.85 3.54 3.54 0 00-2.13-.66 4 4 0 00-1.97.45 2.5 2.5 0 00-.83.71c-.2.3-.33.62-.36.97-.04.34.02.68.17 1 .14.32.38.6.67.83.65.5 1.5.77 2.37.75a3.1 3.1 0 002-.63 2.08 2.08 0 00.86-1.57"/><path fill="#EBEBEB" d="M323.07 177.47h-59.64v51.4h59.64v-51.4z"/><path fill="#263238" d="M263.43 177.47h13.04l36.28-.07 124.7-.11h.26v51.86h-.27l-174.02-.08h-.18v-.25c0-16.13.07-29.02.1-37.84v-13.55 13.69c0 8.82.07 21.64.11 37.73l-.19-.16 174.02-.08-.28.24v-51.38l.28.23-124.49-.11-36.36-.07h-12.28l-.72-.05z"/><path fill="#8BAA36" d="M369.16 186.69h-34.53v4.13h34.53v-4.13z"/><path fill="#E0E0E0" d="M425.7 196.89h-91.07v2.65h91.07v-2.65zm0 5.3h-91.07v2.65h91.07v-2.65z"/><path fill="#8BAA36" d="M401.5 217.84h-1.73v1.48h-1.28v-1.48h-1.72v-1.06h1.72v-1.49h1.28v1.49h1.72v1.06zm9.26-3.59v6.14h-1.6v-4.97h-1.39v-1.13l3-.04zm6.94 3.11h2.8v1.09h-2.8v-1.09z"/><path fill="#263238" d="M425.7 224.35v-1.03c0-.69 0-1.65-.05-2.87 0-2.5-.07-6.06-.1-10.42l.2.18-34.4.06.27-.24v14.3l-.26-.22 24.63.1 7.16.07h2.6-2.49l-7.1.06-24.8.11h-.27V210.1c-.06 0 .52-.46.28-.25l34.4.07h.2v.19c0 4.4-.08 8-.1 10.53 0 1.2 0 2.14-.06 2.8v.73c-.09.12-.1.2-.1.2z"/><path fill="#E0E0E0" d="M341.58 219.78a4 4 0 01-2.18.81v1.24h-1.27v-1.21a7.05 7.05 0 01-3.14-.9l.7-1.34a5.37 5.37 0 002.45.79v-1.88a9.76 9.76 0 01-1.52-.42 2.72 2.72 0 01-1.06-.68 1.7 1.7 0 01-.42-1.2 2.07 2.07 0 01.77-1.58 3.96 3.96 0 012.2-.8v-1.23h1.27v1.2c.9.05 1.78.28 2.55.68l-.63 1.37c-.59-.3-1.24-.5-1.92-.57v1.87c.5.1 1 .23 1.49.4.41.15.78.38 1.06.68.3.34.44.76.42 1.18a2.07 2.07 0 01-.77 1.59zm-4.14-4.4a2 2 0 00.7.3v-1.58c-.27.05-.52.16-.72.32a.67.67 0 00-.22.5c0 .1.02.18.06.26.04.07.1.14.18.2zm2.63 3.45a.63.63 0 00.18-.22.56.56 0 00.05-.26.5.5 0 00-.05-.25.58.58 0 00-.18-.2c-.2-.14-.43-.24-.67-.3v1.52c.25-.03.49-.14.67-.29zm10.18.95c-.6.48-1.37.76-2.18.81v1.24h-1.26v-1.21c-.6-.03-1.2-.12-1.78-.3-.5-.12-.96-.32-1.36-.6l.69-1.34a4 4 0 001.13.51c.42.15.86.24 1.32.28v-1.88c-.52-.1-1.02-.24-1.52-.42a2.7 2.7 0 01-1.06-.68c-.3-.34-.44-.77-.43-1.2 0-.3.07-.59.2-.86s.33-.52.57-.72a3.96 3.96 0 012.2-.8v-1.23h1.27v1.2c.9.05 1.78.28 2.56.68l-.63 1.37a5.6 5.6 0 00-1.93-.57v1.87c.5.1 1 .23 1.49.4.41.15.78.38 1.06.68.3.34.44.76.42 1.18a2 2 0 01-.76 1.59zm-4.14-4.4a2 2 0 00.7.3v-1.58a1.5 1.5 0 00-.7.32.68.68 0 00-.24.5c0 .1.02.18.06.26.04.07.1.14.18.2zm2.64 3.45a.65.65 0 00.17-.22.59.59 0 00.06-.26.48.48 0 00-.06-.25.57.57 0 00-.18-.2c-.2-.14-.42-.24-.67-.3v1.52c.26-.03.5-.14.68-.29z"/><path fill="#263238" d="M323.11 229.34c-.16 0-.28-11.55-.28-25.79 0-14.23.12-25.77.28-25.77.16 0 .28 11.54.28 25.77 0 14.24-.1 25.8-.28 25.8z"/><path fill="#455A64" d="M296.15 200.44a7.79 7.79 0 001.83-4.15 6.06 6.06 0 00-.73-3.93c-.05-.08-.1-.18-.2-.2a.48.48 0 00-.33 0c-.85.36-1.58.93-2.1 1.62a4.28 4.28 0 00-.33 4.76 5.03 5.03 0 001.86 1.85m3.31-3.39a7.18 7.18 0 003.08-2 4.75 4.75 0 001.35-3.02.35.35 0 00-.22-.08 4.59 4.59 0 00-2.1.29c-.65.25-1.22.66-1.65 1.17a3.21 3.21 0 00-.42 3.59"/><path fill="#8BAA36" d="M298.9 200.33c.07-.34.05-.69-.08-1.02a1.95 1.95 0 00-.66-.85 3.6 3.6 0 00-2.13-.66 3.88 3.88 0 00-1.96.46 2.25 2.25 0 00-1.17 1.44 2 2 0 00.11 1.12c.15.36.39.68.71.94.66.5 1.5.78 2.37.76.74.02 1.45-.21 2-.64.25-.2.45-.43.6-.7.15-.27.23-.56.25-.86"/><path fill="#455A64" d="M306.4 202.22c2.94.45 5.87-2.42 6.57-4.28a.58.58 0 000-.6.78.78 0 00-.7-.14 7.25 7.25 0 00-3.86 1.66 5.96 5.96 0 00-2 3.36"/><path fill="#8BAA36" d="M288.17 196.75c.08-.34.05-.7-.08-1.03a1.95 1.95 0 00-.66-.84 4 4 0 00-4.08-.2 2.3 2.3 0 00-.84.7 1.9 1.9 0 00-.2 1.97c.15.32.38.6.68.82.65.51 1.5.79 2.38.77.73.01 1.44-.22 1.99-.65a2.22 2.22 0 00.85-1.55"/><path fill="#455A64" d="M294.51 201.35a7.87 7.87 0 00-1.99-4.09 7.6 7.6 0 00-3.64-2.36.5.5 0 00-.3 0 .38.38 0 00-.13.1 4.21 4.21 0 00-.28 2.6c.18.81.6 1.58 1.22 2.21a5.49 5.49 0 002.32 1.39c.9.27 1.87.33 2.8.17m-10.77-2.33a13.1 13.1 0 01-1.55-1.87 3.95 3.95 0 01-.66-2.25c0-.05 0-.11.03-.17l.1-.14a.54.54 0 01.4 0 8.45 8.45 0 014.3 2.22 6.8 6.8 0 012.01 4.02l.09.4c-1.4.72-3.08.94-4.66.6-1.28-.2-2.5-.63-3.6-1.24a4.59 4.59 0 01-2.18-2.74 7.9 7.9 0 013 .03c1 .2 1.92.6 2.72 1.14zm18.38-2.28c1.45-1.2 3.26-2 5.21-2.33a5.7 5.7 0 01-.23 2.56 6.3 6.3 0 01-1.32 2.28 7.3 7.3 0 01-2.22 1.67 8.2 8.2 0 01-2.78.78l-.12-.19a4.23 4.23 0 01-.03-2.56 4.7 4.7 0 011.49-2.21z"/><path fill="#FAFAFA" d="M312.3 200.36a27.27 27.27 0 01-5.9 10.5c-6.53 7.07-21.29 5.1-25.25-.43-1.55-2.11-5.61-10-5.61-10l36.76-.07z"/><path fill="#263238" d="M312.3 200.36h-10.61l-26.2.1.1-.14c1.2 2.3 2.46 4.68 3.81 7.07.35.62.71 1.23 1.06 1.87.35.6.76 1.17 1.24 1.7a10.75 10.75 0 003.49 2.44 20.98 20.98 0 008.17 1.87c2.58.1 5.15-.26 7.55-1.1 2.09-.73 3.94-1.9 5.39-3.4a27.42 27.42 0 005.68-9.65l.26-.79a27.37 27.37 0 01-5.83 10.51 13.9 13.9 0 01-5.45 3.49 20.6 20.6 0 01-7.63 1.12 21 21 0 01-8.27-1.87 10.97 10.97 0 01-3.55-2.5 9.97 9.97 0 01-1.27-1.71 234.28 234.28 0 01-4.88-8.94l-.07-.14h36.93l.08.07z"/><path fill="#8BAA36" d="M309.88 205.64c0 .06-7.05.1-15.75.1s-15.77 0-15.77-.1 7.05-.1 15.77-.1c8.71 0 15.75.05 15.75.1zm.64-.79c0 .05-7.3.09-16.32.09-9.01 0-16.32 0-16.32-.1 0-.09 7.3-.1 16.32-.1s16.32.05 16.32.1z"/><path fill="#EBEBEB" d="M323.95 234.53H264.3v51.4h59.64v-51.4z"/><path fill="#263238" d="M264.31 234.53h13.03l36.29-.07 124.7-.1h.26v51.86h-.27l-174.02-.09h-.18v-.25c0-16.13.07-29.02.1-37.83v-13.56 13.71c0 8.81.07 21.64.11 37.73l-.2-.16 174.03-.09-.28.25v-51.39l.28.23-124.5-.1-36.35-.07h-12.28l-.72-.06z"/><path fill="#8BAA36" d="M370.04 243.75H335.5v4.14h34.53v-4.14z"/><path fill="#E0E0E0" d="M426.58 253.95h-91.07v2.65h91.07v-2.65zm0 5.3h-91.07v2.65h91.07v-2.65z"/><path fill="#8BAA36" d="M402.37 274.9h-1.72v1.48h-1.28v-1.48h-1.72v-1.06h1.72v-1.49h1.28v1.5h1.72v1.05zm9.27-3.58v6.14h-1.6v-4.97h-1.39v-1.14l3-.03zm6.94 3.1h2.8v1.09h-2.8v-1.09z"/><path fill="#263238" d="M426.58 281.41v-1.03c0-.69 0-1.65-.05-2.87 0-2.5-.07-6.05-.1-10.42l.2.18-34.4.07.27-.25v14.31l-.27-.23 24.64.1 7.16.07h2.6-2.49l-7.1.07-24.8.1h-.27v-14.34c-.07 0 .52-.47.27-.25l34.4.06h.2v.19c0 4.4-.07 8-.1 10.53 0 1.2 0 2.14-.05 2.8v.73c-.09.12-.1.2-.1.2z"/><path fill="#E0E0E0" d="M342.46 276.85c-.6.47-1.37.75-2.18.8v1.25H339v-1.22a7.04 7.04 0 01-3.14-.89l.7-1.35a5.37 5.37 0 002.45.79v-1.87a12.6 12.6 0 01-1.52-.42 2.72 2.72 0 01-1.06-.69c-.3-.34-.44-.77-.42-1.2a2 2 0 01.2-.86c.13-.27.32-.51.57-.72a3.96 3.96 0 012.2-.8v-1.23h1.27v1.21c.9.04 1.77.27 2.55.67l-.63 1.37c-.59-.3-1.24-.5-1.92-.57v1.87c.5.1 1 .23 1.49.4.4.15.77.39 1.06.69.3.33.44.75.42 1.18a2.1 2.1 0 01-.77 1.59zm-4.14-4.41c.2.14.44.25.7.3v-1.57c-.27.04-.52.15-.72.31a.67.67 0 00-.22.51c0 .09.01.17.06.25.04.08.1.15.18.2zm2.63 3.45a.63.63 0 00.17-.21.57.57 0 00.06-.27.49.49 0 00-.05-.24.56.56 0 00-.18-.2c-.2-.14-.43-.25-.67-.31v1.52c.25-.03.48-.13.67-.29zm10.18.96c-.6.47-1.37.75-2.18.8v1.25h-1.27v-1.22c-.6-.02-1.2-.12-1.77-.29-.5-.12-.96-.33-1.36-.6l.69-1.35a5.34 5.34 0 002.45.79v-1.87a12.6 12.6 0 01-1.52-.42 2.68 2.68 0 01-1.06-.69c-.3-.34-.45-.76-.43-1.2a2 2 0 01.2-.86c.13-.27.32-.51.57-.72a3.96 3.96 0 012.2-.8v-1.23h1.27v1.21c.9.04 1.78.27 2.56.67l-.64 1.37c-.59-.3-1.24-.5-1.92-.57v1.87c.5.1 1 .23 1.49.4.41.15.78.38 1.06.69.3.33.44.75.42 1.18 0 .3-.06.59-.19.86a2.1 2.1 0 01-.57.73zm-4.14-4.41c.2.14.44.25.7.3v-1.57a1.4 1.4 0 00-.7.31.68.68 0 00-.24.51.54.54 0 00.24.45zm2.64 3.45a.65.65 0 00.17-.22.58.58 0 00.05-.26.5.5 0 00-.05-.24.56.56 0 00-.18-.2c-.2-.15-.42-.25-.67-.31v1.52c.26-.03.5-.13.68-.29z"/><path fill="#263238" d="M323.99 286.4c-.16 0-.28-11.55-.28-25.78 0-14.24.12-25.78.28-25.78.16 0 .28 11.54.28 25.78 0 14.23-.11 25.78-.28 25.78z"/><path fill="#455A64" d="M297.03 257.5a7.77 7.77 0 001.83-4.15 6.05 6.05 0 00-.73-3.93c-.05-.08-.1-.18-.2-.2a.47.47 0 00-.33 0c-.85.37-1.58.93-2.1 1.63a4.27 4.27 0 00-.33 4.76 5.02 5.02 0 001.86 1.84m3.31-3.39a7.18 7.18 0 003.08-2 4.75 4.75 0 001.35-3.01.35.35 0 00-.22-.09 4.59 4.59 0 00-2.1.29c-.66.26-1.23.66-1.65 1.17a3.21 3.21 0 00-.42 3.59"/><path fill="#8BAA36" d="M299.77 257.4c.08-.34.05-.7-.07-1.03a1.96 1.96 0 00-.66-.85 3.6 3.6 0 00-2.13-.66 3.89 3.89 0 00-1.96.46 2.4 2.4 0 00-1.17 1.44c-.07.38-.03.76.11 1.12.14.36.39.68.71.94.66.5 1.5.78 2.37.77.74.01 1.45-.22 2-.65.25-.2.45-.43.6-.7.15-.27.23-.56.24-.85"/><path fill="#455A64" d="M307.27 259.28c2.95.46 5.88-2.42 6.58-4.28a.58.58 0 000-.6.78.78 0 00-.7-.14 7.25 7.25 0 00-3.87 1.66 5.96 5.96 0 00-1.98 3.36"/><path fill="#8BAA36" d="M289.05 253.81c.08-.34.05-.7-.08-1.02a1.96 1.96 0 00-.66-.85 4 4 0 00-4.08-.2 2.4 2.4 0 00-.84.7c-.2.3-.34.62-.37.97-.04.34.02.68.17 1 .14.32.38.6.68.82.65.52 1.5.79 2.38.77a3.1 3.1 0 001.99-.64c.25-.2.46-.44.6-.7.15-.27.23-.56.25-.86"/><path fill="#455A64" d="M295.39 258.42a7.88 7.88 0 00-2-4.1 7.6 7.6 0 00-3.63-2.36.5.5 0 00-.3 0 .37.37 0 00-.13.1 4.22 4.22 0 00-.28 2.6c.18.82.6 1.58 1.22 2.22a5.49 5.49 0 002.32 1.38c.9.27 1.86.34 2.8.18m-10.77-2.34c-.58-.58-1.1-1.2-1.55-1.87a3.95 3.95 0 01-.66-2.24c0-.06 0-.12.03-.17.02-.06.06-.1.1-.15a.53.53 0 01.39 0 8.46 8.46 0 014.3 2.23 6.8 6.8 0 012.02 4.01l.08.4c-1.4.72-3.07.94-4.66.6-1.28-.2-2.5-.62-3.6-1.24a4.59 4.59 0 01-2.17-2.73 7.9 7.9 0 013 .02c1 .2 1.92.6 2.72 1.15zm18.38-2.28c1.45-1.2 3.26-2 5.21-2.33a5.7 5.7 0 01-.23 2.56c-.26.83-.71 1.6-1.32 2.29a7.3 7.3 0 01-2.23 1.66 8.2 8.2 0 01-2.77.78l-.12-.19a4.22 4.22 0 01-.03-2.56 4.7 4.7 0 011.49-2.2z"/><path fill="#FAFAFA" d="M313.18 257.42a27.26 27.26 0 01-5.9 10.5c-6.53 7.07-21.29 5.1-25.26-.42-1.54-2.12-5.6-10-5.6-10l36.76-.08z"/><path fill="#263238" d="M313.18 257.42h-10.61l-26.2.1.1-.13c1.2 2.3 2.46 4.68 3.81 7.06.35.62.71 1.23 1.06 1.88.34.6.76 1.17 1.24 1.7a10.76 10.76 0 003.49 2.43 20.97 20.97 0 008.17 1.88c2.58.1 5.15-.27 7.55-1.1a13.8 13.8 0 005.39-3.42 27.4 27.4 0 005.68-9.64l.25-.78a27.37 27.37 0 01-5.83 10.51 13.9 13.9 0 01-5.44 3.48 20.59 20.59 0 01-7.63 1.12 21 21 0 01-8.27-1.87 11 11 0 01-3.55-2.49c-.49-.53-.91-1.11-1.27-1.72a235.5 235.5 0 01-4.88-8.94l-.07-.14h36.93l.08.07z"/><path fill="#8BAA36" d="M310.76 262.7c0 .06-7.05.1-15.75.1s-15.77 0-15.77-.1c0-.09 7.05-.09 15.77-.09 8.71 0 15.75.04 15.75.1zm.64-.8c0 .06-7.3.1-16.32.1-9.01 0-16.32 0-16.32-.1 0-.09 7.3-.1 16.32-.1s16.32.05 16.32.1z"/><path fill="#EBEBEB" d="M324.95 290.53H265.3v51.4h59.64v-51.4z"/><path fill="#263238" d="M265.31 290.53h13.03l36.29-.07 124.7-.1h.26v51.86h-.27l-174.02-.09h-.18v-.25c0-16.13.07-29.02.1-37.83v-13.56 13.71c0 8.81.07 21.64.11 37.73l-.2-.16 174.03-.09-.28.25v-51.39l.28.23-124.5-.1-36.35-.07h-12.28l-.72-.06z"/><path fill="#8BAA36" d="M371.04 299.75H336.5v4.14h34.53v-4.14z"/><path fill="#E0E0E0" d="M427.58 309.95h-91.07v2.65h91.07v-2.65zm0 5.3h-91.07v2.65h91.07v-2.65z"/><path fill="#8BAA36" d="M403.37 330.9h-1.72v1.48h-1.28v-1.48h-1.72v-1.06h1.72v-1.49h1.28v1.5h1.72v1.05zm9.27-3.58v6.14h-1.6v-4.97h-1.39v-1.14l3-.03zm6.94 3.1h2.8v1.09h-2.8v-1.09z"/><path fill="#263238" d="M427.58 337.41v-1.03c0-.69 0-1.65-.05-2.87 0-2.5-.07-6.05-.1-10.42l.2.18-34.4.07.27-.25v14.31l-.27-.23 24.64.1 7.16.07h2.6-2.49l-7.1.07-24.8.1h-.27v-14.34c-.07 0 .52-.47.27-.25l34.4.06h.2v.19c0 4.4-.07 8-.1 10.53 0 1.2 0 2.14-.05 2.8v.73c-.09.12-.1.2-.1.2z"/><path fill="#E0E0E0" d="M343.46 332.85c-.6.47-1.37.75-2.18.8v1.25H340v-1.22a7.04 7.04 0 01-3.14-.89l.7-1.35a5.37 5.37 0 002.45.79v-1.87a12.6 12.6 0 01-1.52-.42 2.72 2.72 0 01-1.06-.69c-.3-.34-.44-.77-.42-1.2a2 2 0 01.2-.86c.13-.27.32-.51.57-.72a3.96 3.96 0 012.2-.8v-1.23h1.27v1.21c.9.04 1.77.27 2.55.67l-.63 1.37c-.59-.3-1.24-.5-1.92-.57v1.87c.5.1 1 .23 1.49.4.4.15.77.39 1.06.69.3.33.44.75.42 1.18a2.1 2.1 0 01-.77 1.59zm-4.14-4.41c.2.14.44.25.7.3v-1.57c-.27.04-.52.15-.72.31a.67.67 0 00-.22.51c0 .09.01.17.06.25.04.08.1.15.18.2zm2.63 3.45a.63.63 0 00.17-.21.57.57 0 00.06-.27.49.49 0 00-.05-.24.56.56 0 00-.18-.2c-.2-.14-.43-.25-.67-.31v1.52c.25-.03.48-.13.67-.29zm10.18.96c-.6.47-1.37.75-2.18.8v1.25h-1.27v-1.22c-.6-.02-1.2-.12-1.77-.29-.5-.12-.96-.33-1.36-.6l.69-1.35a5.34 5.34 0 002.45.79v-1.87a12.6 12.6 0 01-1.52-.42 2.68 2.68 0 01-1.06-.69c-.3-.34-.45-.76-.43-1.2a2 2 0 01.2-.86c.13-.27.32-.51.57-.72a3.96 3.96 0 012.2-.8v-1.23h1.27v1.21c.9.04 1.78.27 2.56.67l-.64 1.37c-.59-.3-1.24-.5-1.92-.57v1.87c.5.1 1 .23 1.49.4.41.15.78.38 1.06.69.3.33.44.75.42 1.18 0 .3-.06.59-.19.86a2.1 2.1 0 01-.57.73zm-4.14-4.41c.2.14.44.25.7.3v-1.57a1.4 1.4 0 00-.7.31.68.68 0 00-.24.51.54.54 0 00.24.45zm2.64 3.45a.65.65 0 00.17-.22.58.58 0 00.05-.26.5.5 0 00-.05-.24.56.56 0 00-.18-.2c-.2-.15-.42-.25-.67-.31v1.52c.26-.03.5-.13.68-.29z"/><path fill="#263238" d="M324.99 342.4c-.16 0-.28-11.55-.28-25.78 0-14.24.12-25.78.28-25.78.16 0 .28 11.54.28 25.78 0 14.23-.11 25.78-.28 25.78z"/><path fill="#455A64" d="M298.03 313.5a7.77 7.77 0 001.83-4.15 6.05 6.05 0 00-.73-3.93c-.05-.08-.1-.18-.2-.2a.47.47 0 00-.33 0c-.85.37-1.58.93-2.1 1.63a4.27 4.27 0 00-.33 4.76 5.02 5.02 0 001.86 1.84m3.31-3.39a7.18 7.18 0 003.08-2 4.75 4.75 0 001.35-3.01.35.35 0 00-.22-.09 4.59 4.59 0 00-2.1.29c-.66.26-1.23.66-1.65 1.17a3.21 3.21 0 00-.42 3.59"/><path fill="#8BAA36" d="M300.77 313.4c.08-.34.05-.7-.07-1.03a1.96 1.96 0 00-.66-.85 3.6 3.6 0 00-2.13-.66 3.89 3.89 0 00-1.96.46 2.4 2.4 0 00-1.17 1.44c-.07.38-.03.76.11 1.12.14.36.39.68.71.94.66.5 1.5.78 2.37.77.74.01 1.45-.22 2-.65.25-.2.45-.43.6-.7.15-.27.23-.56.24-.85"/><path fill="#455A64" d="M308.27 315.28c2.95.46 5.88-2.42 6.58-4.28a.58.58 0 000-.6.78.78 0 00-.7-.14 7.25 7.25 0 00-3.87 1.66 5.96 5.96 0 00-1.98 3.36"/><path fill="#8BAA36" d="M290.05 309.81c.08-.34.05-.7-.08-1.02a1.96 1.96 0 00-.66-.85 4 4 0 00-4.08-.2 2.4 2.4 0 00-.84.7c-.2.3-.34.62-.37.97-.04.34.02.68.17 1 .14.32.38.6.68.82.65.52 1.5.79 2.38.77a3.1 3.1 0 001.99-.64c.25-.2.46-.44.6-.7.15-.27.23-.56.25-.86"/><path fill="#455A64" d="M296.39 314.42a7.88 7.88 0 00-2-4.1 7.6 7.6 0 00-3.63-2.36.5.5 0 00-.3 0 .37.37 0 00-.13.1 4.22 4.22 0 00-.28 2.6c.18.82.6 1.58 1.22 2.22a5.49 5.49 0 002.32 1.38c.9.27 1.86.34 2.8.18m-10.77-2.34c-.58-.58-1.1-1.2-1.55-1.87a3.95 3.95 0 01-.66-2.24c0-.06 0-.12.03-.17.02-.06.06-.1.1-.15a.53.53 0 01.39 0 8.46 8.46 0 014.3 2.23 6.8 6.8 0 012.02 4.01l.08.4c-1.4.72-3.07.94-4.66.6-1.28-.2-2.5-.62-3.6-1.24a4.59 4.59 0 01-2.17-2.73 7.9 7.9 0 013 .02c1 .2 1.92.6 2.72 1.15zm18.38-2.28c1.45-1.2 3.26-2 5.21-2.33a5.7 5.7 0 01-.23 2.56c-.26.83-.71 1.6-1.32 2.29a7.3 7.3 0 01-2.23 1.66 8.2 8.2 0 01-2.77.78l-.12-.19a4.22 4.22 0 01-.03-2.56 4.7 4.7 0 011.49-2.2z"/><path fill="#FAFAFA" d="M314.18 313.42a27.26 27.26 0 01-5.9 10.5c-6.53 7.07-21.29 5.1-25.26-.42-1.54-2.12-5.6-10-5.6-10l36.76-.08z"/><path fill="#263238" d="M314.18 313.42h-10.61l-26.2.1.1-.13c1.2 2.3 2.46 4.68 3.81 7.06.35.62.71 1.23 1.06 1.88.34.6.76 1.17 1.24 1.7a10.76 10.76 0 003.49 2.43 20.97 20.97 0 008.17 1.88c2.58.1 5.15-.27 7.55-1.1a13.8 13.8 0 005.39-3.42 27.4 27.4 0 005.68-9.64l.25-.78a27.37 27.37 0 01-5.83 10.51 13.9 13.9 0 01-5.44 3.48 20.59 20.59 0 01-7.63 1.12 21 21 0 01-8.27-1.87 11 11 0 01-3.55-2.49c-.49-.53-.91-1.11-1.27-1.72a235.5 235.5 0 01-4.88-8.94l-.07-.14h36.93l.08.07z"/><path fill="#8BAA36" d="M311.76 318.7c0 .06-7.05.1-15.75.1s-15.77 0-15.77-.1c0-.09 7.05-.09 15.77-.09 8.71 0 15.75.04 15.75.1zm.64-.8c0 .06-7.3.1-16.32.1-9.01 0-16.32 0-16.32-.1 0-.09 7.3-.1 16.32-.1s16.32.05 16.32.1z"/><path fill="#FAFAFA" d="M144.3 74.61h78.1a6 6 0 013.94 1.44 4.64 4.64 0 011.64 3.47v68.7c0 1.31-.6 2.56-1.64 3.48a6 6 0 01-3.95 1.44h-58.17c-5.32 3.97-15.48 11.96-15.48 11.96l-.75-11.96h-3.7a6 6 0 01-3.94-1.44 4.64 4.64 0 01-1.63-3.47v-68.7c0-1.3.59-2.56 1.63-3.48a5.99 5.99 0 013.94-1.44z"/><path fill="#263238" d="M144.3 74.61c-.61.04-1.21.14-1.8.3-.83.27-1.58.7-2.18 1.27a4.87 4.87 0 00-1.3 2 11.9 11.9 0 00-.2 3.4v14.36c0 7.67 0 16.96.06 27.6v23.74a6.9 6.9 0 00.21 2.25c.24.73.68 1.4 1.28 1.94.6.55 1.34.96 2.16 1.2.85.22 1.73.3 2.61.25h3v.2l.77 11.96-.42-.16L164.05 153l.08-.06h58.64a5.73 5.73 0 003.02-1.07 4.65 4.65 0 001.74-2.43c.15-.64.21-1.3.17-1.95V80.53c.02-.54 0-1.08-.05-1.62a4.23 4.23 0 00-.53-1.5 5.08 5.08 0 00-2.48-2.1 5.92 5.92 0 00-1.67-.44h-25.2l-39.16-.07 39.16-.08h25.25c.95.1 1.86.4 2.64.89a5.44 5.44 0 011.87 1.86c.3.51.5 1.06.57 1.62a10 10 0 01.07 1.68v66.85c.04.7-.03 1.4-.2 2.09a4.8 4.8 0 01-1.06 1.87 5.67 5.67 0 01-1.85 1.37 6.4 6.4 0 01-2.33.6h-58.51l.18-.06c-5.32 4.12-10.64 8.16-15.49 11.95l-.4.3v-.46l-.74-11.96.25.2h-2.77a9.03 9.03 0 01-2.78-.27 6.03 6.03 0 01-2.34-1.31 5.05 5.05 0 01-1.39-2.12 7.24 7.24 0 01-.22-2.37v-23.74c0-10.63 0-19.92.05-27.59V81.74c-.09-1.15 0-2.3.24-3.43.26-.77.72-1.47 1.35-2.04a5.76 5.76 0 013.62-1.48l.51-.18z"/><path fill="#BFE25D" d="M202.36 112.7l-2.83 12.21 9.21-.19-6.38-12.02z"/><path fill="#000" d="M202.36 112.7l-2.83 12.21 9.21-.19-6.38-12.02z" opacity=".3"/><path fill="#BFE25D" d="M162.84 113.09l2.83 12.21-9.23-.18 6.4-12.03z"/><path fill="#000" d="M162.84 113.09l2.83 12.21-9.23-.18 6.4-12.03z" opacity=".3"/><path fill="#AFE814" d="M186.45 115.35c-.3 0-.59-.1-.8-.28a.97.97 0 01-.36-.7l-1.35-28.61a.9.9 0 01.08-.4.94.94 0 01.25-.35c.1-.1.24-.18.38-.23.15-.06.3-.09.46-.09h1.63a1.3 1.3 0 01.82.3 1.03 1.03 0 01.34.74l-.28 28.6c0 .28-.13.54-.35.73-.22.19-.51.3-.82.3z"/><path fill="#BFE25D" d="M187.9 88.34h-3.83v2.48h3.84v-2.48z"/><path fill="#AFE814" d="M189.04 115.47c-.28-.1-.51-.28-.65-.52a.92.92 0 01-.06-.77l9.9-27.27a1.05 1.05 0 01.6-.61 1.3 1.3 0 01.92-.05l1.52.5c.3.09.53.28.66.53s.14.53.03.8l-11.43 26.78a1.1 1.1 0 01-.6.57c-.28.11-.6.13-.89.04z"/><path fill="#BFE25D" d="M197.37 89.37l-.97 2.33 3.6 1.16.97-2.33-3.6-1.16z"/><path fill="#E0E0E0" d="M200.15 108.2a7.37 7.37 0 00-2.3-2 8.41 8.41 0 00-3.02-1c-2.11-.22-4.26.1-6.17.94-1.5.63-3.05 1.5-4.66 1.21a9.65 9.65 0 01-3.05-1.52 11.66 11.66 0 00-3.97-1.48 11.94 11.94 0 00-11.5 4.36 6.64 6.64 0 00-1.42 2.74 6.1 6.1 0 00.01 3l36.73-.1a6.22 6.22 0 00-.65-6.16z"/><path fill="#263238" d="M199.17 113.69a5.66 5.66 0 00-2.13-5.33 5.7 5.7 0 00-2.98-1.14 9.58 9.58 0 00-3.77.47c-1.28.4-2.49 1.12-3.94 1.64a6.5 6.5 0 01-2.36.38 6.92 6.92 0 01-2.38-.58c-1.5-.63-2.74-1.48-4.06-2.08a8.95 8.95 0 00-7.7.14 8.57 8.57 0 00-2.48 1.97 9.02 9.02 0 00-1.97 3.91c-.2 1.01-.2 1.6-.25 1.58a1.14 1.14 0 010-.4c0-.41.02-.81.08-1.2a8.66 8.66 0 014.43-6.2 9.35 9.35 0 018.18-.25c1.38.62 2.64 1.47 4.04 2.06.67.3 1.4.48 2.13.54a5.8 5.8 0 002.13-.35c1.36-.47 2.6-1.2 3.96-1.61a9.95 9.95 0 013.99-.45 5.64 5.64 0 015.22 5.29c.02.4 0 .8-.08 1.2 0 .24-.03.4-.06.4z"/><path fill="#263238" d="M197.43 114.03c.03-.46.03-.92 0-1.38a3.97 3.97 0 00-.62-1.76 4.2 4.2 0 00-4.11-1.94c-1.1.2-2.15.6-3.07 1.16a14.02 14.02 0 01-3.47 1.54c-1.4.28-2.86.16-4.18-.35-2.67-.93-4.79-2.49-7.14-2.9a6.98 6.98 0 00-3.07.13c-1 .27-1.9.75-2.62 1.41a6.8 6.8 0 00-2 3.28c-.23.87-.21 1.39-.27 1.38-.05-.01 0-.13 0-.37a6.61 6.61 0 014.57-6.05 7.07 7.07 0 013.54-.26c2.52.43 4.68 2.02 7.24 2.9 1.2.46 2.55.58 3.84.33 1.18-.34 2.3-.84 3.34-1.46.98-.59 2.1-.99 3.26-1.18a4.6 4.6 0 013 .69 4.25 4.25 0 012.02 3.4 3.98 3.98 0 01-.26 1.43z"/><path fill="#263238" d="M195.15 114.04c0-.36-.07-.72-.23-1.05-.22-.44-.61-.8-1.1-1.02a2.62 2.62 0 00-1.58-.15c-.76.15-1.48.42-2.13.8-.78.46-1.62.84-2.5 1.14a9.88 9.88 0 01-6.3-.74 36.42 36.42 0 00-5.75-2.17 6.58 6.58 0 00-4.78.53 4.43 4.43 0 00-1.95 2.34c-.22.68-.17 1.1-.24 1.1a.96.96 0 01-.05-.3c-.02-.28.01-.57.08-.85a4.37 4.37 0 011.93-2.57 7 7 0 015.13-.68c2.03.54 3.99 1.27 5.85 2.16a9.54 9.54 0 005.93.75 14.4 14.4 0 002.41-1.05 7.1 7.1 0 012.3-.8c.7-.12 1.42 0 2.02.33.44.26.78.63.97 1.06.12.27.17.57.13.86 0 .11-.05.22-.14.31z"/><path fill="#BFE25D" d="M162.77 112.99c0 .83 6.75 31.31 6.75 31.31l26.46-.38 6.39-31.22-39.6.29z"/><path fill="#263238" d="M162.77 112.99c.25-.02.5-.02.74 0l2.2-.05 8.28-.12 28.37-.33h.44l-.2.36-4.1 7.16-3.43 5.99-.08.14h-.17l-24.66-.07h-.13v-.1a1968 1968 0 01-5.32-9.52l-1.41-2.56-.37-.66a.9.9 0 01-.1-.2l.16.23.41.68 1.53 2.57c1.31 2.24 3.2 5.4 5.47 9.3l-.18-.1 24.67-.06-.25.13 3.44-6 4.1-7.15.24.35-28.13.07h-10.64l-.88-.06z"/><path fill="#000" d="M170.86 125.86l.67 1.26h24l6.2-13.32-6.9 12.06h-23.97z" opacity=".3"/><path fill="#FAFAFA" d="M187.98 138.69c-1.55.24-3.12.32-4.69.24-1.57.08-3.14 0-4.7-.24 1.56-.24 3.13-.32 4.7-.24 1.57-.08 3.14 0 4.7.24zm-1.68-4.86s-.06-.23-.2-.64c-.2-.55-.6-1.02-1.13-1.36a3.27 3.27 0 00-2.7-.32 2.9 2.9 0 00-1 .57c-.29.26-.5.56-.65.9a2.21 2.21 0 00.17 2.06c.2.3.47.58.8.8a3.2 3.2 0 003.39 0 2.7 2.7 0 001.12-1.37c.14-.4.15-.64.2-.64.07.22.07.46 0 .68-.13.63-.5 1.2-1.06 1.6a3.67 3.67 0 01-3.1.46 3.3 3.3 0 01-1.6-1.06c-.4-.5-.61-1.08-.61-1.68 0-.6.21-1.19.6-1.68.4-.49.96-.86 1.6-1.06a3.61 3.61 0 013.1.47c.57.4.95.96 1.07 1.59.07.22.07.46 0 .68z"/><path fill="#263238" d="M170.96 102.19c.15-.06.28-.14.4-.25a1 1 0 00.25-.36c.12-.3.12-.64 0-.94-.24-.41-.54-.8-.9-1.13a3.7 3.7 0 01-1-2.92 3.9 3.9 0 011.6-2.7c.64-.51 1.36-1.02 1.45-1.71a2.33 2.33 0 00-.3-1.04 2.9 2.9 0 00-.77-.83 7.4 7.4 0 01-1.54-1.79 4.23 4.23 0 01-.15-3.74c.37-.8 1-1.5 1.8-1.98.28-.2.6-.34.96-.4 0 0-.31.18-.82.55a4.74 4.74 0 00-1.58 1.95 3.88 3.88 0 00.25 3.43c.4.62.9 1.18 1.49 1.67.31.28.59.6.83.93.27.39.39.84.34 1.29-.08.44-.3.85-.65 1.19-.31.28-.64.55-.98.81a3.42 3.42 0 00-.66 5.03c.36.37.65.8.87 1.24.16.36.16.77 0 1.13a1 1 0 01-.57.5c-.24.1-.32.07-.32.07zm4.07 0c.15-.06.29-.14.4-.25a1 1 0 00.25-.36c.12-.3.12-.64 0-.94-.24-.41-.54-.8-.9-1.13a3.7 3.7 0 01-1-2.92 3.9 3.9 0 011.61-2.7c.63-.51 1.36-1.02 1.44-1.71a2.33 2.33 0 00-.3-1.04c-.19-.32-.45-.6-.76-.83a7.14 7.14 0 01-1.54-1.79 4.15 4.15 0 01-.16-3.74c.38-.8 1-1.49 1.81-1.98.28-.2.6-.34.96-.4 0 0-.32.18-.83.55a4.68 4.68 0 00-1.56 1.95 3.86 3.86 0 00.24 3.43c.4.62.9 1.18 1.48 1.67.31.28.6.6.83.93.27.39.4.84.34 1.29-.07.44-.3.86-.65 1.19-.32.3-.66.56-.97.81a3.62 3.62 0 00-1.3 1.7 3.28 3.28 0 00.64 3.33c.36.37.65.8.87 1.24.16.36.16.77 0 1.13a1 1 0 01-.58.5c-.22.1-.32.07-.32.07z"/><path fill="#202324" d="M52.9 381.23l-7.4 42.37h8.45l14.29-42.37H52.9zm183.83 0l7.41 42.37h-8.47l-14.28-42.37h15.34z"/><path fill="#535455" d="M14.41 268.87c-.6 19.11-6.23 103.43 13.42 119.48h24.4c6.39 0 6.03-2.65 5.78-8.24l-4.64-109.4a9.07 9.07 0 00-2.41-5.77c-3.2-3.49-9.65-8.87-18.5-8.34-4.76.2-9.38 1.55-13.35 3.9a10.73 10.73 0 00-3.49 3.68 9.28 9.28 0 00-1.2 4.69z"/><path fill="#535455" d="M235.63 389.57l-183.4-1.22V338.5h183.4v51.06z"/><path fill="#535455" d="M234.9 338.5l-183.72 1.34v-29.9l184.45-3.04-.73 31.6z"/><path fill="#535455" d="M17.88 263.26s1.36-41.5 53.29-43.64c51.92-2.15 128.96 0 128.96 0s65.23-2.16 66.74 33.98l-12.96 69.27H52.52l-34.64-59.6z"/><path fill="#535455" d="M274.58 273.28c-1.37 28.6-4.37 112.5-27 116.3h-16.82l5.2-122.57s7.8-11.96 20.8-11.23h.4c4.91.36 9.48 2.38 12.73 5.65a15.53 15.53 0 014.7 11.85z"/><path fill="#202324" d="M265.31 257.56l-.61-.13-1.76-.42-1.28-.3-1.6-.23c-.57-.06-1.18-.16-1.84-.23h-2.13c-3.64.03-7.2.81-10.43 2.3l-.71.3-.7.38-1.4.77a30.2 30.2 0 00-2.7 1.88 26.18 26.18 0 00-4.9 4.98v-.08l-2.45 46.01a3014.08 3014.08 0 00-2.28 54.11l-.47 16.41c0 1.92-.1 3.43-.12 4.47 0 .5 0 .88-.05 1.16-.05.28 0 .4 0 .4v-6.04c0-3.87.14-9.48.3-16.4.35-13.87 1.06-33 2.13-54.13a5743.83 5743.83 0 012.55-46.1 26.12 26.12 0 015-5.03c.87-.68 1.79-1.33 2.75-1.92l1.42-.78.7-.38.73-.3a25.6 25.6 0 0110.57-2.25l2.13.06c.66.07 1.28.18 1.86.25l1.6.24 1.28.34 1.74.47.67.18z"/><path fill="#202324" d="M52.52 339.7h13.93l38 .09c32.08.1 76.4.41 125.33-.2h2.03l-.27.2.52-15.13.26-7.41.13-3.66c0-.6.06-1.23 0-1.8a3.46 3.46 0 00-.54-1.64 4.4 4.4 0 00-1.3-1.3 5.04 5.04 0 00-1.8-.72 9.8 9.8 0 00-2.06-.1h-10.44l-16.11.1-55.7.5c-15.85.14-28.66.2-37.51.2H93.26h3.55l10.18-.06 37.5-.35 55.7-.6 16.12-.1h10.44c.72-.05 1.43 0 2.13.1.72.14 1.4.41 2 .8.59.38 1.08.88 1.44 1.44.35.56.56 1.18.6 1.82v1.87c0 1.2-.08 2.43-.12 3.66l-.26 7.4-.5 15.15a.25.25 0 01-.1.15.31.31 0 01-.17.06h-2.03c-48.94.62-93.26.26-125.34.08l-38-.22-10.32-.06H53.4l-.88-.27z"/><path fill="#000" d="M51.18 339.84c42.1 8.03 62.14 7.42 101.27 8 35.12.54 73.77-5.03 79.36-8.34l-180.63.34z" opacity=".2"/><path fill="#202324" d="M52.24 388.35v-6.31c0-4.08.1-9.93.17-17.16l.76-56.6.5-31.16c.07-2.31-.29-4.63-1.07-6.84a19.81 19.81 0 00-3.39-5.77 22.72 22.72 0 00-4.98-4.22 23.85 23.85 0 00-5.68-2.46 24.08 24.08 0 00-18.48 2.52c-1.43.9-2.7 2-3.75 3.23-.73.85-1.02 1.36-1.07 1.34a10.75 10.75 0 01.96-1.4 15.54 15.54 0 013.71-3.33c2.3-1.45 4.9-2.47 7.66-3a24.3 24.3 0 0111.07.31c2.07.59 4.04 1.42 5.85 2.5a23.44 23.44 0 015.1 4.27 18.19 18.19 0 014.54 12.86l-.45 31.17-.92 56.6-.35 17.15c0 2.01-.09 3.57-.12 4.68v1.22a2.5 2.5 0 01-.06.4z"/><path fill="#8BAA36" d="M155.41 300.62a325.92 325.92 0 016.5-58.55c.59-2.95 1.38-6.12 3.97-8.05 2.24-1.67 5.32-2.03 8.24-2.24 20.9-1.5 42.22 6.71 61.2 15.6 2.08.98 3.76 2.5 4.8 4.36a8.78 8.78 0 01.98 6c-3.2 16.01-9.58 28.09-18.97 43.37a130.3 130.3 0 01-67.3 5.24"/><path fill="#202324" d="M117.95 155.99c-1.32-8.25-1.23-7.98-2.4-15.87-2.26-15.31-7.75-32.67-32.6-31.42 0 0-18.71.94-24.47 12.7-3.06 6.34-3.87 28.3-4.9 48.05a3 3 0 01-.22.93l-1.16 2.99a39.63 39.63 0 00-2.67 12.17l-1.57 27.41c-.05.9.3 1.79 1 2.46a4.12 4.12 0 002.67 1.13c8.37.35 27.5-.58 31.19-1.75a57.6 57.6 0 0020.14-11.25 49.27 49.27 0 0013.01-17.58c.38-.94 5.8-1.34 6.82-1.69 1.68-.57-4.59-26.71-4.84-28.28z"/><path fill="#FFBF9D" d="M78.17 115.77l1.57-1.29 16.74 6.16c1.17.07 2.27.53 3.07 1.28a3.92 3.92 0 011.3 2.77l-.93 48.1c0 3.26 1.07 7.04-1.25 9.61l-2.72 3.36c-5.47 6.18-18.1 3.94-22.23-2.99a4.58 4.58 0 01-.58-1.25 8.4 8.4 0 01-.23-1.08c-.44-3.87-.41-7.23-.41-7.23-.24-4.25-.3-6-.31-5.95-.01.04-10.26-1.16-12.86-12.85-1.28-5.78-.9-13.73-.39-21.52.71-10.78 9.34-17.25 19.23-17.12z"/><path fill="#202324" d="M80.8 140.72c0 .4.2.77.51 1.04.32.27.75.42 1.2.42a1.83 1.83 0 001.19-.39c.15-.13.28-.28.37-.46.09-.17.14-.36.14-.55-.01-.4-.2-.77-.52-1.05a1.85 1.85 0 00-1.2-.42c-.21-.01-.43.02-.63.09-.2.06-.4.17-.55.3a1.5 1.5 0 00-.38.46 1.6 1.6 0 00-.14.56zm-17.16.11c.01.4.2.77.52 1.04s.75.43 1.2.42a1.83 1.83 0 001.18-.38c.16-.13.29-.3.38-.47.09-.17.13-.36.14-.55a1.4 1.4 0 00-.52-1.04 1.84 1.84 0 00-1.2-.43 1.84 1.84 0 00-1.18.4 1.3 1.3 0 00-.38.46 1.3 1.3 0 00-.14.55zm-2.99-4.85c.22.2 1.48-.69 3.31-.74 1.83-.04 3.2.72 3.4.51.22-.2-.12-.44-.73-.8a5.14 5.14 0 00-2.73-.64 4.8 4.8 0 00-2.63.83c-.55.4-.73.76-.62.84zm18.62.41c.25.16 1.4-.83 3.2-1.05 1.8-.23 3.27.42 3.44.2.17-.23-.18-.43-.83-.73a5.27 5.27 0 00-2.8-.4 4.8 4.8 0 00-2.5 1.08c-.49.45-.62.82-.5.9zm-6.59 11.67c-.98-.23-2-.36-3-.38-.48 0-.93-.09-1.07-.37-.06-.43.03-.86.27-1.24.4-1 .8-2.07 1.25-3.18 1.75-4.54 2.98-8.26 2.78-8.32-.2-.06-1.79 3.57-3.53 8.1l-1.2 3.2c-.28.52-.34 1.1-.18 1.64a1.16 1.16 0 00.79.56c.27.07.54.1.81.08 1.03.09 2.06.06 3.08-.1z"/><path fill="#FF9A6C" d="M72.19 167.23a37.38 37.38 0 0017.66-4.76s-4.15 8.25-17.53 7.58l-.13-2.82zm1.42-15.3c.33-.4.78-.72 1.3-.92a3.67 3.67 0 012.8.02c.37.16.7.39.96.66a1.54 1.54 0 01.22 1.93c-.29.3-.67.51-1.1.62-.42.11-.87.1-1.3-.01a7.28 7.28 0 01-2.9-1.64.5.5 0 01-.1-.3c0-.1.03-.21.1-.3"/><path fill="#202324" d="M78.12 149c-.3 0-.22 1.75-1.88 3.06-1.66 1.3-3.79 1.17-3.79 1.42 0 .1.48.32 1.39.32a5.5 5.5 0 003.19-1.09 3.6 3.6 0 001.42-2.52c.06-.77-.19-1.2-.33-1.19zm-.52-20.47c.25.42 2.03 0 4.2-.04 2.18-.05 3.98.26 4.26-.16.1-.2-.26-.58-1.06-.94-1-.4-2.1-.6-3.2-.57a8 8 0 00-3.19.73c-.77.4-1.11.79-1 .98zm-16.57.53c.34.35 1.58-.07 3.1-.13 1.52-.07 2.82.15 3.1-.25.13-.18-.1-.55-.67-.88a5.03 5.03 0 00-5 .3c-.52.4-.68.78-.53.96z"/><path fill="#202324" d="M100.13 145.21s-9.44 2.46-14.44-18.02c-1.7-7-8.97-12.74-8.97-12.74l2.99-.76s18.47 4.83 18.78 5.03c.3.21 4.54 8.5 4.54 8.5l-2.9 18z"/><path fill="#FFBF9D" d="M97.83 144.42c0-.87 1.06-2.96 2-3.13 2.6-.44 7.32-.4 7.6 5.43.39 7.98-8.8 6.68-8.82 6.45-.03-.23-.66-5.74-.78-8.75z"/><path fill="#FF9A6C" d="M101.22 150.04s.17.1.44.19c.38.14.8.14 1.18 0 .95-.35 1.7-1.71 1.66-3.15a4.1 4.1 0 00-.53-1.98 1.6 1.6 0 00-.48-.64 1.9 1.9 0 00-.77-.38.9.9 0 00-.54.06c-.16.08-.3.2-.37.35-.1.24 0 .39-.1.4-.1.02-.19-.13-.14-.45.05-.2.16-.38.33-.52.25-.17.56-.25.87-.23.37.05.72.18 1.02.39.3.2.54.47.69.78.42.67.65 1.43.66 2.2 0 1.62-.84 3.16-2.13 3.53a1.89 1.89 0 01-1.46-.14c-.3-.21-.35-.39-.33-.4z"/><path fill="#202324" d="M93.82 141.23a8.5 8.5 0 01-4.54-1.95 9.94 9.94 0 01-1.67-1.75c-.52-.75-.97-1.53-1.33-2.35a44.31 44.31 0 01-1.86-5.82 55.63 55.63 0 00-2-5.82 30.64 30.64 0 00-2.29-4.54c-.6-.97-1.27-1.91-2.03-2.8-.26-.33-.49-.56-.64-.72a1.85 1.85 0 00-.23-.24c.06.1.13.18.2.26l.6.74c.71.9 1.37 1.84 1.96 2.81a32.33 32.33 0 012.23 4.53 62.67 62.67 0 011.97 5.8 44.15 44.15 0 001.88 5.86 10.37 10.37 0 003.09 4.14 8.29 8.29 0 004.66 1.85z"/><path fill="#8BAA36" d="M121.1 184.19l-20.2-6.71-28.74-5.5-23.14 2.69c-4.88.1-13.34 9.12-19.78 18.8-5.76 8.66-10.3 17.38-10.3 17.38l26.92 8.85c1.54 10.08 3.8 23.4 5.74 28.65 3.32 8.98 4.33 21.3 4.33 21.3l63.96-7.34.9-38.65 21.03-2.42c.02-1.35-8.1-33.6-20.71-37.05z"/><path fill="#202324" d="M119.5 199.68c0 .31.03.63.1.93a62.95 62.95 0 011.03 11.34 63.93 63.93 0 01-1.04 11.35c-.08.31-.12.62-.13.94.14-.3.24-.62.3-.94a49.77 49.77 0 00.01-22.75 3.8 3.8 0 00-.28-.87z"/><path fill="#FFBF9D" d="M141.02 221.8l-20.78 1.97.33 5.02-4.62-5.82-6.97 12.72 4.33 11.53c4.05 11 10.53 23.27 18.09 22.46 9.1-.93 15.53-10.54 15.23-16.69-.24-5.56-5.61-31.2-5.61-31.2zm9.73 72.9l36.04 12.43-13.7 14.58-30.66-4.7 8.32-22.3z"/><path fill="#202324" d="M56.05 268.99s-.95 36.16 2.82 42.45c3.76 6.29 40.2 6.55 40.2 6.55l57.45 2.56 6.7-23.64s-41.8-17.07-45.75-19.05c-3.95-1.97-13.29-5.43-13.29-5.43l-14.06-15.9-34.07 12.46z"/><path fill="#535455" d="M122.42 318.38a3 3 0 00-.46-.14l-1.32-.34-4.92-1.18-16.52-3.87h-.06a28.39 28.39 0 01-7.98-1.23 26.53 26.53 0 01-4.51-1.88 23.84 23.84 0 01-9.58-8.98c-.3-.53-.5-.94-.66-1.24a1.6 1.6 0 00-.26-.43c.04.16.1.31.17.46.13.3.3.74.6 1.28a21.01 21.01 0 003.07 4.3 25.22 25.22 0 006.46 4.93c1.45.78 3 1.42 4.59 1.92.84.27 1.7.5 2.57.7a28.58 28.58 0 005.56.56l16.57 3.75 4.94 1.06 1.34.28c.13.03.26.05.4.05z"/><path fill="#202324" d="M120.7 279.99l9.8-52.64s-1.3-37.9 22.88-35.18c24.18 2.72 21.28 36.06 21.28 36.06s-3.13 45.7-4.84 52.3c-1.71 6.6-2.58 13.94-7.51 16.58l-21.95-3-19.66-14.12z"/><path fill="#202324" d="M139.57 201.76l-5.85 12.44 3.63 47.5s31.17 2.36 30.85 1.6c-.32-.74 5.59-23.65 5.59-23.65s1.93-30.41-7.3-36.22c-9.24-5.8-26.92-1.67-26.92-1.67z"/><path fill="#FFBF9D" d="M138.6 261.8l.4 22.68L160.8 295l5.91-31.54-28.1-1.66z"/><path fill="#202324" d="M90.07 256.51l23.78-8.62 14.23 11.22-7.9 22.36-20.86-6.86-9.25-18.1z"/><path fill="#535455" d="M161.85 296.9l-.29-.16-.87-.38-3.36-1.44-12.4-5.26-18.42-7.72-10.88-4.5-5.76-2.4-2.94-1.23-1.5-.62a24.41 24.41 0 00-8-1.72 29.5 29.5 0 00-6.38.35A35 35 0 0071.6 282a44.03 44.03 0 00-5.42 6.88 59.7 59.7 0 00-6.52 14.23l-.25.82a.99.99 0 00-.07.28s0-.08.12-.27l.3-.81c.25-.73.64-1.77 1.17-3.12a62.49 62.49 0 015.55-11.03 45.2 45.2 0 015.43-6.8 34.87 34.87 0 0119.25-10c2.07-.35 4.18-.46 6.29-.34a24.19 24.19 0 017.9 1.69l1.48.62 2.95 1.22 5.75 2.39 10.89 4.52 18.46 7.63 12.46 5.12 3.4 1.37.89.34c.07.06.15.1.23.15z"/><path fill="#535455" d="M116.54 278.42c-.01-1.15.08-2.3.27-3.44a25.1 25.1 0 013.42-7.73 45.88 45.88 0 004.08-7.6c.3-.8.53-1.64.68-2.48.07-.31.1-.62.08-.94-.09 0-.24 1.32-1.07 3.33a56.88 56.88 0 01-4.19 7.5 23.13 23.13 0 00-3.32 7.86c-.15.85-.19 1.71-.12 2.57.02.32.07.63.17.93zm57.31-38.77l-.08.24c0 .19-.12.43-.22.73-.18.67-.42 1.61-.75 2.8-.64 2.45-1.57 5.99-2.65 10.37-.54 2.19-1.13 4.59-1.7 7.18-.13.65-.28 1.3-.38 2v.38-.14h-.05a3.4 3.4 0 01-.55.05h-1.18c-1.59 0-3.2-.1-4.9-.19a1158 1158 0 01-21.85-1.43l-2.13-.16.2.2c-1.06-13.22-1.96-25.08-2.64-33.7l-.84-10.14-.25-2.75c0-.3-.06-.53-.08-.7a.82.82 0 000-.25.82.82 0 000 .24v.71c0 .66.1 1.59.17 2.76l.7 10.14c.64 8.6 1.53 20.46 2.5 33.7v.18h.2l2.14.16a947.2 947.2 0 0021.86 1.4c1.68.07 3.32.15 4.93.17h1.19c.2 0 .41-.03.62-.06a.97.97 0 00.22-.07.22.22 0 00.08-.1.18.18 0 000-.1c-.13 0 0-.06 0 0v-.22c.09-.66.24-1.32.37-1.97.55-2.6 1.11-4.99 1.63-7.19 1.07-4.36 1.92-7.9 2.52-10.38l.67-2.8.16-.75c.05-.1.09-.2.1-.31z"/><path fill="#535455" d="M145.14 198.17a24.3 24.3 0 00-2.41 2.13 30.4 30.4 0 00-7.55 12.76c-.26.94-.43 1.64-.52 2.16-.06.26-.1.53-.08.8.07 0 .33-1.11.9-2.88a35 35 0 017.5-12.67c1.31-1.43 2.23-2.25 2.16-2.3zm-35.6 74.22a2.78 2.78 0 00-.15-.76c-.12-.48-.34-1.17-.63-2.01a39.28 39.28 0 00-7.12-12.26c-.6-.7-1.07-1.27-1.48-1.63a3.2 3.2 0 00-.6-.56s.68.94 1.81 2.35a50.67 50.67 0 017.06 12.19c.69 1.65 1.04 2.7 1.11 2.68zm-39.11-2.75c-.07 0-.38.8-1.06 2.05a24.32 24.32 0 01-3.2 4.61 25.69 25.69 0 01-4.25 3.86c-1.21.87-2.03 1.34-2 1.4.05.06.24-.07.64-.26.54-.29 1.06-.6 1.56-.94a20.07 20.07 0 007.58-8.56c.23-.5.44-1.03.6-1.56.08-.19.13-.39.13-.6z"/><path fill="#FAFAFA" d="M186.26 322.05c13.43-.6 16.8-.22 30.24-.82 3.27-.15 15.2.21 17.94-1.38 2.5-1.44 5.7-2.8 6.38-5.36 1.06-4.33-.27-9.22-4.79-11.93a11.88 11.88 0 00-5.32-1.59c-7.93-.55-15.17 4.54-23.1 3.03-2.13-.4-4.06-1.45-6.19-1.88a15.22 15.22 0 00-9.29 1.31 43.96 43.96 0 01-3.5 1.51l-14.1-4.2-4.4 21.68 16.13-.37z"/><path fill="#FAFAFA" d="M174.3 295.6l7.45 2.12c.54.16 1 .5 1.29.93.29.44.38.96.26 1.45l-5.78 23.25c-.12.5-.44.94-.9 1.24-.48.3-1.06.42-1.63.36l-7.53-.74a2.54 2.54 0 01-.92-.26 2.25 2.25 0 01-.71-.57 1.81 1.81 0 01-.4-1.62l5.87-24.62c.06-.28.2-.55.38-.78.2-.24.44-.44.72-.58a2.55 2.55 0 011.9-.19z"/><path fill="#202324" d="M177.34 324.29a21.6 21.6 0 001.37-3.5c.76-2.17 1.7-5.2 2.56-8.61a87.65 87.65 0 001.72-8.78c.15-1.14.26-2.06.3-2.7.06-.33.06-.66 0-.99a27.8 27.8 0 00-.75 3.63 165 165 0 01-1.89 8.72c-.83 3.37-1.73 6.43-2.37 8.63-.4 1.18-.72 2.38-.94 3.6zm4.67-21.22a12.64 12.64 0 00-5.6-2.2c-2.05-.3-4.16-.1-6.1.56 0 .18 2.72-.5 6.01 0 3.29.5 5.6 1.79 5.7 1.64z"/><path fill="#202324" d="M181.13 311.85a28.91 28.91 0 00-6.24-1.72 29.2 29.2 0 00-6.46-.87c2.06.6 4.18 1.06 6.32 1.41 3.5.71 6.33 1.34 6.38 1.18zm-3.38 9.11c0-.18-2.89.13-6.07-1.07-3.18-1.2-4.99-3.15-5.13-3.03-.14.12.3.6 1.07 1.34 1.08.94 2.36 1.7 3.77 2.21a13 13 0 004.46.79c.65.06 1.3-.03 1.9-.24z"/><path fill="#FAFAFA" d="M138.04 277.23l.56 9.8 22.26 9.4 3.7-16.38-26.52-2.82z"/><path fill="#FAFAFA" d="M168.24 274.3l-1.67 6.83c-.12.5-.45.95-.93 1.25-.47.3-1.06.44-1.64.39l-27.4-2.65a2.5 2.5 0 01-1.53-.68 1.9 1.9 0 01-.6-1.4v-6.81c0-.3.07-.58.2-.84.14-.27.34-.5.59-.7a2.69 2.69 0 011.82-.52l29.03 2.6c.33.03.66.12.96.26a2.16 2.16 0 011.17 1.38c.07.3.08.6 0 .89z"/><path fill="#202324" d="M135.53 280.06c1.35.4 2.74.68 4.16.86 2.6.43 6.19.94 10.2 1.37 4.01.43 7.65.56 10.3.6h3.13c.38.01.77-.02 1.14-.1a37.56 37.56 0 00-4.26-.28 236.52 236.52 0 01-20.44-1.97 37.5 37.5 0 00-4.23-.48zm24.93 1.9a8.23 8.23 0 001.94-5.23c.22-3.14-1.18-5.48-1.3-5.39-.13.08.87 2.37.65 5.35-.2 2.99-1.43 5.2-1.3 5.27z"/><path fill="#202324" d="M150.24 282.11a21 21 0 001.33-5.74c.47-3.22.5-5.85.32-5.86-.18-.01-.5 2.59-.96 5.78-.45 3.2-.87 5.78-.69 5.82zm-10.84-2.05c.2 0-.45-2.56.58-5.52 1.04-2.96 3.11-4.78 2.95-4.9-.16-.1-.65.33-1.41 1.14a9.74 9.74 0 00-2.6 7.64c.01.58.18 1.14.48 1.64z"/><path fill="#FFBF9D" d="M88.49 205.21s11.37 1.41 12.1 2.03c.72.62 15.36 15.73 15.36 15.73l-6.97 12.72-12.9-5.85a22.38 22.38 0 00-4.1-1.08s-12.9-1.54-13.82-2.9c-.92-1.34-.4-1.67.54-1.86.94-.2 8.67.4 10.4.64 1.7.12 3.42.09 5.12-.1 0 0-5.37-1-6.6-1.34-1.22-.35-13.24-2.48-13.1-4.38.16-1.9 1.62-2.6 9.17-.94 4.18.96 8.47 1.46 12.79 1.51l-16.7-4.78s-6.72-1.76-4.61-3.48c2.1-1.73 16.49 1.47 16.49 1.47l6.38 1.99-1.87-3.32s-9.05-2.18-10.22-2.95c-1.44-.94-1.67-1.87-.61-2.69 1.05-.81 3.15-.42 3.15-.42z"/><path fill="#202324" d="M49.66 189.29c0 .38-.06.75-.15 1.12l-.57 3.03c-.48 2.55-1.07 6.09-1.7 10-.62 3.91-.98 7.49-1.26 10.06l-.33 3.05a5.4 5.4 0 01-.18 1.13 3.96 3.96 0 010-1.13c0-.73.06-1.78.15-3.07.18-2.6.53-6.17 1.06-10.1a110.6 110.6 0 012.6-13c.08-.38.2-.74.38-1.09zm75.19.98c0-.26-2.83-15.63-4.15-21.07l-20.8 2.81c-.3 2.28-.39 10.2-.33 12.87-.03 2.7.98 5.31 2.87 7.43a8.26 8.26 0 003.67 2.26c1.44.44 3 .51 4.48.21 1.6 2.07 4.04 3.5 6.82 4.03 2.76.37 5.92-.89 6.8-3.23.63-1.71.85-3.52.64-5.3zm-30.31 2.11l-3.32 28.01c-.05.46-.3.87-.7 1.17-.4.3-.9.44-1.43.4l-19.7-1.38a2.1 2.1 0 01-1.36-.6 1.62 1.62 0 01-.47-1.27l2.32-29.46c.02-.24.1-.48.22-.7.13-.22.31-.4.53-.56a2.13 2.13 0 011.57-.36l20.66 2.81c.51.07.97.3 1.29.67.31.36.45.82.4 1.27z"/><path fill="#FFBF9D" d="M77.9 201.67s-11.47-.25-12.31.26c-.84.5-18.06 13.31-18.06 13.31l4.5 13.58s12.39-3.5 13.83-3.92c1.4-.28 2.82-.44 4.25-.47 0 0 13.04.34 14.14-.86 1.1-1.21.7-1.6-.19-1.96-.9-.37-8.63-.85-10.37-.85-1.71-.14-3.4-.41-5.05-.84 0 0 5.5-.21 6.76-.38 1.27-.17 13.53-.54 13.75-2.42.21-1.88-1.07-2.81-8.87-2.27-4.25.35-8.54.25-12.76-.3l17.25-2.33s6.96-.77 5.2-2.8c-1.75-2.05-16.55-.94-16.55-.94l-6.65 1.04 2.46-3.02s9.33-.84 10.64-1.43c1.6-.73 2-1.6 1.06-2.56-.93-.96-3.03-.84-3.03-.84z"/><path fill="#FFBF9D" d="M23.34 212.3l19.24 6.31-.37 2.35 5.8-6.06 5.31 12.17s-8.95 15.47-10.88 19.44c-5.55 11.5-15.4 17.5-22.46 14.94-8.52-3.05-13.39-10.95-9.5-19.7 2.3-5.22 12.86-29.45 12.86-29.45z"/><path fill="#FF9A6C" d="M47.53 215.24l.47-.38 1.42-1.08 5.44-4.09 8.63-6.4 1.3-.94.68-.49c.29-.12.6-.19.9-.2a43.4 43.4 0 013.65-.16h7.9c.7-.02 1.4.07 2.07.27.35.1.68.26.96.48a2 2 0 01.62.85 1.13 1.13 0 01-.1 1.03c-.2.3-.47.55-.8.74a4.3 4.3 0 01-1.06.5l-1.06.22c-2.95.5-6.05.81-9.27 1.12l.15-.07-2.46 3-.2-.28 6.65-1.04c2.79-.19 5.66-.31 8.59-.3 1.47 0 2.96.05 4.44.2.76.07 1.51.2 2.25.37.38.1.74.24 1.06.43a1.38 1.38 0 01.7.94c0 .2-.06.4-.17.57-.1.17-.25.32-.44.44-.33.21-.69.38-1.07.51-.72.26-1.47.46-2.24.61-1.53.3-3.08.43-4.62.66l-9.4 1.25-5.11.67v-.39c3.92.48 7.9.6 11.84.35a56.3 56.3 0 015.81-.18c.98 0 1.95.16 2.86.47a2 2 0 011.14.93c.2.42.26.88.16 1.33-.07.24-.25.46-.49.6-.2.12-.42.22-.65.31-.44.16-.89.3-1.35.4-.89.2-1.8.35-2.7.46-1.8.24-3.58.38-5.32.5l-2.6.17c-.85.06-1.72.17-2.57.21-1.7.1-3.35.17-5 .23v-.35c1.8.5 3.65.78 5.52.85a148.2 148.2 0 018 .56l1.27.16.66.15c.2.08.4.18.57.3a.85.85 0 01.37.56.92.92 0 01-.15.6c-.1.17-.2.34-.34.49l-.19.21a.97.97 0 01-.27.21 8.7 8.7 0 01-2.38.5 90 90 0 01-8.8.26h-1.99c-.63-.04-1.27-.04-1.9 0-1.18.03-2.34.2-3.47.5l-9.98 2.81-2.64.71-.67.18-.23.06.22-.08.67-.2 2.62-.77 9.94-2.87c2.43-.54 4.94-.73 7.44-.56 2.93.05 5.85-.05 8.76-.3.77-.05 1.53-.2 2.25-.47a.58.58 0 00.18-.13l.18-.2c.11-.14.21-.29.3-.44.18-.31.18-.6-.13-.79-.16-.1-.32-.2-.5-.26-.17-.05-.37-.08-.58-.12-.4-.07-.83-.11-1.24-.16a151.23 151.23 0 00-7.97-.53c-1.9-.07-3.79-.35-5.6-.85a.21.21 0 01-.13-.08.17.17 0 01-.03-.13.2.2 0 01.08-.1.23.23 0 01.11-.03c1.64-.07 3.3-.14 5-.25.85 0 1.66-.15 2.55-.21l2.6-.17a88.7 88.7 0 005.32-.52c.9-.1 1.79-.26 2.66-.45a9 9 0 001.28-.38c.38-.15.83-.37.88-.63.08-.37.04-.74-.12-1.08-.2-.33-.52-.58-.92-.71a8.77 8.77 0 00-2.7-.43c-1.92-.04-3.84.02-5.76.18a62.76 62.76 0 01-11.97-.35.18.18 0 01-.1-.12v-.08c0-.04.03-.08.06-.11a.23.23 0 01.13-.06l5.1-.68 9.41-1.25c1.54-.23 3.1-.37 4.59-.65.72-.14 1.44-.33 2.13-.58.33-.12.65-.28.94-.47a.86.86 0 00.31-.28.75.75 0 00.13-.38c-.07-.56-.77-.88-1.46-1.04-.7-.17-1.4-.3-2.13-.36-1.46-.13-2.93-.2-4.4-.2-2.92 0-5.78.1-8.51.28l-6.66 1.03h-.08a.2.2 0 01-.13-.09.17.17 0 01-.03-.06.17.17 0 010-.14l2.47-3a.24.24 0 01.15-.08c3.2-.3 6.3-.61 9.22-1.09.36-.06.72-.13 1.07-.22.33-.1.63-.25.91-.43.58-.35 1.01-.88.78-1.42-.11-.26-.3-.5-.53-.7-.24-.2-.52-.34-.83-.43a6 6 0 00-1.95-.24c-2.76-.07-5.4-.1-7.87-.07-1.25 0-2.46 0-3.62.13-.26.02-.52.07-.77.16l-.67.47-1.3.94-8.69 6.3-5.52 4.01-1.45 1.04-.48.36z"/><path fill="#FF9A6C" d="M47.53 215.24c.12.09-5.32 6.12-12.08 13.45-6.77 7.34-12.39 13.23-12.55 13.16-.16-.08 5.32-6.1 12.09-13.45s12.4-13.24 12.54-13.16z"/><path fill="#8BAA36" d="M311.17 47.46c-.82 0-1.55-.13-2.2-.4a3.26 3.26 0 01-2.18-3.07h2.91c.04.42.19.74.43.96.25.22.57.32.96.32.4 0 .73-.09.96-.27.24-.2.36-.45.36-.78a.9.9 0 00-.3-.7 2.14 2.14 0 00-.68-.44c-.27-.12-.65-.25-1.15-.4-.73-.22-1.32-.45-1.78-.67a3.28 3.28 0 01-1.18-1c-.33-.43-.5-1-.5-1.7a2.9 2.9 0 011.14-2.45 4.6 4.6 0 012.96-.9c1.23 0 2.23.3 2.99.9.76.58 1.16 1.4 1.22 2.46h-2.96a1.13 1.13 0 00-.4-.85 1.39 1.39 0 00-.95-.32c-.33 0-.6.1-.8.27-.2.18-.3.43-.3.76 0 .36.17.64.51.84.34.2.87.43 1.6.66.72.25 1.31.48 1.76.7.46.23.85.55 1.18.98.33.43.5.98.5 1.65a3.2 3.2 0 01-.5 1.74c-.32.53-.79.94-1.4 1.25-.62.31-1.35.46-2.2.46zm10.09.02a5 5 0 01-2.37-.56 4.1 4.1 0 01-1.65-1.6c-.4-.7-.59-1.5-.59-2.43 0-.92.2-1.72.6-2.42.41-.7.97-1.24 1.67-1.61a4.9 4.9 0 012.37-.56c.87 0 1.66.18 2.37.56.7.37 1.26.9 1.66 1.61.4.7.61 1.5.61 2.42 0 .92-.2 1.73-.62 2.43a4.1 4.1 0 01-1.68 1.6c-.7.37-1.5.56-2.37.56zm0-2.37c.52 0 .96-.19 1.33-.57.37-.39.56-.94.56-1.65 0-.72-.19-1.27-.55-1.65a1.7 1.7 0 00-1.31-.58c-.53 0-.98.2-1.33.58-.35.37-.53.92-.53 1.65 0 .71.17 1.26.52 1.65.35.38.78.57 1.3.57zm19.62-8.99L337 43.64v3.71h-2.74v-3.7l-3.89-7.53h3.1l2.18 4.7 2.16-4.7h3.07zm10.16 2.3v8.93h-2.73v-1.21c-.28.4-.66.71-1.14.96-.47.23-1 .35-1.57.35a3.13 3.13 0 01-3.02-1.78 4.5 4.5 0 01-.43-2.03v-5.22h2.72v4.85c0 .6.15 1.06.46 1.4.31.33.73.5 1.25.5.53 0 .95-.17 1.26-.5a2 2 0 00.47-1.4v-4.85h2.73zm13.6-.1c1.1 0 1.99.34 2.64 1.02.66.67 1 1.6 1 2.8v5.21h-2.73V42.5c0-.57-.15-1.01-.46-1.32-.3-.32-.72-.48-1.25-.48s-.96.16-1.26.48c-.3.3-.45.75-.45 1.32v4.85h-2.72V42.5c0-.57-.16-1.01-.47-1.32-.3-.32-.71-.48-1.24-.48-.54 0-.96.16-1.27.48-.3.3-.45.75-.45 1.32v4.85h-2.73v-8.93h2.73v1.12a3.35 3.35 0 012.6-1.22c.68 0 1.28.15 1.8.44.54.29.95.7 1.25 1.23a3.59 3.59 0 013.01-1.66zm17.18 0c1.1 0 1.99.34 2.64 1.02.66.67.99 1.6.99 2.8v5.21h-2.72V42.5c0-.57-.16-1.01-.47-1.32-.3-.32-.71-.48-1.24-.48-.54 0-.96.16-1.27.48-.3.3-.45.75-.45 1.32v4.85h-2.72V42.5c0-.57-.15-1.01-.46-1.32-.3-.32-.71-.48-1.25-.48-.53 0-.95.16-1.26.48-.3.3-.45.75-.45 1.32v4.85h-2.74v-8.93h2.74v1.12c.28-.37.64-.66 1.09-.88a3.4 3.4 0 011.52-.33c.67 0 1.27.14 1.8.43.52.29.94.7 1.24 1.23a3.6 3.6 0 013-1.66zm14.9.1l-5.6 13.17h-2.94l2.05-4.54-3.64-8.63h3.06l2.06 5.59 2.05-5.59h2.96z"/></svg>
