<?xml version="1.0" standalone="no"?>
<!DOCTYPE svg PUBLIC "-//W3C//DTD SVG 20010904//EN"
 "http://www.w3.org/TR/2001/REC-SVG-20010904/DTD/svg10.dtd">
<svg version="1.0" xmlns="http://www.w3.org/2000/svg"
 width="512.000000pt" height="512.000000pt" viewBox="0 0 512.000000 512.000000"
 preserveAspectRatio="xMidYMid meet">
<metadata>
Created by potrace 1.14, written by Peter Selinger 2001-2017
</metadata>
<g transform="translate(0.000000,512.000000) scale(0.100000,-0.100000)"
fill="#000000" stroke="none">
<path d="M1245 5113 c-80 -10 -236 -48 -314 -75 -200 -70 -366 -176 -520 -330
-199 -200 -318 -420 -383 -709 l-23 -104 0 -1335 0 -1335 23 -104 c65 -289
185 -511 384 -710 200 -199 420 -318 709 -383 l104 -23 1335 0 1335 0 104 23
c289 65 511 185 710 384 199 200 318 420 383 709 l23 104 0 1335 0 1335 -23
104 c-65 289 -185 511 -384 710 -195 194 -399 307 -688 379 l-105 26 -1320 2
c-726 1 -1333 0 -1350 -3z m506 -1059 c57 -29 59 -46 59 -455 0 -323 -2 -375
-16 -405 -45 -95 -184 -80 -214 24 -8 25 -10 163 -8 410 l3 374 37 34 c43 39
88 45 139 18z m1943 -18 c31 -15 69 -44 86 -66 64 -80 61 -11 58 -1285 l-3
-1160 -23 -46 c-36 -74 -87 -125 -160 -161 -60 -30 -76 -33 -152 -33 -111 0
-188 33 -259 111 -82 89 -84 101 -89 475 l-4 325 -36 20 c-63 33 -164 142
-199 215 -58 120 -58 120 -58 669 0 495 0 506 22 576 40 125 131 238 248 309
106 64 213 85 397 81 103 -3 123 -6 172 -30z m-2474 9 c59 -30 60 -39 60 -432
0 -388 4 -421 56 -525 14 -29 62 -89 106 -135 49 -52 89 -104 106 -140 l27
-58 5 -591 c5 -565 6 -593 24 -613 29 -32 88 -47 125 -32 70 30 65 -11 71 645
l5 591 26 55 c15 33 60 92 111 146 89 96 127 162 147 252 7 34 11 181 11 408
0 392 1 398 62 430 75 39 160 -10 173 -100 4 -25 5 -202 3 -393 -5 -312 -7
-356 -26 -424 -36 -132 -112 -257 -210 -343 -74 -65 -72 -44 -72 -676 0 -643
2 -623 -82 -715 -70 -77 -148 -110 -258 -110 -71 0 -94 4 -141 26 -76 36 -133
90 -166 157 l-28 57 -5 595 c-3 327 -7 596 -8 598 -1 1 -42 45 -90 96 -100
106 -151 195 -182 320 -18 72 -20 113 -20 466 0 380 0 388 21 414 37 47 96 59
149 31z"/>
<path d="M3311 3814 c-89 -31 -151 -84 -193 -164 l-23 -45 -3 -499 -3 -498 24
-52 c36 -78 80 -122 163 -161 119 -57 114 -35 114 -457 l0 -356 26 -31 c31
-38 78 -48 127 -28 71 30 67 -47 67 1176 0 605 -3 1106 -6 1115 -9 22 -229 22
-293 0z"/>
</g>
</svg>
